<svg viewBox="0 0 16 16" fill="none" xmlns="http://www.w3.org/2000/svg" style="height: 24px; width: 24px;"><path d="M2 14H14C15.1045 14 16 13.1046 16 12L16 4.00002C16 2.89545 15.1046 2.00002 14 2.00002H2C0.895431 2.00002 0 2.89544 0 4.00001V12C0 13.1046 0.895431 14 2 14Z" fill="#0A17A7"></path><mask id="mask0_447_246" maskUnits="userSpaceOnUse" x="0" y="2" width="16" height="12" style="mask-type: alpha;"><path d="M2 14H14C15.1045 14 16 13.1046 16 12L16 4.00002C16 2.89545 15.1046 2.00002 14 2.00002H2C0.895431 2.00002 0 2.89544 0 4.00001V12C0 13.1046 0.895431 14 2 14Z" fill="#0A17A7"></path></mask><g mask="url(#mask0_447_246)"><path d="M15 1.44824L10 5.63366V2H6V5.63366L0 1.44824L-2 3L3 6H0V10H3L-2 13L0 14.5517L6 10.5V14H10V10.5L16 14.5517L17.9999 13L13 10H16L15.9999 6H13L17.9999 3L15 1.44824Z" fill="white"></path><path d="M16 7H9.00006V2H7.00006V7H6.36578e-05L3.29018e-05 9H7.00006V14H9.00006V9H16V7Z" fill="#E6273E"></path><path d="M-2 2.5L3.50002 6L5.00001 5.99998L-1.99999 1.49998L-2 2.5Z" fill="#E6273E"></path><path d="M11.5 6L16.5 2L16 1L10 6H11.5Z" fill="#E6273E"></path><path d="M12.5 10H11L18 14.5V13.5L12.5 10Z" fill="#E6273E"></path><path d="M4.50003 10L-1.49997 14V15L6.00003 10H4.50003Z" fill="#E6273E"></path></g></svg>