<svg viewBox="0 0 16 16" fill="none" xmlns="http://www.w3.org/2000/svg" style="height: 24px; width: 24px;"><path d="M0.25 10.75V5.25H15.75V10.75H0.25Z" stroke="#DFDFDF" stroke-width="0.5"></path><path d="M0 6H16L16 4.00002C16 2.89544 15.1046 2.00001 14 2.00001H2C0.895431 2.00001 0 2.89544 0 4.00001V6Z" fill="#04AAC8"></path><path d="M3.95638 4.83362C3.33528 4.83362 3 4.45923 3 4C3 3.53908 3.33524 3.16638 3.95638 3.16638C3.95878 3.16638 3.96112 3.16638 3.96346 3.16641C4.00002 3.16677 4.01284 3.13073 3.98061 3.1179C3.78935 3.04183 3.57108 3.00003 3.33902 3.00003C2.5 3.00003 1.99217 3.46094 2.00008 4.01242C2.00784 4.55821 2.5 5 3.34875 5C3.57761 5 3.79282 4.95703 3.98171 4.882C4.01384 4.86922 4.00085 4.83319 3.96442 4.83357C3.96167 4.83362 3.95902 4.83362 3.95638 4.83362Z" fill="#F5F5F5"></path><path d="M16 10H0V12C0 13.1046 0.895431 14 2 14H14C15.1046 14 16 13.1046 16 12V10Z" fill="#23C840"></path></svg>