<?xml version="1.0" standalone="no"?>
<svg xmlns="http://www.w3.org/2000/svg" width="512" height="512" viewBox="0 0 512 512"><defs><clipPath id="clip-path-dot-color"><path d="M 34 130v 12h 12a 12 12, 0, 0, 0, -12 -12" transform="rotate(-90,40,136)"/><path d="M 34 142v 12h 6a 6 6, 0, 0, 0, 0 -12" transform="rotate(90,40,148)"/><path d="M 34 166v 12h 6a 6 6, 0, 0, 0, 0 -12" transform="rotate(180,40,172)"/><path d="M 34 214v 12h 6a 6 6, 0, 0, 0, 0 -12" transform="rotate(180,40,220)"/><path d="M 34 262v 12h 12a 12 12, 0, 0, 0, -12 -12" transform="rotate(-90,40,268)"/><rect x="34" y="274" width="12" height="12" transform="rotate(0,40,280)"/><path d="M 34 286v 12h 6a 6 6, 0, 0, 0, 0 -12" transform="rotate(90,40,292)"/><circle cx="40" cy="328" r="6" transform="rotate(0,40,328)"/><path d="M 34 370v 12h 6a 6 6, 0, 0, 0, 0 -12" transform="rotate(180,40,376)"/><rect x="46" y="130" width="12" height="12" transform="rotate(0,52,136)"/><path d="M 46 154v 12h 12a 12 12, 0, 0, 0, -12 -12" transform="rotate(-90,52,160)"/><path d="M 46 166v 12h 12a 12 12, 0, 0, 0, -12 -12" transform="rotate(90,52,172)"/><rect x="46" y="214" width="12" height="12" transform="rotate(0,52,220)"/><rect x="46" y="226" width="12" height="12" transform="rotate(0,52,232)"/><path d="M 46 238v 12h 6a 6 6, 0, 0, 0, 0 -12" transform="rotate(90,52,244)"/><rect x="46" y="262" width="12" height="12" transform="rotate(0,52,268)"/><path d="M 46 370v 12h 6a 6 6, 0, 0, 0, 0 -12" transform="rotate(0,52,376)"/><path d="M 58 130v 12h 6a 6 6, 0, 0, 0, 0 -12" transform="rotate(0,64,136)"/><rect x="58" y="154" width="12" height="12" transform="rotate(0,64,160)"/><rect x="58" y="214" width="12" height="12" transform="rotate(0,64,220)"/><rect x="58" y="226" width="12" height="12" transform="rotate(0,64,232)"/><path d="M 58 262v 12h 6a 6 6, 0, 0, 0, 0 -12" transform="rotate(0,64,268)"/><path d="M 58 286v 12h 12a 12 12, 0, 0, 0, -12 -12" transform="rotate(-90,64,292)"/><rect x="58" y="298" width="12" height="12" transform="rotate(0,64,304)"/><path d="M 58 310v 12h 6a 6 6, 0, 0, 0, 0 -12" transform="rotate(90,64,316)"/><path d="M 58 334v 12h 6a 6 6, 0, 0, 0, 0 -12" transform="rotate(180,64,340)"/><path d="M 58 358v 12h 6a 6 6, 0, 0, 0, 0 -12" transform="rotate(180,64,364)"/><path d="M 70 154v 12h 6a 6 6, 0, 0, 0, 0 -12" transform="rotate(0,76,160)"/><path d="M 70 178v 12h 6a 6 6, 0, 0, 0, 0 -12" transform="rotate(180,76,184)"/><path d="M 70 202v 12h 12a 12 12, 0, 0, 0, -12 -12" transform="rotate(-90,76,208)"/><rect x="70" y="214" width="12" height="12" transform="rotate(0,76,220)"/><rect x="70" y="226" width="12" height="12" transform="rotate(0,76,232)"/><rect x="70" y="238" width="12" height="12" transform="rotate(0,76,244)"/><path d="M 70 250v 12h 6a 6 6, 0, 0, 0, 0 -12" transform="rotate(90,76,256)"/><path d="M 70 274v 12h 12a 12 12, 0, 0, 0, -12 -12" transform="rotate(-90,76,280)"/><rect x="70" y="286" width="12" height="12" transform="rotate(0,76,292)"/><path d="M 70 334v 12h 6a 6 6, 0, 0, 0, 0 -12" transform="rotate(0,76,340)"/><path d="M 70 358v 12h 12a 12 12, 0, 0, 0, -12 -12" transform="rotate(0,76,364)"/><path d="M 70 370v 12h 6a 6 6, 0, 0, 0, 0 -12" transform="rotate(90,76,376)"/><circle cx="88" cy="136" r="6" transform="rotate(0,88,136)"/><path d="M 82 166v 12h 6a 6 6, 0, 0, 0, 0 -12" transform="rotate(-90,88,172)"/><rect x="82" y="178" width="12" height="12" transform="rotate(0,88,184)"/><rect x="82" y="190" width="12" height="12" transform="rotate(0,88,196)"/><path d="M 82 202v 12h 12a 12 12, 0, 0, 0, -12 -12" transform="rotate(90,88,208)"/><rect x="82" y="226" width="12" height="12" transform="rotate(0,88,232)"/><path d="M 82 262v 12h 6a 6 6, 0, 0, 0, 0 -12" transform="rotate(-90,88,268)"/><rect x="82" y="274" width="12" height="12" transform="rotate(0,88,280)"/><rect x="82" y="286" width="12" height="12" transform="rotate(0,88,292)"/><path d="M 82 298v 12h 6a 6 6, 0, 0, 0, 0 -12" transform="rotate(90,88,304)"/><path d="M 94 142v 12h 6a 6 6, 0, 0, 0, 0 -12" transform="rotate(-90,100,148)"/><path d="M 94 154v 12h 12a 12 12, 0, 0, 0, -12 -12" transform="rotate(180,100,160)"/><rect x="94" y="178" width="12" height="12" transform="rotate(0,100,184)"/><path d="M 94 214v 12h 6a 6 6, 0, 0, 0, 0 -12" transform="rotate(-90,100,220)"/><rect x="94" y="226" width="12" height="12" transform="rotate(0,100,232)"/><rect x="94" y="274" width="12" height="12" transform="rotate(0,100,280)"/><path d="M 94 286v 12h 12a 12 12, 0, 0, 0, -12 -12" transform="rotate(90,100,292)"/><circle cx="100" cy="316" r="6" transform="rotate(0,100,316)"/><circle cx="100" cy="340" r="6" transform="rotate(0,100,340)"/><path d="M 94 370v 12h 6a 6 6, 0, 0, 0, 0 -12" transform="rotate(180,100,376)"/><circle cx="112" cy="136" r="6" transform="rotate(0,112,136)"/><rect x="106" y="154" width="12" height="12" transform="rotate(0,112,160)"/><path d="M 106 178v 12h 6a 6 6, 0, 0, 0, 0 -12" transform="rotate(0,112,184)"/><path d="M 106 202v 12h 6a 6 6, 0, 0, 0, 0 -12" transform="rotate(180,112,208)"/><rect x="106" y="226" width="12" height="12" transform="rotate(0,112,232)"/><path d="M 106 250v 12h 6a 6 6, 0, 0, 0, 0 -12" transform="rotate(180,112,256)"/><rect x="106" y="274" width="12" height="12" transform="rotate(0,112,280)"/><circle cx="112" cy="304" r="6" transform="rotate(0,112,304)"/><path d="M 106 322v 12h 6a 6 6, 0, 0, 0, 0 -12" transform="rotate(180,112,328)"/><circle cx="112" cy="352" r="6" transform="rotate(0,112,352)"/><path d="M 106 370v 12h 6a 6 6, 0, 0, 0, 0 -12" transform="rotate(0,112,376)"/><path d="M 118 142v 12h 12a 12 12, 0, 0, 0, -12 -12" transform="rotate(-90,124,148)"/><rect x="118" y="154" width="12" height="12" transform="rotate(0,124,160)"/><path d="M 118 166v 12h 6a 6 6, 0, 0, 0, 0 -12" transform="rotate(90,124,172)"/><path d="M 118 190v 12h 12a 12 12, 0, 0, 0, -12 -12" transform="rotate(-90,124,196)"/><rect x="118" y="202" width="12" height="12" transform="rotate(0,124,208)"/><rect x="118" y="214" width="12" height="12" transform="rotate(0,124,220)"/><rect x="118" y="226" width="12" height="12" transform="rotate(0,124,232)"/><rect x="118" y="238" width="12" height="12" transform="rotate(0,124,244)"/><path d="M 118 250v 12h 12a 12 12, 0, 0, 0, -12 -12" transform="rotate(90,124,256)"/><path d="M 118 274v 12h 6a 6 6, 0, 0, 0, 0 -12" transform="rotate(0,124,280)"/><path d="M 118 322v 12h 12a 12 12, 0, 0, 0, -12 -12" transform="rotate(0,124,328)"/><path d="M 118 334v 12h 6a 6 6, 0, 0, 0, 0 -12" transform="rotate(90,124,340)"/><circle cx="124" cy="364" r="6" transform="rotate(0,124,364)"/><circle cx="136" cy="40" r="6" transform="rotate(0,136,40)"/><path d="M 130 70v 12h 6a 6 6, 0, 0, 0, 0 -12" transform="rotate(-90,136,76)"/><rect x="130" y="82" width="12" height="12" transform="rotate(0,136,88)"/><rect x="130" y="94" width="12" height="12" transform="rotate(0,136,100)"/><rect x="130" y="106" width="12" height="12" transform="rotate(0,136,112)"/><rect x="130" y="118" width="12" height="12" transform="rotate(0,136,124)"/><rect x="130" y="130" width="12" height="12" transform="rotate(0,136,136)"/><rect x="130" y="142" width="12" height="12" transform="rotate(0,136,148)"/><path d="M 130 178v 12h 12a 12 12, 0, 0, 0, -12 -12" transform="rotate(-90,136,184)"/><path d="M 130 190v 12h 12a 12 12, 0, 0, 0, -12 -12" transform="rotate(90,136,196)"/><circle cx="136" cy="268" r="6" transform="rotate(0,136,268)"/><circle cx="136" cy="304" r="6" transform="rotate(0,136,304)"/><path d="M 130 370v 12h 12a 12 12, 0, 0, 0, -12 -12" transform="rotate(-90,136,376)"/><path d="M 130 382v 12h 6a 6 6, 0, 0, 0, 0 -12" transform="rotate(90,136,388)"/><path d="M 130 418v 12h 6a 6 6, 0, 0, 0, 0 -12" transform="rotate(180,136,424)"/><path d="M 130 442v 12h 12a 12 12, 0, 0, 0, -12 -12" transform="rotate(-90,136,448)"/><rect x="130" y="454" width="12" height="12" transform="rotate(0,136,460)"/><path d="M 130 466v 12h 6a 6 6, 0, 0, 0, 0 -12" transform="rotate(90,136,472)"/><circle cx="148" cy="64" r="6" transform="rotate(0,148,64)"/><rect x="142" y="82" width="12" height="12" transform="rotate(0,148,88)"/><path d="M 142 94v 12h 12a 12 12, 0, 0, 0, -12 -12" transform="rotate(90,148,100)"/><rect x="142" y="130" width="12" height="12" transform="rotate(0,148,136)"/><path d="M 142 142v 12h 12a 12 12, 0, 0, 0, -12 -12" transform="rotate(90,148,148)"/><path d="M 142 178v 12h 6a 6 6, 0, 0, 0, 0 -12" transform="rotate(0,148,184)"/><circle cx="148" cy="208" r="6" transform="rotate(0,148,208)"/><path d="M 142 226v 12h 12a 12 12, 0, 0, 0, -12 -12" transform="rotate(-90,148,232)"/><rect x="142" y="238" width="12" height="12" transform="rotate(0,148,244)"/><path d="M 142 250v 12h 12a 12 12, 0, 0, 0, -12 -12" transform="rotate(180,148,256)"/><path d="M 142 310v 12h 12a 12 12, 0, 0, 0, -12 -12" transform="rotate(-90,148,316)"/><path d="M 142 322v 12h 12a 12 12, 0, 0, 0, -12 -12" transform="rotate(180,148,328)"/><path d="M 142 358v 12h 12a 12 12, 0, 0, 0, -12 -12" transform="rotate(-90,148,364)"/><rect x="142" y="370" width="12" height="12" transform="rotate(0,148,376)"/><path d="M 142 406v 12h 6a 6 6, 0, 0, 0, 0 -12" transform="rotate(-90,148,412)"/><rect x="142" y="418" width="12" height="12" transform="rotate(0,148,424)"/><rect x="142" y="430" width="12" height="12" transform="rotate(0,148,436)"/><rect x="142" y="442" width="12" height="12" transform="rotate(0,148,448)"/><path d="M 142 454v 12h 12a 12 12, 0, 0, 0, -12 -12" transform="rotate(90,148,460)"/><circle cx="160" cy="52" r="6" transform="rotate(0,160,52)"/><path d="M 154 82v 12h 6a 6 6, 0, 0, 0, 0 -12" transform="rotate(0,160,88)"/><circle cx="160" cy="112" r="6" transform="rotate(0,160,112)"/><rect x="154" y="130" width="12" height="12" transform="rotate(0,160,136)"/><path d="M 154 166v 12h 6a 6 6, 0, 0, 0, 0 -12" transform="rotate(180,160,172)"/><path d="M 154 214v 12h 6a 6 6, 0, 0, 0, 0 -12" transform="rotate(-90,160,220)"/><rect x="154" y="226" width="12" height="12" transform="rotate(0,160,232)"/><rect x="154" y="238" width="12" height="12" transform="rotate(0,160,244)"/><rect x="154" y="250" width="12" height="12" transform="rotate(0,160,256)"/><rect x="154" y="262" width="12" height="12" transform="rotate(0,160,268)"/><rect x="154" y="274" width="12" height="12" transform="rotate(0,160,280)"/><path d="M 154 286v 12h 6a 6 6, 0, 0, 0, 0 -12" transform="rotate(90,160,292)"/><rect x="154" y="310" width="12" height="12" transform="rotate(0,160,316)"/><rect x="154" y="322" width="12" height="12" transform="rotate(0,160,328)"/><path d="M 154 334v 12h 6a 6 6, 0, 0, 0, 0 -12" transform="rotate(90,160,340)"/><rect x="154" y="358" width="12" height="12" transform="rotate(0,160,364)"/><rect x="154" y="370" width="12" height="12" transform="rotate(0,160,376)"/><path d="M 154 394v 12h 6a 6 6, 0, 0, 0, 0 -12" transform="rotate(180,160,400)"/><rect x="154" y="418" width="12" height="12" transform="rotate(0,160,424)"/><path d="M 154 466v 12h 6a 6 6, 0, 0, 0, 0 -12" transform="rotate(180,160,472)"/><path d="M 166 70v 12h 6a 6 6, 0, 0, 0, 0 -12" transform="rotate(180,172,76)"/><path d="M 166 130v 12h 12a 12 12, 0, 0, 0, -12 -12" transform="rotate(0,172,136)"/><rect x="166" y="142" width="12" height="12" transform="rotate(0,172,148)"/><rect x="166" y="154" width="12" height="12" transform="rotate(0,172,160)"/><rect x="166" y="166" width="12" height="12" transform="rotate(0,172,172)"/><rect x="166" y="178" width="12" height="12" transform="rotate(0,172,184)"/><path d="M 166 190v 12h 12a 12 12, 0, 0, 0, -12 -12" transform="rotate(180,172,196)"/><rect x="166" y="226" width="12" height="12" transform="rotate(0,172,232)"/><path d="M 166 238v 12h 12a 12 12, 0, 0, 0, -12 -12" transform="rotate(90,172,244)"/><path d="M 166 262v 12h 12a 12 12, 0, 0, 0, -12 -12" transform="rotate(0,172,268)"/><path d="M 166 274v 12h 12a 12 12, 0, 0, 0, -12 -12" transform="rotate(90,172,280)"/><path d="M 166 298v 12h 12a 12 12, 0, 0, 0, -12 -12" transform="rotate(-90,172,304)"/><rect x="166" y="310" width="12" height="12" transform="rotate(0,172,316)"/><rect x="166" y="322" width="12" height="12" transform="rotate(0,172,328)"/><rect x="166" y="358" width="12" height="12" transform="rotate(0,172,364)"/><rect x="166" y="370" width="12" height="12" transform="rotate(0,172,376)"/><rect x="166" y="382" width="12" height="12" transform="rotate(0,172,388)"/><rect x="166" y="394" width="12" height="12" transform="rotate(0,172,400)"/><path d="M 166 418v 12h 12a 12 12, 0, 0, 0, -12 -12" transform="rotate(0,172,424)"/><rect x="166" y="430" width="12" height="12" transform="rotate(0,172,436)"/><rect x="166" y="442" width="12" height="12" transform="rotate(0,172,448)"/><rect x="166" y="454" width="12" height="12" transform="rotate(0,172,460)"/><rect x="166" y="466" width="12" height="12" transform="rotate(0,172,472)"/><path d="M 178 34v 12h 6a 6 6, 0, 0, 0, 0 -12" transform="rotate(180,184,40)"/><rect x="178" y="70" width="12" height="12" transform="rotate(0,184,76)"/><rect x="178" y="82" width="12" height="12" transform="rotate(0,184,88)"/><rect x="178" y="94" width="12" height="12" transform="rotate(0,184,100)"/><rect x="178" y="106" width="12" height="12" transform="rotate(0,184,112)"/><path d="M 178 118v 12h 6a 6 6, 0, 0, 0, 0 -12" transform="rotate(90,184,124)"/><rect x="178" y="142" width="12" height="12" transform="rotate(0,184,148)"/><path d="M 178 178v 12h 12a 12 12, 0, 0, 0, -12 -12" transform="rotate(0,184,184)"/><rect x="178" y="190" width="12" height="12" transform="rotate(0,184,196)"/><rect x="178" y="202" width="12" height="12" transform="rotate(0,184,208)"/><rect x="178" y="214" width="12" height="12" transform="rotate(0,184,220)"/><rect x="178" y="226" width="12" height="12" transform="rotate(0,184,232)"/><circle cx="184" cy="256" r="6" transform="rotate(0,184,256)"/><path d="M 178 298v 12h 12a 12 12, 0, 0, 0, -12 -12" transform="rotate(0,184,304)"/><rect x="178" y="310" width="12" height="12" transform="rotate(0,184,316)"/><path d="M 178 322v 12h 12a 12 12, 0, 0, 0, -12 -12" transform="rotate(90,184,328)"/><rect x="178" y="358" width="12" height="12" transform="rotate(0,184,364)"/><path d="M 178 394v 12h 12a 12 12, 0, 0, 0, -12 -12" transform="rotate(0,184,400)"/><path d="M 178 406v 12h 6a 6 6, 0, 0, 0, 0 -12" transform="rotate(90,184,412)"/><rect x="178" y="430" width="12" height="12" transform="rotate(0,184,436)"/><path d="M 178 466v 12h 6a 6 6, 0, 0, 0, 0 -12" transform="rotate(0,184,472)"/><path d="M 190 34v 12h 6a 6 6, 0, 0, 0, 0 -12" transform="rotate(0,196,40)"/><path d="M 190 58v 12h 12a 12 12, 0, 0, 0, -12 -12" transform="rotate(-90,196,64)"/><rect x="190" y="70" width="12" height="12" transform="rotate(0,196,76)"/><path d="M 190 94v 12h 6a 6 6, 0, 0, 0, 0 -12" transform="rotate(0,196,100)"/><path d="M 190 142v 12h 12a 12 12, 0, 0, 0, -12 -12" transform="rotate(0,196,148)"/><path d="M 190 154v 12h 6a 6 6, 0, 0, 0, 0 -12" transform="rotate(90,196,160)"/><path d="M 190 190v 12h 6a 6 6, 0, 0, 0, 0 -12" transform="rotate(0,196,196)"/><path d="M 190 214v 12h 12a 12 12, 0, 0, 0, -12 -12" transform="rotate(0,196,220)"/><path d="M 190 226v 12h 12a 12 12, 0, 0, 0, -12 -12" transform="rotate(90,196,232)"/><path d="M 190 310v 12h 6a 6 6, 0, 0, 0, 0 -12" transform="rotate(0,196,316)"/><path d="M 190 334v 12h 12a 12 12, 0, 0, 0, -12 -12" transform="rotate(-90,196,340)"/><rect x="190" y="346" width="12" height="12" transform="rotate(0,196,352)"/><rect x="190" y="358" width="12" height="12" transform="rotate(0,196,364)"/><path d="M 190 370v 12h 6a 6 6, 0, 0, 0, 0 -12" transform="rotate(90,196,376)"/><path d="M 190 418v 12h 12a 12 12, 0, 0, 0, -12 -12" transform="rotate(-90,196,424)"/><rect x="190" y="430" width="12" height="12" transform="rotate(0,196,436)"/><path d="M 202 46v 12h 12a 12 12, 0, 0, 0, -12 -12" transform="rotate(-90,208,52)"/><rect x="202" y="58" width="12" height="12" transform="rotate(0,208,64)"/><rect x="202" y="70" width="12" height="12" transform="rotate(0,208,76)"/><circle cx="208" cy="112" r="6" transform="rotate(0,208,112)"/><path d="M 202 322v 12h 6a 6 6, 0, 0, 0, 0 -12" transform="rotate(-90,208,328)"/><path d="M 202 334v 12h 12a 12 12, 0, 0, 0, -12 -12" transform="rotate(90,208,340)"/><path d="M 202 358v 12h 6a 6 6, 0, 0, 0, 0 -12" transform="rotate(0,208,364)"/><circle cx="208" cy="400" r="6" transform="rotate(0,208,400)"/><path d="M 202 418v 12h 12a 12 12, 0, 0, 0, -12 -12" transform="rotate(0,208,424)"/><rect x="202" y="430" width="12" height="12" transform="rotate(0,208,436)"/><rect x="202" y="442" width="12" height="12" transform="rotate(0,208,448)"/><rect x="202" y="454" width="12" height="12" transform="rotate(0,208,460)"/><path d="M 202 466v 12h 12a 12 12, 0, 0, 0, -12 -12" transform="rotate(180,208,472)"/><path d="M 214 34v 12h 12a 12 12, 0, 0, 0, -12 -12" transform="rotate(-90,220,40)"/><path d="M 214 46v 12h 12a 12 12, 0, 0, 0, -12 -12" transform="rotate(90,220,52)"/><path d="M 214 70v 12h 12a 12 12, 0, 0, 0, -12 -12" transform="rotate(0,220,76)"/><rect x="214" y="82" width="12" height="12" transform="rotate(0,220,88)"/><path d="M 214 94v 12h 6a 6 6, 0, 0, 0, 0 -12" transform="rotate(90,220,100)"/><path d="M 214 118v 12h 12a 12 12, 0, 0, 0, -12 -12" transform="rotate(-90,220,124)"/><rect x="214" y="130" width="12" height="12" transform="rotate(0,220,136)"/><rect x="214" y="142" width="12" height="12" transform="rotate(0,220,148)"/><rect x="214" y="154" width="12" height="12" transform="rotate(0,220,160)"/><rect x="214" y="166" width="12" height="12" transform="rotate(0,220,172)"/><path d="M 214 178v 12h 6a 6 6, 0, 0, 0, 0 -12" transform="rotate(90,220,184)"/><circle cx="220" cy="316" r="6" transform="rotate(0,220,316)"/><path d="M 214 382v 12h 6a 6 6, 0, 0, 0, 0 -12" transform="rotate(180,220,388)"/><path d="M 214 406v 12h 6a 6 6, 0, 0, 0, 0 -12" transform="rotate(180,220,412)"/><path d="M 214 430v 12h 12a 12 12, 0, 0, 0, -12 -12" transform="rotate(0,220,436)"/><rect x="214" y="442" width="12" height="12" transform="rotate(0,220,448)"/><rect x="214" y="466" width="12" height="12" transform="rotate(0,220,472)"/><rect x="226" y="34" width="12" height="12" transform="rotate(0,232,40)"/><rect x="226" y="82" width="12" height="12" transform="rotate(0,232,88)"/><path d="M 226 106v 12h 6a 6 6, 0, 0, 0, 0 -12" transform="rotate(-90,232,112)"/><rect x="226" y="118" width="12" height="12" transform="rotate(0,232,124)"/><path d="M 226 130v 12h 12a 12 12, 0, 0, 0, -12 -12" transform="rotate(90,232,136)"/><rect x="226" y="166" width="12" height="12" transform="rotate(0,232,172)"/><circle cx="232" cy="196" r="6" transform="rotate(0,232,196)"/><circle cx="232" cy="340" r="6" transform="rotate(0,232,340)"/><path d="M 226 358v 12h 12a 12 12, 0, 0, 0, -12 -12" transform="rotate(-90,232,364)"/><rect x="226" y="370" width="12" height="12" transform="rotate(0,232,376)"/><rect x="226" y="382" width="12" height="12" transform="rotate(0,232,388)"/><rect x="226" y="394" width="12" height="12" transform="rotate(0,232,400)"/><path d="M 226 406v 12h 12a 12 12, 0, 0, 0, -12 -12" transform="rotate(90,232,412)"/><rect x="226" y="442" width="12" height="12" transform="rotate(0,232,448)"/><path d="M 226 466v 12h 6a 6 6, 0, 0, 0, 0 -12" transform="rotate(0,232,472)"/><rect x="238" y="34" width="12" height="12" transform="rotate(0,244,40)"/><rect x="238" y="46" width="12" height="12" transform="rotate(0,244,52)"/><rect x="238" y="58" width="12" height="12" transform="rotate(0,244,64)"/><rect x="238" y="70" width="12" height="12" transform="rotate(0,244,76)"/><path d="M 238 82v 12h 12a 12 12, 0, 0, 0, -12 -12" transform="rotate(90,244,88)"/><path d="M 238 142v 12h 6a 6 6, 0, 0, 0, 0 -12" transform="rotate(180,244,148)"/><path d="M 238 166v 12h 6a 6 6, 0, 0, 0, 0 -12" transform="rotate(0,244,172)"/><path d="M 238 322v 12h 6a 6 6, 0, 0, 0, 0 -12" transform="rotate(180,244,328)"/><rect x="238" y="358" width="12" height="12" transform="rotate(0,244,364)"/><rect x="238" y="370" width="12" height="12" transform="rotate(0,244,376)"/><path d="M 238 382v 12h 12a 12 12, 0, 0, 0, -12 -12" transform="rotate(90,244,388)"/><path d="M 238 430v 12h 6a 6 6, 0, 0, 0, 0 -12" transform="rotate(-90,244,436)"/><rect x="238" y="442" width="12" height="12" transform="rotate(0,244,448)"/><rect x="250" y="34" width="12" height="12" transform="rotate(0,256,40)"/><path d="M 250 46v 12h 12a 12 12, 0, 0, 0, -12 -12" transform="rotate(90,256,52)"/><rect x="250" y="70" width="12" height="12" transform="rotate(0,256,76)"/><path d="M 250 94v 12h 6a 6 6, 0, 0, 0, 0 -12" transform="rotate(-90,256,100)"/><path d="M 250 106v 12h 6a 6 6, 0, 0, 0, 0 -12" transform="rotate(90,256,112)"/><path d="M 250 142v 12h 12a 12 12, 0, 0, 0, -12 -12" transform="rotate(0,256,148)"/><path d="M 250 154v 12h 12a 12 12, 0, 0, 0, -12 -12" transform="rotate(180,256,160)"/><path d="M 250 178v 12h 12a 12 12, 0, 0, 0, -12 -12" transform="rotate(-90,256,184)"/><path d="M 250 190v 12h 12a 12 12, 0, 0, 0, -12 -12" transform="rotate(180,256,196)"/><path d="M 250 310v 12h 12a 12 12, 0, 0, 0, -12 -12" transform="rotate(-90,256,316)"/><rect x="250" y="322" width="12" height="12" transform="rotate(0,256,328)"/><path d="M 250 334v 12h 12a 12 12, 0, 0, 0, -12 -12" transform="rotate(180,256,340)"/><rect x="250" y="358" width="12" height="12" transform="rotate(0,256,364)"/><path d="M 250 370v 12h 12a 12 12, 0, 0, 0, -12 -12" transform="rotate(90,256,376)"/><path d="M 250 418v 12h 6a 6 6, 0, 0, 0, 0 -12" transform="rotate(180,256,424)"/><path d="M 250 442v 12h 6a 6 6, 0, 0, 0, 0 -12" transform="rotate(0,256,448)"/><path d="M 250 466v 12h 6a 6 6, 0, 0, 0, 0 -12" transform="rotate(180,256,472)"/><rect x="262" y="34" width="12" height="12" transform="rotate(0,268,40)"/><path d="M 262 58v 12h 12a 12 12, 0, 0, 0, -12 -12" transform="rotate(-90,268,64)"/><path d="M 262 70v 12h 12a 12 12, 0, 0, 0, -12 -12" transform="rotate(90,268,76)"/><rect x="262" y="154" width="12" height="12" transform="rotate(0,268,160)"/><path d="M 262 178v 12h 12a 12 12, 0, 0, 0, -12 -12" transform="rotate(0,268,184)"/><rect x="262" y="190" width="12" height="12" transform="rotate(0,268,196)"/><path d="M 262 310v 12h 12a 12 12, 0, 0, 0, -12 -12" transform="rotate(0,268,316)"/><rect x="262" y="322" width="12" height="12" transform="rotate(0,268,328)"/><path d="M 262 334v 12h 12a 12 12, 0, 0, 0, -12 -12" transform="rotate(90,268,340)"/><rect x="262" y="358" width="12" height="12" transform="rotate(0,268,364)"/><path d="M 262 382v 12h 12a 12 12, 0, 0, 0, -12 -12" transform="rotate(-90,268,388)"/><path d="M 262 394v 12h 12a 12 12, 0, 0, 0, -12 -12" transform="rotate(180,268,400)"/><rect x="262" y="418" width="12" height="12" transform="rotate(0,268,424)"/><path d="M 262 466v 12h 6a 6 6, 0, 0, 0, 0 -12" transform="rotate(0,268,472)"/><path d="M 274 34v 12h 12a 12 12, 0, 0, 0, -12 -12" transform="rotate(0,280,40)"/><rect x="274" y="46" width="12" height="12" transform="rotate(0,280,52)"/><rect x="274" y="58" width="12" height="12" transform="rotate(0,280,64)"/><path d="M 274 106v 12h 6a 6 6, 0, 0, 0, 0 -12" transform="rotate(-90,280,112)"/><path d="M 274 118v 12h 12a 12 12, 0, 0, 0, -12 -12" transform="rotate(180,280,124)"/><rect x="274" y="154" width="12" height="12" transform="rotate(0,280,160)"/><path d="M 274 190v 12h 6a 6 6, 0, 0, 0, 0 -12" transform="rotate(0,280,196)"/><rect x="274" y="322" width="12" height="12" transform="rotate(0,280,328)"/><path d="M 274 346v 12h 6a 6 6, 0, 0, 0, 0 -12" transform="rotate(-90,280,352)"/><rect x="274" y="358" width="12" height="12" transform="rotate(0,280,364)"/><path d="M 274 382v 12h 12a 12 12, 0, 0, 0, -12 -12" transform="rotate(0,280,388)"/><rect x="274" y="394" width="12" height="12" transform="rotate(0,280,400)"/><rect x="274" y="406" width="12" height="12" transform="rotate(0,280,412)"/><rect x="274" y="418" width="12" height="12" transform="rotate(0,280,424)"/><path d="M 286 46v 12h 12a 12 12, 0, 0, 0, -12 -12" transform="rotate(0,292,52)"/><rect x="286" y="58" width="12" height="12" transform="rotate(0,292,64)"/><rect x="286" y="70" width="12" height="12" transform="rotate(0,292,76)"/><rect x="286" y="82" width="12" height="12" transform="rotate(0,292,88)"/><path d="M 286 94v 12h 12a 12 12, 0, 0, 0, -12 -12" transform="rotate(180,292,100)"/><path d="M 286 118v 12h 12a 12 12, 0, 0, 0, -12 -12" transform="rotate(0,292,124)"/><rect x="286" y="130" width="12" height="12" transform="rotate(0,292,136)"/><rect x="286" y="142" width="12" height="12" transform="rotate(0,292,148)"/><rect x="286" y="154" width="12" height="12" transform="rotate(0,292,160)"/><path d="M 286 310v 12h 12a 12 12, 0, 0, 0, -12 -12" transform="rotate(-90,292,316)"/><rect x="286" y="322" width="12" height="12" transform="rotate(0,292,328)"/><rect x="286" y="358" width="12" height="12" transform="rotate(0,292,364)"/><path d="M 286 418v 12h 6a 6 6, 0, 0, 0, 0 -12" transform="rotate(0,292,424)"/><circle cx="292" cy="448" r="6" transform="rotate(0,292,448)"/><path d="M 298 58v 12h 6a 6 6, 0, 0, 0, 0 -12" transform="rotate(0,304,64)"/><path d="M 298 82v 12h 12a 12 12, 0, 0, 0, -12 -12" transform="rotate(0,304,88)"/><rect x="298" y="94" width="12" height="12" transform="rotate(0,304,100)"/><path d="M 298 106v 12h 6a 6 6, 0, 0, 0, 0 -12" transform="rotate(90,304,112)"/><rect x="298" y="130" width="12" height="12" transform="rotate(0,304,136)"/><rect x="298" y="142" width="12" height="12" transform="rotate(0,304,148)"/><path d="M 298 154v 12h 12a 12 12, 0, 0, 0, -12 -12" transform="rotate(90,304,160)"/><rect x="298" y="310" width="12" height="12" transform="rotate(0,304,316)"/><rect x="298" y="322" width="12" height="12" transform="rotate(0,304,328)"/><rect x="298" y="334" width="12" height="12" transform="rotate(0,304,340)"/><rect x="298" y="346" width="12" height="12" transform="rotate(0,304,352)"/><rect x="298" y="358" width="12" height="12" transform="rotate(0,304,364)"/><path d="M 298 370v 12h 6a 6 6, 0, 0, 0, 0 -12" transform="rotate(90,304,376)"/><path d="M 298 406v 12h 6a 6 6, 0, 0, 0, 0 -12" transform="rotate(180,304,412)"/><path d="M 298 430v 12h 6a 6 6, 0, 0, 0, 0 -12" transform="rotate(180,304,436)"/><path d="M 298 466v 12h 6a 6 6, 0, 0, 0, 0 -12" transform="rotate(180,304,472)"/><path d="M 310 34v 12h 6a 6 6, 0, 0, 0, 0 -12" transform="rotate(180,316,40)"/><path d="M 310 118v 12h 6a 6 6, 0, 0, 0, 0 -12" transform="rotate(-90,316,124)"/><rect x="310" y="130" width="12" height="12" transform="rotate(0,316,136)"/><path d="M 310 190v 12h 12a 12 12, 0, 0, 0, -12 -12" transform="rotate(-90,316,196)"/><path d="M 310 202v 12h 12a 12 12, 0, 0, 0, -12 -12" transform="rotate(180,316,208)"/><circle cx="316" cy="232" r="6" transform="rotate(0,316,232)"/><circle cx="316" cy="256" r="6" transform="rotate(0,316,256)"/><path d="M 310 274v 12h 6a 6 6, 0, 0, 0, 0 -12" transform="rotate(180,316,280)"/><path d="M 310 310v 12h 6a 6 6, 0, 0, 0, 0 -12" transform="rotate(0,316,316)"/><rect x="310" y="346" width="12" height="12" transform="rotate(0,316,352)"/><path d="M 310 394v 12h 12a 12 12, 0, 0, 0, -12 -12" transform="rotate(-90,316,400)"/><rect x="310" y="406" width="12" height="12" transform="rotate(0,316,412)"/><rect x="310" y="418" width="12" height="12" transform="rotate(0,316,424)"/><rect x="310" y="430" width="12" height="12" transform="rotate(0,316,436)"/><path d="M 310 442v 12h 6a 6 6, 0, 0, 0, 0 -12" transform="rotate(90,316,448)"/><path d="M 310 466v 12h 6a 6 6, 0, 0, 0, 0 -12" transform="rotate(0,316,472)"/><rect x="322" y="34" width="12" height="12" transform="rotate(0,328,40)"/><path d="M 322 46v 12h 12a 12 12, 0, 0, 0, -12 -12" transform="rotate(180,328,52)"/><path d="M 322 82v 12h 12a 12 12, 0, 0, 0, -12 -12" transform="rotate(-90,328,88)"/><rect x="322" y="94" width="12" height="12" transform="rotate(0,328,100)"/><path d="M 322 106v 12h 6a 6 6, 0, 0, 0, 0 -12" transform="rotate(90,328,112)"/><path d="M 322 130v 12h 12a 12 12, 0, 0, 0, -12 -12" transform="rotate(0,328,136)"/><path d="M 322 142v 12h 12a 12 12, 0, 0, 0, -12 -12" transform="rotate(180,328,148)"/><path d="M 322 166v 12h 6a 6 6, 0, 0, 0, 0 -12" transform="rotate(180,328,172)"/><rect x="322" y="190" width="12" height="12" transform="rotate(0,328,196)"/><rect x="322" y="202" width="12" height="12" transform="rotate(0,328,208)"/><circle cx="328" cy="244" r="6" transform="rotate(0,328,244)"/><path d="M 322 262v 12h 12a 12 12, 0, 0, 0, -12 -12" transform="rotate(-90,328,268)"/><rect x="322" y="274" width="12" height="12" transform="rotate(0,328,280)"/><rect x="322" y="286" width="12" height="12" transform="rotate(0,328,292)"/><path d="M 322 298v 12h 6a 6 6, 0, 0, 0, 0 -12" transform="rotate(90,328,304)"/><circle cx="328" cy="328" r="6" transform="rotate(0,328,328)"/><path d="M 322 346v 12h 6a 6 6, 0, 0, 0, 0 -12" transform="rotate(0,328,352)"/><path d="M 322 394v 12h 6a 6 6, 0, 0, 0, 0 -12" transform="rotate(0,328,400)"/><rect x="334" y="34" width="12" height="12" transform="rotate(0,340,40)"/><rect x="334" y="46" width="12" height="12" transform="rotate(0,340,52)"/><path d="M 334 58v 12h 6a 6 6, 0, 0, 0, 0 -12" transform="rotate(90,340,64)"/><path d="M 334 82v 12h 12a 12 12, 0, 0, 0, -12 -12" transform="rotate(0,340,88)"/><rect x="334" y="94" width="12" height="12" transform="rotate(0,340,100)"/><path d="M 334 142v 12h 12a 12 12, 0, 0, 0, -12 -12" transform="rotate(0,340,148)"/><rect x="334" y="154" width="12" height="12" transform="rotate(0,340,160)"/><rect x="334" y="166" width="12" height="12" transform="rotate(0,340,172)"/><rect x="334" y="178" width="12" height="12" transform="rotate(0,340,184)"/><rect x="334" y="190" width="12" height="12" transform="rotate(0,340,196)"/><path d="M 334 202v 12h 12a 12 12, 0, 0, 0, -12 -12" transform="rotate(90,340,208)"/><path d="M 334 250v 12h 6a 6 6, 0, 0, 0, 0 -12" transform="rotate(-90,340,256)"/><path d="M 334 262v 12h 12a 12 12, 0, 0, 0, -12 -12" transform="rotate(90,340,268)"/><circle cx="340" cy="316" r="6" transform="rotate(0,340,316)"/><circle cx="340" cy="340" r="6" transform="rotate(0,340,340)"/><path d="M 334 358v 12h 6a 6 6, 0, 0, 0, 0 -12" transform="rotate(180,340,364)"/><path d="M 334 406v 12h 12a 12 12, 0, 0, 0, -12 -12" transform="rotate(-90,340,412)"/><rect x="334" y="418" width="12" height="12" transform="rotate(0,340,424)"/><path d="M 334 430v 12h 6a 6 6, 0, 0, 0, 0 -12" transform="rotate(90,340,436)"/><rect x="346" y="34" width="12" height="12" transform="rotate(0,352,40)"/><path d="M 346 46v 12h 12a 12 12, 0, 0, 0, -12 -12" transform="rotate(90,352,52)"/><circle cx="352" cy="76" r="6" transform="rotate(0,352,76)"/><path d="M 346 94v 12h 12a 12 12, 0, 0, 0, -12 -12" transform="rotate(0,352,100)"/><path d="M 346 106v 12h 6a 6 6, 0, 0, 0, 0 -12" transform="rotate(90,352,112)"/><circle cx="352" cy="136" r="6" transform="rotate(0,352,136)"/><rect x="346" y="166" width="12" height="12" transform="rotate(0,352,172)"/><rect x="346" y="190" width="12" height="12" transform="rotate(0,352,196)"/><circle cx="352" cy="220" r="6" transform="rotate(0,352,220)"/><circle cx="352" cy="244" r="6" transform="rotate(0,352,244)"/><path d="M 346 286v 12h 6a 6 6, 0, 0, 0, 0 -12" transform="rotate(-90,352,292)"/><path d="M 346 298v 12h 6a 6 6, 0, 0, 0, 0 -12" transform="rotate(90,352,304)"/><circle cx="352" cy="328" r="6" transform="rotate(0,352,328)"/><path d="M 346 358v 12h 6a 6 6, 0, 0, 0, 0 -12" transform="rotate(0,352,364)"/><path d="M 346 382v 12h 12a 12 12, 0, 0, 0, -12 -12" transform="rotate(-90,352,388)"/><rect x="346" y="394" width="12" height="12" transform="rotate(0,352,400)"/><rect x="346" y="406" width="12" height="12" transform="rotate(0,352,412)"/><path d="M 346 454v 12h 6a 6 6, 0, 0, 0, 0 -12" transform="rotate(-90,352,460)"/><path d="M 346 466v 12h 6a 6 6, 0, 0, 0, 0 -12" transform="rotate(90,352,472)"/><rect x="358" y="34" width="12" height="12" transform="rotate(0,364,40)"/><path d="M 358 154v 12h 6a 6 6, 0, 0, 0, 0 -12" transform="rotate(-90,364,160)"/><rect x="358" y="166" width="12" height="12" transform="rotate(0,364,172)"/><rect x="358" y="178" width="12" height="12" transform="rotate(0,364,184)"/><path d="M 358 190v 12h 12a 12 12, 0, 0, 0, -12 -12" transform="rotate(90,364,196)"/><path d="M 358 226v 12h 6a 6 6, 0, 0, 0, 0 -12" transform="rotate(180,364,232)"/><path d="M 358 250v 12h 6a 6 6, 0, 0, 0, 0 -12" transform="rotate(-90,364,256)"/><path d="M 358 262v 12h 12a 12 12, 0, 0, 0, -12 -12" transform="rotate(180,364,268)"/><path d="M 358 310v 12h 6a 6 6, 0, 0, 0, 0 -12" transform="rotate(180,364,316)"/><circle cx="364" cy="352" r="6" transform="rotate(0,364,352)"/><rect x="358" y="382" width="12" height="12" transform="rotate(0,364,388)"/><rect x="358" y="394" width="12" height="12" transform="rotate(0,364,400)"/><rect x="358" y="406" width="12" height="12" transform="rotate(0,364,412)"/><path d="M 358 418v 12h 12a 12 12, 0, 0, 0, -12 -12" transform="rotate(180,364,424)"/><path d="M 358 442v 12h 6a 6 6, 0, 0, 0, 0 -12" transform="rotate(180,364,448)"/><path d="M 370 34v 12h 6a 6 6, 0, 0, 0, 0 -12" transform="rotate(0,376,40)"/><path d="M 370 58v 12h 6a 6 6, 0, 0, 0, 0 -12" transform="rotate(-90,376,64)"/><rect x="370" y="70" width="12" height="12" transform="rotate(0,376,76)"/><rect x="370" y="82" width="12" height="12" transform="rotate(0,376,88)"/><rect x="370" y="94" width="12" height="12" transform="rotate(0,376,100)"/><rect x="370" y="106" width="12" height="12" transform="rotate(0,376,112)"/><rect x="370" y="118" width="12" height="12" transform="rotate(0,376,124)"/><rect x="370" y="130" width="12" height="12" transform="rotate(0,376,136)"/><path d="M 370 142v 12h 6a 6 6, 0, 0, 0, 0 -12" transform="rotate(90,376,148)"/><path d="M 370 166v 12h 12a 12 12, 0, 0, 0, -12 -12" transform="rotate(0,376,172)"/><path d="M 370 178v 12h 12a 12 12, 0, 0, 0, -12 -12" transform="rotate(90,376,184)"/><path d="M 370 214v 12h 12a 12 12, 0, 0, 0, -12 -12" transform="rotate(-90,376,220)"/><rect x="370" y="226" width="12" height="12" transform="rotate(0,376,232)"/><rect x="370" y="262" width="12" height="12" transform="rotate(0,376,268)"/><path d="M 370 274v 12h 12a 12 12, 0, 0, 0, -12 -12" transform="rotate(180,376,280)"/><path d="M 370 298v 12h 12a 12 12, 0, 0, 0, -12 -12" transform="rotate(-90,376,304)"/><rect x="370" y="310" width="12" height="12" transform="rotate(0,376,316)"/><rect x="370" y="322" width="12" height="12" transform="rotate(0,376,328)"/><path d="M 370 334v 12h 6a 6 6, 0, 0, 0, 0 -12" transform="rotate(90,376,340)"/><path d="M 370 358v 12h 6a 6 6, 0, 0, 0, 0 -12" transform="rotate(-90,376,364)"/><rect x="370" y="370" width="12" height="12" transform="rotate(0,376,376)"/><rect x="370" y="382" width="12" height="12" transform="rotate(0,376,388)"/><rect x="370" y="394" width="12" height="12" transform="rotate(0,376,400)"/><rect x="370" y="406" width="12" height="12" transform="rotate(0,376,412)"/><rect x="370" y="418" width="12" height="12" transform="rotate(0,376,424)"/><rect x="370" y="430" width="12" height="12" transform="rotate(0,376,436)"/><rect x="370" y="442" width="12" height="12" transform="rotate(0,376,448)"/><circle cx="376" cy="472" r="6" transform="rotate(0,376,472)"/><rect x="382" y="130" width="12" height="12" transform="rotate(0,388,136)"/><circle cx="388" cy="160" r="6" transform="rotate(0,388,160)"/><rect x="382" y="214" width="12" height="12" transform="rotate(0,388,220)"/><rect x="382" y="226" width="12" height="12" transform="rotate(0,388,232)"/><rect x="382" y="238" width="12" height="12" transform="rotate(0,388,244)"/><rect x="382" y="250" width="12" height="12" transform="rotate(0,388,256)"/><rect x="382" y="262" width="12" height="12" transform="rotate(0,388,268)"/><rect x="382" y="274" width="12" height="12" transform="rotate(0,388,280)"/><rect x="382" y="286" width="12" height="12" transform="rotate(0,388,292)"/><path d="M 382 298v 12h 12a 12 12, 0, 0, 0, -12 -12" transform="rotate(90,388,304)"/><rect x="382" y="370" width="12" height="12" transform="rotate(0,388,376)"/><rect x="382" y="418" width="12" height="12" transform="rotate(0,388,424)"/><path d="M 382 442v 12h 12a 12 12, 0, 0, 0, -12 -12" transform="rotate(0,388,448)"/><path d="M 382 454v 12h 12a 12 12, 0, 0, 0, -12 -12" transform="rotate(180,388,460)"/><rect x="394" y="130" width="12" height="12" transform="rotate(0,400,136)"/><path d="M 394 166v 12h 12a 12 12, 0, 0, 0, -12 -12" transform="rotate(-90,400,172)"/><path d="M 394 178v 12h 12a 12 12, 0, 0, 0, -12 -12" transform="rotate(180,400,184)"/><path d="M 394 202v 12h 12a 12 12, 0, 0, 0, -12 -12" transform="rotate(-90,400,208)"/><path d="M 394 214v 12h 12a 12 12, 0, 0, 0, -12 -12" transform="rotate(90,400,220)"/><path d="M 394 238v 12h 12a 12 12, 0, 0, 0, -12 -12" transform="rotate(0,400,244)"/><rect x="394" y="250" width="12" height="12" transform="rotate(0,400,256)"/><path d="M 394 262v 12h 12a 12 12, 0, 0, 0, -12 -12" transform="rotate(90,400,268)"/><circle cx="400" cy="316" r="6" transform="rotate(0,400,316)"/><rect x="394" y="370" width="12" height="12" transform="rotate(0,400,376)"/><circle cx="400" cy="400" r="6" transform="rotate(0,400,400)"/><rect x="394" y="418" width="12" height="12" transform="rotate(0,400,424)"/><rect x="394" y="454" width="12" height="12" transform="rotate(0,400,460)"/><path d="M 394 466v 12h 6a 6 6, 0, 0, 0, 0 -12" transform="rotate(90,400,472)"/><rect x="406" y="130" width="12" height="12" transform="rotate(0,412,136)"/><path d="M 406 142v 12h 6a 6 6, 0, 0, 0, 0 -12" transform="rotate(90,412,148)"/><path d="M 406 166v 12h 12a 12 12, 0, 0, 0, -12 -12" transform="rotate(0,412,172)"/><rect x="406" y="178" width="12" height="12" transform="rotate(0,412,184)"/><rect x="406" y="190" width="12" height="12" transform="rotate(0,412,196)"/><path d="M 406 202v 12h 12a 12 12, 0, 0, 0, -12 -12" transform="rotate(90,412,208)"/><path d="M 406 274v 12h 12a 12 12, 0, 0, 0, -12 -12" transform="rotate(-90,412,280)"/><path d="M 406 286v 12h 12a 12 12, 0, 0, 0, -12 -12" transform="rotate(180,412,292)"/><path d="M 406 334v 12h 6a 6 6, 0, 0, 0, 0 -12" transform="rotate(-90,412,340)"/><path d="M 406 346v 12h 6a 6 6, 0, 0, 0, 0 -12" transform="rotate(90,412,352)"/><rect x="406" y="370" width="12" height="12" transform="rotate(0,412,376)"/><rect x="406" y="418" width="12" height="12" transform="rotate(0,412,424)"/><path d="M 406 454v 12h 6a 6 6, 0, 0, 0, 0 -12" transform="rotate(0,412,460)"/><rect x="418" y="130" width="12" height="12" transform="rotate(0,424,136)"/><circle cx="424" cy="160" r="6" transform="rotate(0,424,160)"/><rect x="418" y="190" width="12" height="12" transform="rotate(0,424,196)"/><circle cx="424" cy="232" r="6" transform="rotate(0,424,232)"/><path d="M 418 250v 12h 6a 6 6, 0, 0, 0, 0 -12" transform="rotate(-90,424,256)"/><rect x="418" y="262" width="12" height="12" transform="rotate(0,424,268)"/><rect x="418" y="274" width="12" height="12" transform="rotate(0,424,280)"/><path d="M 418 286v 12h 12a 12 12, 0, 0, 0, -12 -12" transform="rotate(90,424,292)"/><path d="M 418 358v 12h 6a 6 6, 0, 0, 0, 0 -12" transform="rotate(-90,424,364)"/><rect x="418" y="370" width="12" height="12" transform="rotate(0,424,376)"/><rect x="418" y="382" width="12" height="12" transform="rotate(0,424,388)"/><rect x="418" y="394" width="12" height="12" transform="rotate(0,424,400)"/><rect x="418" y="406" width="12" height="12" transform="rotate(0,424,412)"/><path d="M 418 418v 12h 12a 12 12, 0, 0, 0, -12 -12" transform="rotate(90,424,424)"/><path d="M 418 466v 12h 6a 6 6, 0, 0, 0, 0 -12" transform="rotate(180,424,472)"/><path d="M 430 130v 12h 12a 12 12, 0, 0, 0, -12 -12" transform="rotate(0,436,136)"/><path d="M 430 142v 12h 12a 12 12, 0, 0, 0, -12 -12" transform="rotate(180,436,148)"/><path d="M 430 166v 12h 6a 6 6, 0, 0, 0, 0 -12" transform="rotate(180,436,172)"/><path d="M 430 190v 12h 6a 6 6, 0, 0, 0, 0 -12" transform="rotate(0,436,196)"/><path d="M 430 274v 12h 6a 6 6, 0, 0, 0, 0 -12" transform="rotate(0,436,280)"/><path d="M 430 298v 12h 6a 6 6, 0, 0, 0, 0 -12" transform="rotate(-90,436,304)"/><rect x="430" y="310" width="12" height="12" transform="rotate(0,436,316)"/><path d="M 430 322v 12h 12a 12 12, 0, 0, 0, -12 -12" transform="rotate(180,436,328)"/><path d="M 430 370v 12h 12a 12 12, 0, 0, 0, -12 -12" transform="rotate(0,436,376)"/><rect x="430" y="382" width="12" height="12" transform="rotate(0,436,388)"/><path d="M 430 394v 12h 12a 12 12, 0, 0, 0, -12 -12" transform="rotate(90,436,400)"/><circle cx="436" cy="436" r="6" transform="rotate(0,436,436)"/><rect x="430" y="466" width="12" height="12" transform="rotate(0,436,472)"/><path d="M 442 142v 12h 12a 12 12, 0, 0, 0, -12 -12" transform="rotate(0,448,148)"/><rect x="442" y="154" width="12" height="12" transform="rotate(0,448,160)"/><rect x="442" y="166" width="12" height="12" transform="rotate(0,448,172)"/><path d="M 442 238v 12h 6a 6 6, 0, 0, 0, 0 -12" transform="rotate(180,448,244)"/><rect x="442" y="310" width="12" height="12" transform="rotate(0,448,316)"/><rect x="442" y="322" width="12" height="12" transform="rotate(0,448,328)"/><rect x="442" y="334" width="12" height="12" transform="rotate(0,448,340)"/><path d="M 442 346v 12h 12a 12 12, 0, 0, 0, -12 -12" transform="rotate(180,448,352)"/><rect x="442" y="382" width="12" height="12" transform="rotate(0,448,388)"/><path d="M 442 418v 12h 6a 6 6, 0, 0, 0, 0 -12" transform="rotate(180,448,424)"/><rect x="442" y="466" width="12" height="12" transform="rotate(0,448,472)"/><rect x="454" y="166" width="12" height="12" transform="rotate(0,460,172)"/><rect x="454" y="178" width="12" height="12" transform="rotate(0,460,184)"/><path d="M 454 190v 12h 6a 6 6, 0, 0, 0, 0 -12" transform="rotate(90,460,196)"/><circle cx="460" cy="220" r="6" transform="rotate(0,460,220)"/><path d="M 454 238v 12h 6a 6 6, 0, 0, 0, 0 -12" transform="rotate(0,460,244)"/><rect x="454" y="310" width="12" height="12" transform="rotate(0,460,316)"/><rect x="454" y="322" width="12" height="12" transform="rotate(0,460,328)"/><path d="M 454 346v 12h 6a 6 6, 0, 0, 0, 0 -12" transform="rotate(0,460,352)"/><path d="M 454 382v 12h 12a 12 12, 0, 0, 0, -12 -12" transform="rotate(0,460,388)"/><path d="M 454 394v 12h 12a 12 12, 0, 0, 0, -12 -12" transform="rotate(180,460,400)"/><path d="M 454 418v 12h 6a 6 6, 0, 0, 0, 0 -12" transform="rotate(0,460,424)"/><path d="M 454 442v 12h 6a 6 6, 0, 0, 0, 0 -12" transform="rotate(-90,460,448)"/><rect x="454" y="454" width="12" height="12" transform="rotate(0,460,460)"/><rect x="454" y="466" width="12" height="12" transform="rotate(0,460,472)"/><path d="M 466 130v 12h 6a 6 6, 0, 0, 0, 0 -12" transform="rotate(-90,472,136)"/><rect x="466" y="142" width="12" height="12" transform="rotate(0,472,148)"/><rect x="466" y="154" width="12" height="12" transform="rotate(0,472,160)"/><path d="M 466 166v 12h 12a 12 12, 0, 0, 0, -12 -12" transform="rotate(90,472,172)"/><circle cx="472" cy="208" r="6" transform="rotate(0,472,208)"/><path d="M 466 250v 12h 6a 6 6, 0, 0, 0, 0 -12" transform="rotate(-90,472,256)"/><rect x="466" y="262" width="12" height="12" transform="rotate(0,472,268)"/><path d="M 466 274v 12h 6a 6 6, 0, 0, 0, 0 -12" transform="rotate(90,472,280)"/><path d="M 466 310v 12h 12a 12 12, 0, 0, 0, -12 -12" transform="rotate(0,472,316)"/><path d="M 466 322v 12h 12a 12 12, 0, 0, 0, -12 -12" transform="rotate(90,472,328)"/><circle cx="472" cy="376" r="6" transform="rotate(0,472,376)"/><path d="M 466 394v 12h 12a 12 12, 0, 0, 0, -12 -12" transform="rotate(0,472,400)"/><path d="M 466 406v 12h 6a 6 6, 0, 0, 0, 0 -12" transform="rotate(90,472,412)"/><path d="M 466 466v 12h 6a 6 6, 0, 0, 0, 0 -12" transform="rotate(0,472,472)"/></clipPath><clipPath id="clip-path-corners-square-color-0-0"><path clip-rule="evenodd" d="M 34 64v 24a 30 30, 0, 0, 0, 30 30h 24a 30 30, 0, 0, 0, 30 -30v -24a 30 30, 0, 0, 0, -30 -30h -24a 30 30, 0, 0, 0, -30 30M 64 46h 24a 18 18, 0, 0, 1, 18 18v 24a 18 18, 0, 0, 1, -18 18h -24a 18 18, 0, 0, 1, -18 -18v -24a 18 18, 0, 0, 1, 18 -18" transform="rotate(0,76,76)"/></clipPath><clipPath id="clip-path-corners-dot-color-0-0"><path d="m 58 58 m 25.714 36 h -15.429 c -5.683 0 -10.286 -4.603 -10.286 -10.286 v -15.429 c 0 -5.683 4.603 -10.286 10.286 -10.286 h 15.429 c 5.683 0 10.286 4.603 10.286 10.286 v 15.429 c 0 5.683 -4.603 10.286 -10.286 10.286 z"/></clipPath><clipPath id="clip-path-corners-square-color-1-0"><path clip-rule="evenodd" d="M 394 64v 24a 30 30, 0, 0, 0, 30 30h 24a 30 30, 0, 0, 0, 30 -30v -24a 30 30, 0, 0, 0, -30 -30h -24a 30 30, 0, 0, 0, -30 30M 424 46h 24a 18 18, 0, 0, 1, 18 18v 24a 18 18, 0, 0, 1, -18 18h -24a 18 18, 0, 0, 1, -18 -18v -24a 18 18, 0, 0, 1, 18 -18" transform="rotate(90,436,76)"/></clipPath><clipPath id="clip-path-corners-dot-color-1-0"><path d="m 418 58 m 25.714 36 h -15.429 c -5.683 0 -10.286 -4.603 -10.286 -10.286 v -15.429 c 0 -5.683 4.603 -10.286 10.286 -10.286 h 15.429 c 5.683 0 10.286 4.603 10.286 10.286 v 15.429 c 0 5.683 -4.603 10.286 -10.286 10.286 z"/></clipPath><clipPath id="clip-path-corners-square-color-0-1"><path clip-rule="evenodd" d="M 34 424v 24a 30 30, 0, 0, 0, 30 30h 24a 30 30, 0, 0, 0, 30 -30v -24a 30 30, 0, 0, 0, -30 -30h -24a 30 30, 0, 0, 0, -30 30M 64 406h 24a 18 18, 0, 0, 1, 18 18v 24a 18 18, 0, 0, 1, -18 18h -24a 18 18, 0, 0, 1, -18 -18v -24a 18 18, 0, 0, 1, 18 -18" transform="rotate(-90,76,436)"/></clipPath><clipPath id="clip-path-corners-dot-color-0-1"><path d="m 58 418 m 25.714 36 h -15.429 c -5.683 0 -10.286 -4.603 -10.286 -10.286 v -15.429 c 0 -5.683 4.603 -10.286 10.286 -10.286 h 15.429 c 5.683 0 10.286 4.603 10.286 10.286 v 15.429 c 0 5.683 -4.603 10.286 -10.286 10.286 z"/></clipPath></defs><rect x="0" y="0" height="512" width="512" clip-path="url('#clip-path-background-color')" fill="#ffffff"/><rect x="34" y="34" height="444" width="444" clip-path="url('#clip-path-dot-color')" fill="#000000"/><rect x="34" y="34" height="84" width="84" clip-path="url('#clip-path-corners-square-color-0-0')" fill="#000000"/><rect x="58" y="58" height="36" width="36" clip-path="url('#clip-path-corners-dot-color-0-0')" fill="#000000"/><rect x="394" y="34" height="84" width="84" clip-path="url('#clip-path-corners-square-color-1-0')" fill="#000000"/><rect x="418" y="58" height="36" width="36" clip-path="url('#clip-path-corners-dot-color-1-0')" fill="#000000"/><rect x="34" y="394" height="84" width="84" clip-path="url('#clip-path-corners-square-color-0-1')" fill="#000000"/><rect x="58" y="418" height="36" width="36" clip-path="url('#clip-path-corners-dot-color-0-1')" fill="#000000"/><svg xmlns="http://www.w3.org/2000/svg" fill="none" viewBox="0 0 64 64" height="108px" width="108px" x="202" y="202"><path fill="#0d34b4" d="M26.742 63.794V42.065c0-2.315.525-4.51 1.462-6.475a15 15 0 0 1-6.476 1.46L0 37.053V26.947h21.728a5 5 0 0 0 3.535-1.478 5 5 0 0 0 1.479-3.535V.206h10.104v21.728c0 2.314-.526 4.51-1.462 6.474a15 15 0 0 1 6.475-1.46h21.729v10.104H41.859c-1.37 0-2.624.566-3.535 1.477a5 5 0 0 0-1.477 3.537v21.728z" clip-rule="evenodd" fill-rule="evenodd"/><path fill="url(#a)" d="m12.886 5.945 15.363 15.364c2.934 2.933 4.401 6.805 4.402 10.677v.028c0 3.872-1.468 7.744-4.402 10.677L12.886 58.055l-7.147-7.147 15.364-15.363A5.02 5.02 0 0 0 22.573 32a5.02 5.02 0 0 0-1.47-3.544L5.739 13.092z" clip-rule="evenodd" fill-rule="evenodd"/><path fill="url(#b)" d="M25.827 24.938a14.84 14.84 0 0 1-6.183 12.064l-.05.05L5.74 50.91l7.146 7.146L26.742 44.2l1.508-1.508a14.94 14.94 0 0 0 3.544-5.634 15.2 15.2 0 0 0 .857-5.045v-.026c0-1.71-.285-3.418-.857-5.045a14.94 14.94 0 0 0-3.544-5.634L26.74 19.8l-4.27-4.27a14.8 14.8 0 0 1 3.356 9.408" clip-rule="evenodd" fill-rule="evenodd"/><path fill="url(#c)" d="M25.827 24.938a14.84 14.84 0 0 1-6.183 12.064l-.05.05L5.74 50.91l7.146 7.146L26.742 44.2l1.508-1.508a14.94 14.94 0 0 0 3.544-5.634 15.2 15.2 0 0 0 .857-5.045v-.026c0-1.71-.285-3.418-.857-5.045a14.94 14.94 0 0 0-3.544-5.634L26.74 19.8l-4.27-4.27a14.8 14.8 0 0 1 3.356 9.408" clip-rule="evenodd" fill-rule="evenodd"/><path fill="url(#d)" d="m39.396 46.75 11.306 11.306 7.147-7.148-15.364-15.363A5.02 5.02 0 0 1 41.014 32a5.02 5.02 0 0 1 1.471-3.544l1.457-1.457a14.84 14.84 0 0 0-6.18 12.199 14.8 14.8 0 0 0 3.355 9.273z" clip-rule="evenodd" fill-rule="evenodd"/><path fill="url(#e)" d="M37.761 39.062a14.84 14.84 0 0 1 6.183-12.065l.05-.05 13.855-13.856-7.146-7.146L36.846 19.8l-1.508 1.508a14.9 14.9 0 0 0-3.544 5.634 15.2 15.2 0 0 0-.858 5.044v.027c0 1.709.286 3.417.858 5.045a14.94 14.94 0 0 0 3.544 5.634l1.509 1.508 4.27 4.27a14.8 14.8 0 0 1-3.355-9.273z" clip-rule="evenodd" fill-rule="evenodd"/><defs><linearGradient gradientUnits="userSpaceOnUse" y2="41.276" x2="26.724" y1="12.794" x1="1.07" id="a"><stop stop-color="#008bff"/><stop stop-color="#5fffec" offset="1"/></linearGradient><linearGradient gradientUnits="userSpaceOnUse" y2="17.775" x2="28.426" y1="43.443" x1="5.169" id="b"><stop stop-color="#008bff"/><stop stop-color="#5fffec" offset="1"/></linearGradient><linearGradient gradientUnits="userSpaceOnUse" y2="17.775" x2="28.426" y1="43.443" x1="5.169" id="c"><stop stop-color="#5fffec"/><stop stop-color="#008bff" offset="1"/></linearGradient><linearGradient gradientUnits="userSpaceOnUse" y2="57.293" x2="46.851" y1="30.864" x1="39.743" id="d"><stop stop-color="#5fffec"/><stop stop-color="#008bff" offset="1"/></linearGradient><linearGradient gradientUnits="userSpaceOnUse" y2="8.19" x2="53.623" y1="33.859" x1="30.366" id="e"><stop stop-color="#008bff"/><stop stop-color="#5fffec" offset="1"/></linearGradient></defs></svg></svg>