<?xml version="1.0" standalone="no"?>
<svg xmlns="http://www.w3.org/2000/svg" width="512" height="512" viewBox="0 0 512 512"><defs><clipPath id="clip-path-dot-color"><path d="M 34 130v 12h 12a 12 12, 0, 0, 0, -12 -12" transform="rotate(-90,40,136)"/><rect x="34" y="142" width="12" height="12" transform="rotate(0,40,148)"/><path d="M 34 154v 12h 6a 6 6, 0, 0, 0, 0 -12" transform="rotate(90,40,160)"/><path d="M 34 178v 12h 6a 6 6, 0, 0, 0, 0 -12" transform="rotate(-90,40,184)"/><path d="M 34 190v 12h 6a 6 6, 0, 0, 0, 0 -12" transform="rotate(90,40,196)"/><path d="M 34 226v 12h 6a 6 6, 0, 0, 0, 0 -12" transform="rotate(-90,40,232)"/><path d="M 34 238v 12h 6a 6 6, 0, 0, 0, 0 -12" transform="rotate(90,40,244)"/><path d="M 34 286v 12h 6a 6 6, 0, 0, 0, 0 -12" transform="rotate(-90,40,292)"/><rect x="34" y="298" width="12" height="12" transform="rotate(0,40,304)"/><rect x="34" y="310" width="12" height="12" transform="rotate(0,40,316)"/><rect x="34" y="322" width="12" height="12" transform="rotate(0,40,328)"/><path d="M 34 334v 12h 12a 12 12, 0, 0, 0, -12 -12" transform="rotate(180,40,340)"/><path d="M 34 370v 12h 6a 6 6, 0, 0, 0, 0 -12" transform="rotate(180,40,376)"/><path d="M 46 130v 12h 6a 6 6, 0, 0, 0, 0 -12" transform="rotate(0,52,136)"/><circle cx="52" cy="208" r="6" transform="rotate(0,52,208)"/><path d="M 46 250v 12h 6a 6 6, 0, 0, 0, 0 -12" transform="rotate(180,52,256)"/><path d="M 46 310v 12h 6a 6 6, 0, 0, 0, 0 -12" transform="rotate(0,52,316)"/><rect x="46" y="334" width="12" height="12" transform="rotate(0,52,340)"/><path d="M 46 370v 12h 6a 6 6, 0, 0, 0, 0 -12" transform="rotate(0,52,376)"/><circle cx="64" cy="148" r="6" transform="rotate(0,64,148)"/><path d="M 58 178v 12h 6a 6 6, 0, 0, 0, 0 -12" transform="rotate(180,64,184)"/><path d="M 58 226v 12h 6a 6 6, 0, 0, 0, 0 -12" transform="rotate(180,64,232)"/><path d="M 58 250v 12h 12a 12 12, 0, 0, 0, -12 -12" transform="rotate(0,64,256)"/><path d="M 58 262v 12h 6a 6 6, 0, 0, 0, 0 -12" transform="rotate(90,64,268)"/><path d="M 58 298v 12h 6a 6 6, 0, 0, 0, 0 -12" transform="rotate(180,64,304)"/><rect x="58" y="334" width="12" height="12" transform="rotate(0,64,340)"/><circle cx="76" cy="136" r="6" transform="rotate(0,76,136)"/><path d="M 70 178v 12h 6a 6 6, 0, 0, 0, 0 -12" transform="rotate(0,76,184)"/><path d="M 70 202v 12h 6a 6 6, 0, 0, 0, 0 -12" transform="rotate(-90,76,208)"/><rect x="70" y="214" width="12" height="12" transform="rotate(0,76,220)"/><rect x="70" y="226" width="12" height="12" transform="rotate(0,76,232)"/><path d="M 70 238v 12h 6a 6 6, 0, 0, 0, 0 -12" transform="rotate(90,76,244)"/><rect x="70" y="298" width="12" height="12" transform="rotate(0,76,304)"/><path d="M 70 334v 12h 12a 12 12, 0, 0, 0, -12 -12" transform="rotate(0,76,340)"/><path d="M 70 346v 12h 6a 6 6, 0, 0, 0, 0 -12" transform="rotate(90,76,352)"/><path d="M 82 142v 12h 12a 12 12, 0, 0, 0, -12 -12" transform="rotate(-90,88,148)"/><rect x="82" y="154" width="12" height="12" transform="rotate(0,88,160)"/><path d="M 82 166v 12h 6a 6 6, 0, 0, 0, 0 -12" transform="rotate(90,88,172)"/><rect x="82" y="214" width="12" height="12" transform="rotate(0,88,220)"/><rect x="82" y="226" width="12" height="12" transform="rotate(0,88,232)"/><path d="M 82 262v 12h 12a 12 12, 0, 0, 0, -12 -12" transform="rotate(-90,88,268)"/><rect x="82" y="274" width="12" height="12" transform="rotate(0,88,280)"/><rect x="82" y="286" width="12" height="12" transform="rotate(0,88,292)"/><rect x="82" y="298" width="12" height="12" transform="rotate(0,88,304)"/><path d="M 82 322v 12h 6a 6 6, 0, 0, 0, 0 -12" transform="rotate(180,88,328)"/><circle cx="88" cy="364" r="6" transform="rotate(0,88,364)"/><path d="M 94 142v 12h 6a 6 6, 0, 0, 0, 0 -12" transform="rotate(0,100,148)"/><path d="M 94 178v 12h 6a 6 6, 0, 0, 0, 0 -12" transform="rotate(180,100,184)"/><path d="M 94 214v 12h 12a 12 12, 0, 0, 0, -12 -12" transform="rotate(0,100,220)"/><rect x="94" y="226" width="12" height="12" transform="rotate(0,100,232)"/><rect x="94" y="238" width="12" height="12" transform="rotate(0,100,244)"/><rect x="94" y="250" width="12" height="12" transform="rotate(0,100,256)"/><rect x="94" y="262" width="12" height="12" transform="rotate(0,100,268)"/><rect x="94" y="274" width="12" height="12" transform="rotate(0,100,280)"/><rect x="94" y="298" width="12" height="12" transform="rotate(0,100,304)"/><rect x="94" y="322" width="12" height="12" transform="rotate(0,100,328)"/><path d="M 94 334v 12h 6a 6 6, 0, 0, 0, 0 -12" transform="rotate(90,100,340)"/><path d="M 94 370v 12h 6a 6 6, 0, 0, 0, 0 -12" transform="rotate(180,100,376)"/><path d="M 106 130v 12h 6a 6 6, 0, 0, 0, 0 -12" transform="rotate(180,112,136)"/><circle cx="112" cy="160" r="6" transform="rotate(0,112,160)"/><path d="M 106 178v 12h 6a 6 6, 0, 0, 0, 0 -12" transform="rotate(0,112,184)"/><path d="M 106 202v 12h 6a 6 6, 0, 0, 0, 0 -12" transform="rotate(180,112,208)"/><path d="M 106 226v 12h 6a 6 6, 0, 0, 0, 0 -12" transform="rotate(0,112,232)"/><path d="M 106 250v 12h 6a 6 6, 0, 0, 0, 0 -12" transform="rotate(0,112,256)"/><rect x="106" y="274" width="12" height="12" transform="rotate(0,112,280)"/><path d="M 106 298v 12h 6a 6 6, 0, 0, 0, 0 -12" transform="rotate(0,112,304)"/><path d="M 106 322v 12h 6a 6 6, 0, 0, 0, 0 -12" transform="rotate(0,112,328)"/><circle cx="112" cy="352" r="6" transform="rotate(0,112,352)"/><path d="M 106 370v 12h 6a 6 6, 0, 0, 0, 0 -12" transform="rotate(0,112,376)"/><path d="M 118 130v 12h 12a 12 12, 0, 0, 0, -12 -12" transform="rotate(0,124,136)"/><path d="M 118 142v 12h 12a 12 12, 0, 0, 0, -12 -12" transform="rotate(180,124,148)"/><path d="M 118 166v 12h 6a 6 6, 0, 0, 0, 0 -12" transform="rotate(180,124,172)"/><path d="M 118 190v 12h 12a 12 12, 0, 0, 0, -12 -12" transform="rotate(-90,124,196)"/><rect x="118" y="202" width="12" height="12" transform="rotate(0,124,208)"/><path d="M 118 214v 12h 6a 6 6, 0, 0, 0, 0 -12" transform="rotate(90,124,220)"/><path d="M 118 262v 12h 12a 12 12, 0, 0, 0, -12 -12" transform="rotate(-90,124,268)"/><path d="M 118 274v 12h 12a 12 12, 0, 0, 0, -12 -12" transform="rotate(90,124,280)"/><circle cx="124" cy="316" r="6" transform="rotate(0,124,316)"/><path d="M 118 358v 12h 6a 6 6, 0, 0, 0, 0 -12" transform="rotate(180,124,364)"/><path d="M 130 34v 12h 6a 6 6, 0, 0, 0, 0 -12" transform="rotate(180,136,40)"/><path d="M 130 58v 12h 6a 6 6, 0, 0, 0, 0 -12" transform="rotate(-90,136,64)"/><path d="M 130 70v 12h 6a 6 6, 0, 0, 0, 0 -12" transform="rotate(90,136,76)"/><path d="M 130 94v 12h 12a 12 12, 0, 0, 0, -12 -12" transform="rotate(-90,136,100)"/><rect x="130" y="106" width="12" height="12" transform="rotate(0,136,112)"/><path d="M 130 118v 12h 12a 12 12, 0, 0, 0, -12 -12" transform="rotate(180,136,124)"/><rect x="130" y="142" width="12" height="12" transform="rotate(0,136,148)"/><rect x="130" y="154" width="12" height="12" transform="rotate(0,136,160)"/><path d="M 130 166v 12h 12a 12 12, 0, 0, 0, -12 -12" transform="rotate(90,136,172)"/><rect x="130" y="190" width="12" height="12" transform="rotate(0,136,196)"/><path d="M 130 202v 12h 12a 12 12, 0, 0, 0, -12 -12" transform="rotate(90,136,208)"/><path d="M 130 250v 12h 12a 12 12, 0, 0, 0, -12 -12" transform="rotate(-90,136,256)"/><path d="M 130 262v 12h 12a 12 12, 0, 0, 0, -12 -12" transform="rotate(90,136,268)"/><path d="M 130 286v 12h 12a 12 12, 0, 0, 0, -12 -12" transform="rotate(-90,136,292)"/><path d="M 130 298v 12h 12a 12 12, 0, 0, 0, -12 -12" transform="rotate(180,136,304)"/><path d="M 130 322v 12h 6a 6 6, 0, 0, 0, 0 -12" transform="rotate(180,136,328)"/><path d="M 130 346v 12h 6a 6 6, 0, 0, 0, 0 -12" transform="rotate(-90,136,352)"/><rect x="130" y="358" width="12" height="12" transform="rotate(0,136,364)"/><path d="M 130 370v 12h 6a 6 6, 0, 0, 0, 0 -12" transform="rotate(90,136,376)"/><circle cx="136" cy="400" r="6" transform="rotate(0,136,400)"/><path d="M 130 430v 12h 6a 6 6, 0, 0, 0, 0 -12" transform="rotate(180,136,436)"/><path d="M 130 454v 12h 12a 12 12, 0, 0, 0, -12 -12" transform="rotate(-90,136,460)"/><path d="M 130 466v 12h 6a 6 6, 0, 0, 0, 0 -12" transform="rotate(90,136,472)"/><rect x="142" y="34" width="12" height="12" transform="rotate(0,148,40)"/><path d="M 142 82v 12h 12a 12 12, 0, 0, 0, -12 -12" transform="rotate(-90,148,88)"/><path d="M 142 94v 12h 12a 12 12, 0, 0, 0, -12 -12" transform="rotate(90,148,100)"/><rect x="142" y="118" width="12" height="12" transform="rotate(0,148,124)"/><rect x="142" y="130" width="12" height="12" transform="rotate(0,148,136)"/><rect x="142" y="142" width="12" height="12" transform="rotate(0,148,148)"/><path d="M 142 154v 12h 12a 12 12, 0, 0, 0, -12 -12" transform="rotate(90,148,160)"/><rect x="142" y="190" width="12" height="12" transform="rotate(0,148,196)"/><circle cx="148" cy="220" r="6" transform="rotate(0,148,220)"/><rect x="142" y="250" width="12" height="12" transform="rotate(0,148,256)"/><path d="M 142 274v 12h 12a 12 12, 0, 0, 0, -12 -12" transform="rotate(-90,148,280)"/><rect x="142" y="286" width="12" height="12" transform="rotate(0,148,292)"/><rect x="142" y="298" width="12" height="12" transform="rotate(0,148,304)"/><rect x="142" y="310" width="12" height="12" transform="rotate(0,148,316)"/><path d="M 142 322v 12h 12a 12 12, 0, 0, 0, -12 -12" transform="rotate(90,148,328)"/><circle cx="148" cy="388" r="6" transform="rotate(0,148,388)"/><rect x="142" y="430" width="12" height="12" transform="rotate(0,148,436)"/><rect x="142" y="442" width="12" height="12" transform="rotate(0,148,448)"/><path d="M 142 454v 12h 12a 12 12, 0, 0, 0, -12 -12" transform="rotate(90,148,460)"/><path d="M 154 34v 12h 12a 12 12, 0, 0, 0, -12 -12" transform="rotate(0,160,40)"/><rect x="154" y="46" width="12" height="12" transform="rotate(0,160,52)"/><path d="M 154 58v 12h 12a 12 12, 0, 0, 0, -12 -12" transform="rotate(180,160,64)"/><path d="M 154 82v 12h 6a 6 6, 0, 0, 0, 0 -12" transform="rotate(0,160,88)"/><path d="M 154 106v 12h 6a 6 6, 0, 0, 0, 0 -12" transform="rotate(-90,160,112)"/><rect x="154" y="118" width="12" height="12" transform="rotate(0,160,124)"/><rect x="154" y="130" width="12" height="12" transform="rotate(0,160,136)"/><path d="M 154 142v 12h 12a 12 12, 0, 0, 0, -12 -12" transform="rotate(90,160,148)"/><circle cx="160" cy="172" r="6" transform="rotate(0,160,172)"/><path d="M 154 190v 12h 12a 12 12, 0, 0, 0, -12 -12" transform="rotate(0,160,196)"/><path d="M 154 202v 12h 6a 6 6, 0, 0, 0, 0 -12" transform="rotate(90,160,208)"/><path d="M 154 226v 12h 12a 12 12, 0, 0, 0, -12 -12" transform="rotate(-90,160,232)"/><rect x="154" y="238" width="12" height="12" transform="rotate(0,160,244)"/><rect x="154" y="250" width="12" height="12" transform="rotate(0,160,256)"/><rect x="154" y="262" width="12" height="12" transform="rotate(0,160,268)"/><rect x="154" y="274" width="12" height="12" transform="rotate(0,160,280)"/><rect x="154" y="310" width="12" height="12" transform="rotate(0,160,316)"/><path d="M 154 334v 12h 6a 6 6, 0, 0, 0, 0 -12" transform="rotate(180,160,340)"/><path d="M 154 418v 12h 6a 6 6, 0, 0, 0, 0 -12" transform="rotate(-90,160,424)"/><path d="M 154 430v 12h 12a 12 12, 0, 0, 0, -12 -12" transform="rotate(90,160,436)"/><rect x="166" y="46" width="12" height="12" transform="rotate(0,172,52)"/><rect x="166" y="58" width="12" height="12" transform="rotate(0,172,64)"/><path d="M 166 70v 12h 6a 6 6, 0, 0, 0, 0 -12" transform="rotate(90,172,76)"/><circle cx="172" cy="100" r="6" transform="rotate(0,172,100)"/><circle cx="172" cy="160" r="6" transform="rotate(0,172,160)"/><path d="M 166 226v 12h 6a 6 6, 0, 0, 0, 0 -12" transform="rotate(0,172,232)"/><rect x="166" y="250" width="12" height="12" transform="rotate(0,172,256)"/><rect x="166" y="274" width="12" height="12" transform="rotate(0,172,280)"/><path d="M 166 298v 12h 6a 6 6, 0, 0, 0, 0 -12" transform="rotate(-90,172,304)"/><rect x="166" y="310" width="12" height="12" transform="rotate(0,172,316)"/><rect x="166" y="322" width="12" height="12" transform="rotate(0,172,328)"/><rect x="166" y="334" width="12" height="12" transform="rotate(0,172,340)"/><path d="M 166 358v 12h 6a 6 6, 0, 0, 0, 0 -12" transform="rotate(180,172,364)"/><path d="M 166 442v 12h 6a 6 6, 0, 0, 0, 0 -12" transform="rotate(180,172,448)"/><rect x="178" y="46" width="12" height="12" transform="rotate(0,184,52)"/><path d="M 178 82v 12h 6a 6 6, 0, 0, 0, 0 -12" transform="rotate(180,184,88)"/><circle cx="184" cy="112" r="6" transform="rotate(0,184,112)"/><path d="M 178 130v 12h 12a 12 12, 0, 0, 0, -12 -12" transform="rotate(-90,184,136)"/><path d="M 178 142v 12h 12a 12 12, 0, 0, 0, -12 -12" transform="rotate(180,184,148)"/><path d="M 178 214v 12h 6a 6 6, 0, 0, 0, 0 -12" transform="rotate(180,184,220)"/><path d="M 178 238v 12h 12a 12 12, 0, 0, 0, -12 -12" transform="rotate(-90,184,244)"/><rect x="178" y="250" width="12" height="12" transform="rotate(0,184,256)"/><rect x="178" y="262" width="12" height="12" transform="rotate(0,184,268)"/><path d="M 178 274v 12h 12a 12 12, 0, 0, 0, -12 -12" transform="rotate(90,184,280)"/><rect x="178" y="322" width="12" height="12" transform="rotate(0,184,328)"/><rect x="178" y="334" width="12" height="12" transform="rotate(0,184,340)"/><rect x="178" y="346" width="12" height="12" transform="rotate(0,184,352)"/><rect x="178" y="358" width="12" height="12" transform="rotate(0,184,364)"/><rect x="178" y="370" width="12" height="12" transform="rotate(0,184,376)"/><rect x="178" y="382" width="12" height="12" transform="rotate(0,184,388)"/><path d="M 178 394v 12h 12a 12 12, 0, 0, 0, -12 -12" transform="rotate(180,184,400)"/><path d="M 178 418v 12h 6a 6 6, 0, 0, 0, 0 -12" transform="rotate(180,184,424)"/><path d="M 178 442v 12h 12a 12 12, 0, 0, 0, -12 -12" transform="rotate(0,184,448)"/><rect x="178" y="454" width="12" height="12" transform="rotate(0,184,460)"/><path d="M 178 466v 12h 12a 12 12, 0, 0, 0, -12 -12" transform="rotate(180,184,472)"/><path d="M 190 34v 12h 12a 12 12, 0, 0, 0, -12 -12" transform="rotate(-90,196,40)"/><rect x="190" y="46" width="12" height="12" transform="rotate(0,196,52)"/><rect x="190" y="58" width="12" height="12" transform="rotate(0,196,64)"/><rect x="190" y="70" width="12" height="12" transform="rotate(0,196,76)"/><rect x="190" y="82" width="12" height="12" transform="rotate(0,196,88)"/><path d="M 190 130v 12h 12a 12 12, 0, 0, 0, -12 -12" transform="rotate(0,196,136)"/><path d="M 190 142v 12h 12a 12 12, 0, 0, 0, -12 -12" transform="rotate(90,196,148)"/><path d="M 190 166v 12h 6a 6 6, 0, 0, 0, 0 -12" transform="rotate(-90,196,172)"/><path d="M 190 178v 12h 12a 12 12, 0, 0, 0, -12 -12" transform="rotate(180,196,184)"/><path d="M 190 202v 12h 6a 6 6, 0, 0, 0, 0 -12" transform="rotate(-90,196,208)"/><rect x="190" y="214" width="12" height="12" transform="rotate(0,196,220)"/><rect x="190" y="226" width="12" height="12" transform="rotate(0,196,232)"/><rect x="190" y="238" width="12" height="12" transform="rotate(0,196,244)"/><rect x="190" y="250" width="12" height="12" transform="rotate(0,196,256)"/><path d="M 190 262v 12h 12a 12 12, 0, 0, 0, -12 -12" transform="rotate(90,196,268)"/><path d="M 190 322v 12h 6a 6 6, 0, 0, 0, 0 -12" transform="rotate(0,196,328)"/><rect x="190" y="346" width="12" height="12" transform="rotate(0,196,352)"/><rect x="190" y="358" width="12" height="12" transform="rotate(0,196,364)"/><rect x="190" y="370" width="12" height="12" transform="rotate(0,196,376)"/><rect x="190" y="382" width="12" height="12" transform="rotate(0,196,388)"/><rect x="190" y="394" width="12" height="12" transform="rotate(0,196,400)"/><rect x="190" y="406" width="12" height="12" transform="rotate(0,196,412)"/><rect x="190" y="418" width="12" height="12" transform="rotate(0,196,424)"/><path d="M 190 430v 12h 6a 6 6, 0, 0, 0, 0 -12" transform="rotate(90,196,436)"/><path d="M 190 466v 12h 6a 6 6, 0, 0, 0, 0 -12" transform="rotate(0,196,472)"/><rect x="202" y="34" width="12" height="12" transform="rotate(0,208,40)"/><path d="M 202 70v 12h 12a 12 12, 0, 0, 0, -12 -12" transform="rotate(0,208,76)"/><rect x="202" y="82" width="12" height="12" transform="rotate(0,208,88)"/><rect x="202" y="94" width="12" height="12" transform="rotate(0,208,100)"/><path d="M 202 106v 12h 6a 6 6, 0, 0, 0, 0 -12" transform="rotate(90,208,112)"/><path d="M 202 178v 12h 12a 12 12, 0, 0, 0, -12 -12" transform="rotate(0,208,184)"/><path d="M 202 190v 12h 12a 12 12, 0, 0, 0, -12 -12" transform="rotate(180,208,196)"/><path d="M 202 334v 12h 6a 6 6, 0, 0, 0, 0 -12" transform="rotate(-90,208,340)"/><path d="M 202 346v 12h 12a 12 12, 0, 0, 0, -12 -12" transform="rotate(90,208,352)"/><rect x="202" y="418" width="12" height="12" transform="rotate(0,208,424)"/><circle cx="208" cy="448" r="6" transform="rotate(0,208,448)"/><rect x="214" y="34" width="12" height="12" transform="rotate(0,220,40)"/><path d="M 214 58v 12h 6a 6 6, 0, 0, 0, 0 -12" transform="rotate(180,220,64)"/><rect x="214" y="82" width="12" height="12" transform="rotate(0,220,88)"/><path d="M 214 130v 12h 6a 6 6, 0, 0, 0, 0 -12" transform="rotate(-90,220,136)"/><rect x="214" y="142" width="12" height="12" transform="rotate(0,220,148)"/><path d="M 214 154v 12h 6a 6 6, 0, 0, 0, 0 -12" transform="rotate(90,220,160)"/><path d="M 214 190v 12h 6a 6 6, 0, 0, 0, 0 -12" transform="rotate(0,220,196)"/><circle cx="220" cy="316" r="6" transform="rotate(0,220,316)"/><path d="M 214 358v 12h 6a 6 6, 0, 0, 0, 0 -12" transform="rotate(-90,220,364)"/><rect x="214" y="370" width="12" height="12" transform="rotate(0,220,376)"/><rect x="214" y="382" width="12" height="12" transform="rotate(0,220,388)"/><rect x="214" y="394" width="12" height="12" transform="rotate(0,220,400)"/><rect x="214" y="406" width="12" height="12" transform="rotate(0,220,412)"/><path d="M 214 418v 12h 12a 12 12, 0, 0, 0, -12 -12" transform="rotate(90,220,424)"/><path d="M 214 454v 12h 12a 12 12, 0, 0, 0, -12 -12" transform="rotate(-90,220,460)"/><path d="M 214 466v 12h 6a 6 6, 0, 0, 0, 0 -12" transform="rotate(90,220,472)"/><path d="M 226 34v 12h 6a 6 6, 0, 0, 0, 0 -12" transform="rotate(0,232,40)"/><path d="M 226 58v 12h 12a 12 12, 0, 0, 0, -12 -12" transform="rotate(0,232,64)"/><rect x="226" y="70" width="12" height="12" transform="rotate(0,232,76)"/><rect x="226" y="82" width="12" height="12" transform="rotate(0,232,88)"/><circle cx="232" cy="112" r="6" transform="rotate(0,232,112)"/><path d="M 226 178v 12h 6a 6 6, 0, 0, 0, 0 -12" transform="rotate(180,232,184)"/><path d="M 226 334v 12h 6a 6 6, 0, 0, 0, 0 -12" transform="rotate(180,232,340)"/><path d="M 226 382v 12h 6a 6 6, 0, 0, 0, 0 -12" transform="rotate(0,232,388)"/><rect x="226" y="406" width="12" height="12" transform="rotate(0,232,412)"/><path d="M 226 430v 12h 6a 6 6, 0, 0, 0, 0 -12" transform="rotate(-90,232,436)"/><rect x="226" y="442" width="12" height="12" transform="rotate(0,232,448)"/><rect x="226" y="454" width="12" height="12" transform="rotate(0,232,460)"/><circle cx="244" cy="52" r="6" transform="rotate(0,244,52)"/><rect x="238" y="70" width="12" height="12" transform="rotate(0,244,76)"/><rect x="238" y="82" width="12" height="12" transform="rotate(0,244,88)"/><path d="M 238 94v 12h 6a 6 6, 0, 0, 0, 0 -12" transform="rotate(90,244,100)"/><circle cx="244" cy="136" r="6" transform="rotate(0,244,136)"/><path d="M 238 154v 12h 6a 6 6, 0, 0, 0, 0 -12" transform="rotate(180,244,160)"/><rect x="238" y="178" width="12" height="12" transform="rotate(0,244,184)"/><path d="M 238 310v 12h 6a 6 6, 0, 0, 0, 0 -12" transform="rotate(-90,244,316)"/><rect x="238" y="322" width="12" height="12" transform="rotate(0,244,328)"/><path d="M 238 334v 12h 12a 12 12, 0, 0, 0, -12 -12" transform="rotate(90,244,340)"/><path d="M 238 358v 12h 6a 6 6, 0, 0, 0, 0 -12" transform="rotate(180,244,364)"/><path d="M 238 394v 12h 6a 6 6, 0, 0, 0, 0 -12" transform="rotate(-90,244,400)"/><rect x="238" y="406" width="12" height="12" transform="rotate(0,244,412)"/><path d="M 238 442v 12h 12a 12 12, 0, 0, 0, -12 -12" transform="rotate(0,244,448)"/><rect x="238" y="454" width="12" height="12" transform="rotate(0,244,460)"/><path d="M 238 466v 12h 12a 12 12, 0, 0, 0, -12 -12" transform="rotate(180,244,472)"/><path d="M 250 70v 12h 12a 12 12, 0, 0, 0, -12 -12" transform="rotate(0,256,76)"/><path d="M 250 82v 12h 12a 12 12, 0, 0, 0, -12 -12" transform="rotate(90,256,88)"/><path d="M 250 106v 12h 6a 6 6, 0, 0, 0, 0 -12" transform="rotate(-90,256,112)"/><path d="M 250 118v 12h 6a 6 6, 0, 0, 0, 0 -12" transform="rotate(90,256,124)"/><path d="M 250 142v 12h 6a 6 6, 0, 0, 0, 0 -12" transform="rotate(-90,256,148)"/><path d="M 250 154v 12h 12a 12 12, 0, 0, 0, -12 -12" transform="rotate(90,256,160)"/><rect x="250" y="178" width="12" height="12" transform="rotate(0,256,184)"/><path d="M 250 346v 12h 6a 6 6, 0, 0, 0, 0 -12" transform="rotate(-90,256,352)"/><rect x="250" y="358" width="12" height="12" transform="rotate(0,256,364)"/><rect x="250" y="370" width="12" height="12" transform="rotate(0,256,376)"/><path d="M 250 382v 12h 6a 6 6, 0, 0, 0, 0 -12" transform="rotate(90,256,388)"/><path d="M 250 406v 12h 12a 12 12, 0, 0, 0, -12 -12" transform="rotate(0,256,412)"/><path d="M 250 418v 12h 12a 12 12, 0, 0, 0, -12 -12" transform="rotate(180,256,424)"/><rect x="250" y="454" width="12" height="12" transform="rotate(0,256,460)"/><path d="M 250 466v 12h 12a 12 12, 0, 0, 0, -12 -12" transform="rotate(90,256,472)"/><path d="M 262 46v 12h 12a 12 12, 0, 0, 0, -12 -12" transform="rotate(-90,268,52)"/><path d="M 262 58v 12h 6a 6 6, 0, 0, 0, 0 -12" transform="rotate(90,268,64)"/><path d="M 262 130v 12h 6a 6 6, 0, 0, 0, 0 -12" transform="rotate(180,268,136)"/><path d="M 262 166v 12h 12a 12 12, 0, 0, 0, -12 -12" transform="rotate(-90,268,172)"/><rect x="262" y="178" width="12" height="12" transform="rotate(0,268,184)"/><path d="M 262 190v 12h 6a 6 6, 0, 0, 0, 0 -12" transform="rotate(90,268,196)"/><rect x="262" y="418" width="12" height="12" transform="rotate(0,268,424)"/><path d="M 262 430v 12h 6a 6 6, 0, 0, 0, 0 -12" transform="rotate(90,268,436)"/><path d="M 262 454v 12h 6a 6 6, 0, 0, 0, 0 -12" transform="rotate(0,268,460)"/><path d="M 274 34v 12h 6a 6 6, 0, 0, 0, 0 -12" transform="rotate(-90,280,40)"/><path d="M 274 46v 12h 12a 12 12, 0, 0, 0, -12 -12" transform="rotate(90,280,52)"/><circle cx="280" cy="88" r="6" transform="rotate(0,280,88)"/><path d="M 274 106v 12h 6a 6 6, 0, 0, 0, 0 -12" transform="rotate(-90,280,112)"/><rect x="274" y="118" width="12" height="12" transform="rotate(0,280,124)"/><path d="M 274 130v 12h 12a 12 12, 0, 0, 0, -12 -12" transform="rotate(90,280,136)"/><rect x="274" y="166" width="12" height="12" transform="rotate(0,280,172)"/><path d="M 274 346v 12h 6a 6 6, 0, 0, 0, 0 -12" transform="rotate(180,280,352)"/><circle cx="280" cy="388" r="6" transform="rotate(0,280,388)"/><path d="M 274 406v 12h 6a 6 6, 0, 0, 0, 0 -12" transform="rotate(-90,280,412)"/><path d="M 274 418v 12h 12a 12 12, 0, 0, 0, -12 -12" transform="rotate(90,280,424)"/><circle cx="280" cy="472" r="6" transform="rotate(0,280,472)"/><rect x="286" y="118" width="12" height="12" transform="rotate(0,292,124)"/><circle cx="292" cy="148" r="6" transform="rotate(0,292,148)"/><path d="M 286 166v 12h 12a 12 12, 0, 0, 0, -12 -12" transform="rotate(0,292,172)"/><rect x="286" y="178" width="12" height="12" transform="rotate(0,292,184)"/><path d="M 286 190v 12h 6a 6 6, 0, 0, 0, 0 -12" transform="rotate(90,292,196)"/><path d="M 286 310v 12h 12a 12 12, 0, 0, 0, -12 -12" transform="rotate(-90,292,316)"/><path d="M 286 322v 12h 6a 6 6, 0, 0, 0, 0 -12" transform="rotate(90,292,328)"/><path d="M 286 346v 12h 6a 6 6, 0, 0, 0, 0 -12" transform="rotate(0,292,352)"/><path d="M 286 370v 12h 6a 6 6, 0, 0, 0, 0 -12" transform="rotate(180,292,376)"/><circle cx="292" cy="436" r="6" transform="rotate(0,292,436)"/><path d="M 286 454v 12h 6a 6 6, 0, 0, 0, 0 -12" transform="rotate(180,292,460)"/><path d="M 298 34v 12h 12a 12 12, 0, 0, 0, -12 -12" transform="rotate(-90,304,40)"/><rect x="298" y="46" width="12" height="12" transform="rotate(0,304,52)"/><path d="M 298 58v 12h 12a 12 12, 0, 0, 0, -12 -12" transform="rotate(180,304,64)"/><path d="M 298 82v 12h 12a 12 12, 0, 0, 0, -12 -12" transform="rotate(-90,304,88)"/><rect x="298" y="94" width="12" height="12" transform="rotate(0,304,100)"/><rect x="298" y="106" width="12" height="12" transform="rotate(0,304,112)"/><rect x="298" y="118" width="12" height="12" transform="rotate(0,304,124)"/><path d="M 298 130v 12h 6a 6 6, 0, 0, 0, 0 -12" transform="rotate(90,304,136)"/><path d="M 298 310v 12h 6a 6 6, 0, 0, 0, 0 -12" transform="rotate(0,304,316)"/><path d="M 298 334v 12h 6a 6 6, 0, 0, 0, 0 -12" transform="rotate(180,304,340)"/><path d="M 298 370v 12h 6a 6 6, 0, 0, 0, 0 -12" transform="rotate(0,304,376)"/><path d="M 298 394v 12h 6a 6 6, 0, 0, 0, 0 -12" transform="rotate(-90,304,400)"/><path d="M 298 406v 12h 6a 6 6, 0, 0, 0, 0 -12" transform="rotate(90,304,412)"/><rect x="298" y="454" width="12" height="12" transform="rotate(0,304,460)"/><rect x="310" y="34" width="12" height="12" transform="rotate(0,316,40)"/><rect x="310" y="58" width="12" height="12" transform="rotate(0,316,64)"/><rect x="310" y="70" width="12" height="12" transform="rotate(0,316,76)"/><rect x="310" y="82" width="12" height="12" transform="rotate(0,316,88)"/><rect x="310" y="94" width="12" height="12" transform="rotate(0,316,100)"/><rect x="310" y="118" width="12" height="12" transform="rotate(0,316,124)"/><path d="M 310 154v 12h 6a 6 6, 0, 0, 0, 0 -12" transform="rotate(180,316,160)"/><circle cx="316" cy="244" r="6" transform="rotate(0,316,244)"/><path d="M 310 262v 12h 6a 6 6, 0, 0, 0, 0 -12" transform="rotate(-90,316,268)"/><path d="M 310 274v 12h 6a 6 6, 0, 0, 0, 0 -12" transform="rotate(90,316,280)"/><circle cx="316" cy="304" r="6" transform="rotate(0,316,304)"/><path d="M 310 322v 12h 6a 6 6, 0, 0, 0, 0 -12" transform="rotate(-90,316,328)"/><rect x="310" y="334" width="12" height="12" transform="rotate(0,316,340)"/><path d="M 310 382v 12h 6a 6 6, 0, 0, 0, 0 -12" transform="rotate(180,316,388)"/><path d="M 310 418v 12h 12a 12 12, 0, 0, 0, -12 -12" transform="rotate(-90,316,424)"/><rect x="310" y="430" width="12" height="12" transform="rotate(0,316,436)"/><rect x="310" y="442" width="12" height="12" transform="rotate(0,316,448)"/><rect x="310" y="454" width="12" height="12" transform="rotate(0,316,460)"/><path d="M 322 34v 12h 6a 6 6, 0, 0, 0, 0 -12" transform="rotate(0,328,40)"/><rect x="322" y="58" width="12" height="12" transform="rotate(0,328,64)"/><rect x="322" y="94" width="12" height="12" transform="rotate(0,328,100)"/><rect x="322" y="106" width="12" height="12" transform="rotate(0,328,112)"/><rect x="322" y="118" width="12" height="12" transform="rotate(0,328,124)"/><rect x="322" y="154" width="12" height="12" transform="rotate(0,328,160)"/><rect x="322" y="166" width="12" height="12" transform="rotate(0,328,172)"/><rect x="322" y="178" width="12" height="12" transform="rotate(0,328,184)"/><path d="M 322 190v 12h 12a 12 12, 0, 0, 0, -12 -12" transform="rotate(180,328,196)"/><path d="M 322 214v 12h 6a 6 6, 0, 0, 0, 0 -12" transform="rotate(-90,328,220)"/><path d="M 322 226v 12h 6a 6 6, 0, 0, 0, 0 -12" transform="rotate(90,328,232)"/><circle cx="328" cy="292" r="6" transform="rotate(0,328,292)"/><circle cx="328" cy="316" r="6" transform="rotate(0,328,316)"/><path d="M 322 334v 12h 6a 6 6, 0, 0, 0, 0 -12" transform="rotate(0,328,340)"/><path d="M 322 370v 12h 6a 6 6, 0, 0, 0, 0 -12" transform="rotate(-90,328,376)"/><rect x="322" y="382" width="12" height="12" transform="rotate(0,328,388)"/><rect x="322" y="394" width="12" height="12" transform="rotate(0,328,400)"/><rect x="322" y="406" width="12" height="12" transform="rotate(0,328,412)"/><rect x="322" y="418" width="12" height="12" transform="rotate(0,328,424)"/><path d="M 322 442v 12h 12a 12 12, 0, 0, 0, -12 -12" transform="rotate(0,328,448)"/><rect x="322" y="454" width="12" height="12" transform="rotate(0,328,460)"/><rect x="334" y="58" width="12" height="12" transform="rotate(0,340,64)"/><path d="M 334 70v 12h 6a 6 6, 0, 0, 0, 0 -12" transform="rotate(90,340,76)"/><rect x="334" y="94" width="12" height="12" transform="rotate(0,340,100)"/><path d="M 334 118v 12h 6a 6 6, 0, 0, 0, 0 -12" transform="rotate(0,340,124)"/><path d="M 334 142v 12h 12a 12 12, 0, 0, 0, -12 -12" transform="rotate(-90,340,148)"/><rect x="334" y="154" width="12" height="12" transform="rotate(0,340,160)"/><rect x="334" y="166" width="12" height="12" transform="rotate(0,340,172)"/><rect x="334" y="178" width="12" height="12" transform="rotate(0,340,184)"/><path d="M 334 190v 12h 12a 12 12, 0, 0, 0, -12 -12" transform="rotate(90,340,196)"/><path d="M 334 238v 12h 6a 6 6, 0, 0, 0, 0 -12" transform="rotate(180,340,244)"/><circle cx="340" cy="364" r="6" transform="rotate(0,340,364)"/><rect x="334" y="382" width="12" height="12" transform="rotate(0,340,388)"/><path d="M 334 394v 12h 12a 12 12, 0, 0, 0, -12 -12" transform="rotate(90,340,400)"/><path d="M 334 418v 12h 12a 12 12, 0, 0, 0, -12 -12" transform="rotate(0,340,424)"/><path d="M 334 430v 12h 12a 12 12, 0, 0, 0, -12 -12" transform="rotate(180,340,436)"/><rect x="334" y="454" width="12" height="12" transform="rotate(0,340,460)"/><path d="M 334 466v 12h 6a 6 6, 0, 0, 0, 0 -12" transform="rotate(90,340,472)"/><path d="M 346 46v 12h 6a 6 6, 0, 0, 0, 0 -12" transform="rotate(-90,352,52)"/><rect x="346" y="58" width="12" height="12" transform="rotate(0,352,64)"/><path d="M 346 82v 12h 6a 6 6, 0, 0, 0, 0 -12" transform="rotate(-90,352,88)"/><rect x="346" y="94" width="12" height="12" transform="rotate(0,352,100)"/><path d="M 346 106v 12h 6a 6 6, 0, 0, 0, 0 -12" transform="rotate(90,352,112)"/><path d="M 346 142v 12h 6a 6 6, 0, 0, 0, 0 -12" transform="rotate(0,352,148)"/><rect x="346" y="178" width="12" height="12" transform="rotate(0,352,184)"/><path d="M 346 238v 12h 6a 6 6, 0, 0, 0, 0 -12" transform="rotate(0,352,244)"/><path d="M 346 298v 12h 6a 6 6, 0, 0, 0, 0 -12" transform="rotate(180,352,304)"/><rect x="346" y="382" width="12" height="12" transform="rotate(0,352,388)"/><path d="M 346 406v 12h 6a 6 6, 0, 0, 0, 0 -12" transform="rotate(180,352,412)"/><rect x="346" y="430" width="12" height="12" transform="rotate(0,352,436)"/><rect x="346" y="442" width="12" height="12" transform="rotate(0,352,448)"/><path d="M 346 454v 12h 12a 12 12, 0, 0, 0, -12 -12" transform="rotate(90,352,460)"/><circle cx="364" cy="40" r="6" transform="rotate(0,364,40)"/><path d="M 358 58v 12h 12a 12 12, 0, 0, 0, -12 -12" transform="rotate(0,364,64)"/><path d="M 358 70v 12h 12a 12 12, 0, 0, 0, -12 -12" transform="rotate(180,364,76)"/><path d="M 358 130v 12h 6a 6 6, 0, 0, 0, 0 -12" transform="rotate(180,364,136)"/><path d="M 358 166v 12h 6a 6 6, 0, 0, 0, 0 -12" transform="rotate(-90,364,172)"/><rect x="358" y="178" width="12" height="12" transform="rotate(0,364,184)"/><rect x="358" y="190" width="12" height="12" transform="rotate(0,364,196)"/><rect x="358" y="202" width="12" height="12" transform="rotate(0,364,208)"/><path d="M 358 214v 12h 6a 6 6, 0, 0, 0, 0 -12" transform="rotate(90,364,220)"/><path d="M 358 250v 12h 6a 6 6, 0, 0, 0, 0 -12" transform="rotate(-90,364,256)"/><rect x="358" y="262" width="12" height="12" transform="rotate(0,364,268)"/><rect x="358" y="274" width="12" height="12" transform="rotate(0,364,280)"/><rect x="358" y="286" width="12" height="12" transform="rotate(0,364,292)"/><rect x="358" y="298" width="12" height="12" transform="rotate(0,364,304)"/><path d="M 358 310v 12h 12a 12 12, 0, 0, 0, -12 -12" transform="rotate(180,364,316)"/><circle cx="364" cy="364" r="6" transform="rotate(0,364,364)"/><rect x="358" y="382" width="12" height="12" transform="rotate(0,364,388)"/><rect x="358" y="394" width="12" height="12" transform="rotate(0,364,400)"/><rect x="358" y="406" width="12" height="12" transform="rotate(0,364,412)"/><path d="M 358 430v 12h 6a 6 6, 0, 0, 0, 0 -12" transform="rotate(0,364,436)"/><path d="M 370 70v 12h 6a 6 6, 0, 0, 0, 0 -12" transform="rotate(0,376,76)"/><path d="M 370 94v 12h 6a 6 6, 0, 0, 0, 0 -12" transform="rotate(-90,376,100)"/><rect x="370" y="106" width="12" height="12" transform="rotate(0,376,112)"/><rect x="370" y="118" width="12" height="12" transform="rotate(0,376,124)"/><rect x="370" y="130" width="12" height="12" transform="rotate(0,376,136)"/><rect x="370" y="178" width="12" height="12" transform="rotate(0,376,184)"/><path d="M 370 190v 12h 12a 12 12, 0, 0, 0, -12 -12" transform="rotate(90,376,196)"/><path d="M 370 262v 12h 12a 12 12, 0, 0, 0, -12 -12" transform="rotate(0,376,268)"/><rect x="370" y="274" width="12" height="12" transform="rotate(0,376,280)"/><rect x="370" y="286" width="12" height="12" transform="rotate(0,376,292)"/><rect x="370" y="298" width="12" height="12" transform="rotate(0,376,304)"/><rect x="370" y="310" width="12" height="12" transform="rotate(0,376,316)"/><path d="M 370 334v 12h 6a 6 6, 0, 0, 0, 0 -12" transform="rotate(180,376,340)"/><path d="M 370 370v 12h 12a 12 12, 0, 0, 0, -12 -12" transform="rotate(-90,376,376)"/><rect x="370" y="382" width="12" height="12" transform="rotate(0,376,388)"/><rect x="370" y="394" width="12" height="12" transform="rotate(0,376,400)"/><rect x="370" y="406" width="12" height="12" transform="rotate(0,376,412)"/><path d="M 370 418v 12h 12a 12 12, 0, 0, 0, -12 -12" transform="rotate(180,376,424)"/><path d="M 370 442v 12h 6a 6 6, 0, 0, 0, 0 -12" transform="rotate(180,376,448)"/><rect x="382" y="130" width="12" height="12" transform="rotate(0,388,136)"/><rect x="382" y="178" width="12" height="12" transform="rotate(0,388,184)"/><path d="M 382 202v 12h 12a 12 12, 0, 0, 0, -12 -12" transform="rotate(-90,388,208)"/><path d="M 382 214v 12h 12a 12 12, 0, 0, 0, -12 -12" transform="rotate(180,388,220)"/><path d="M 382 250v 12h 6a 6 6, 0, 0, 0, 0 -12" transform="rotate(180,388,256)"/><rect x="382" y="274" width="12" height="12" transform="rotate(0,388,280)"/><rect x="382" y="286" width="12" height="12" transform="rotate(0,388,292)"/><rect x="382" y="298" width="12" height="12" transform="rotate(0,388,304)"/><rect x="382" y="310" width="12" height="12" transform="rotate(0,388,316)"/><rect x="382" y="322" width="12" height="12" transform="rotate(0,388,328)"/><path d="M 382 334v 12h 12a 12 12, 0, 0, 0, -12 -12" transform="rotate(90,388,340)"/><rect x="382" y="370" width="12" height="12" transform="rotate(0,388,376)"/><rect x="382" y="418" width="12" height="12" transform="rotate(0,388,424)"/><rect x="382" y="442" width="12" height="12" transform="rotate(0,388,448)"/><path d="M 382 466v 12h 6a 6 6, 0, 0, 0, 0 -12" transform="rotate(180,388,472)"/><rect x="394" y="130" width="12" height="12" transform="rotate(0,400,136)"/><path d="M 394 154v 12h 12a 12 12, 0, 0, 0, -12 -12" transform="rotate(-90,400,160)"/><rect x="394" y="166" width="12" height="12" transform="rotate(0,400,172)"/><rect x="394" y="178" width="12" height="12" transform="rotate(0,400,184)"/><rect x="394" y="190" width="12" height="12" transform="rotate(0,400,196)"/><rect x="394" y="202" width="12" height="12" transform="rotate(0,400,208)"/><rect x="394" y="214" width="12" height="12" transform="rotate(0,400,220)"/><rect x="394" y="250" width="12" height="12" transform="rotate(0,400,256)"/><rect x="394" y="274" width="12" height="12" transform="rotate(0,400,280)"/><path d="M 394 298v 12h 6a 6 6, 0, 0, 0, 0 -12" transform="rotate(0,400,304)"/><rect x="394" y="370" width="12" height="12" transform="rotate(0,400,376)"/><circle cx="400" cy="400" r="6" transform="rotate(0,400,400)"/><rect x="394" y="418" width="12" height="12" transform="rotate(0,400,424)"/><path d="M 394 442v 12h 6a 6 6, 0, 0, 0, 0 -12" transform="rotate(0,400,448)"/><path d="M 394 466v 12h 6a 6 6, 0, 0, 0, 0 -12" transform="rotate(0,400,472)"/><path d="M 406 130v 12h 12a 12 12, 0, 0, 0, -12 -12" transform="rotate(0,412,136)"/><rect x="406" y="142" width="12" height="12" transform="rotate(0,412,148)"/><rect x="406" y="154" width="12" height="12" transform="rotate(0,412,160)"/><rect x="406" y="166" width="12" height="12" transform="rotate(0,412,172)"/><path d="M 406 178v 12h 12a 12 12, 0, 0, 0, -12 -12" transform="rotate(90,412,184)"/><rect x="406" y="202" width="12" height="12" transform="rotate(0,412,208)"/><path d="M 406 214v 12h 12a 12 12, 0, 0, 0, -12 -12" transform="rotate(90,412,220)"/><path d="M 406 238v 12h 6a 6 6, 0, 0, 0, 0 -12" transform="rotate(-90,412,244)"/><rect x="406" y="250" width="12" height="12" transform="rotate(0,412,256)"/><rect x="406" y="262" width="12" height="12" transform="rotate(0,412,268)"/><rect x="406" y="274" width="12" height="12" transform="rotate(0,412,280)"/><path d="M 406 286v 12h 6a 6 6, 0, 0, 0, 0 -12" transform="rotate(90,412,292)"/><path d="M 406 310v 12h 6a 6 6, 0, 0, 0, 0 -12" transform="rotate(-90,412,316)"/><path d="M 406 322v 12h 6a 6 6, 0, 0, 0, 0 -12" transform="rotate(90,412,328)"/><rect x="406" y="370" width="12" height="12" transform="rotate(0,412,376)"/><rect x="406" y="418" width="12" height="12" transform="rotate(0,412,424)"/><path d="M 406 454v 12h 6a 6 6, 0, 0, 0, 0 -12" transform="rotate(180,412,460)"/><rect x="418" y="154" width="12" height="12" transform="rotate(0,424,160)"/><rect x="418" y="166" width="12" height="12" transform="rotate(0,424,172)"/><path d="M 418 190v 12h 6a 6 6, 0, 0, 0, 0 -12" transform="rotate(-90,424,196)"/><path d="M 418 202v 12h 12a 12 12, 0, 0, 0, -12 -12" transform="rotate(90,424,208)"/><path d="M 418 226v 12h 6a 6 6, 0, 0, 0, 0 -12" transform="rotate(180,424,232)"/><path d="M 418 262v 12h 12a 12 12, 0, 0, 0, -12 -12" transform="rotate(0,424,268)"/><path d="M 418 274v 12h 12a 12 12, 0, 0, 0, -12 -12" transform="rotate(90,424,280)"/><circle cx="424" cy="352" r="6" transform="rotate(0,424,352)"/><path d="M 418 370v 12h 12a 12 12, 0, 0, 0, -12 -12" transform="rotate(0,424,376)"/><rect x="418" y="382" width="12" height="12" transform="rotate(0,424,388)"/><rect x="418" y="394" width="12" height="12" transform="rotate(0,424,400)"/><rect x="418" y="406" width="12" height="12" transform="rotate(0,424,412)"/><rect x="418" y="418" width="12" height="12" transform="rotate(0,424,424)"/><path d="M 418 430v 12h 6a 6 6, 0, 0, 0, 0 -12" transform="rotate(90,424,436)"/><path d="M 418 454v 12h 6a 6 6, 0, 0, 0, 0 -12" transform="rotate(0,424,460)"/><path d="M 430 130v 12h 12a 12 12, 0, 0, 0, -12 -12" transform="rotate(-90,436,136)"/><rect x="430" y="142" width="12" height="12" transform="rotate(0,436,148)"/><rect x="430" y="154" width="12" height="12" transform="rotate(0,436,160)"/><rect x="430" y="166" width="12" height="12" transform="rotate(0,436,172)"/><path d="M 430 178v 12h 12a 12 12, 0, 0, 0, -12 -12" transform="rotate(180,436,184)"/><path d="M 430 214v 12h 12a 12 12, 0, 0, 0, -12 -12" transform="rotate(-90,436,220)"/><path d="M 430 226v 12h 12a 12 12, 0, 0, 0, -12 -12" transform="rotate(90,436,232)"/><path d="M 430 286v 12h 6a 6 6, 0, 0, 0, 0 -12" transform="rotate(180,436,292)"/><path d="M 430 310v 12h 6a 6 6, 0, 0, 0, 0 -12" transform="rotate(180,436,316)"/><path d="M 430 358v 12h 6a 6 6, 0, 0, 0, 0 -12" transform="rotate(180,436,364)"/><rect x="430" y="382" width="12" height="12" transform="rotate(0,436,388)"/><rect x="430" y="394" width="12" height="12" transform="rotate(0,436,400)"/><rect x="430" y="418" width="12" height="12" transform="rotate(0,436,424)"/><circle cx="436" cy="448" r="6" transform="rotate(0,436,448)"/><circle cx="436" cy="472" r="6" transform="rotate(0,436,472)"/><path d="M 442 130v 12h 6a 6 6, 0, 0, 0, 0 -12" transform="rotate(0,448,136)"/><path d="M 442 178v 12h 6a 6 6, 0, 0, 0, 0 -12" transform="rotate(0,448,184)"/><path d="M 442 202v 12h 6a 6 6, 0, 0, 0, 0 -12" transform="rotate(-90,448,208)"/><rect x="442" y="214" width="12" height="12" transform="rotate(0,448,220)"/><path d="M 442 238v 12h 6a 6 6, 0, 0, 0, 0 -12" transform="rotate(-90,448,244)"/><path d="M 442 250v 12h 12a 12 12, 0, 0, 0, -12 -12" transform="rotate(180,448,256)"/><path d="M 442 286v 12h 6a 6 6, 0, 0, 0, 0 -12" transform="rotate(0,448,292)"/><path d="M 442 310v 12h 12a 12 12, 0, 0, 0, -12 -12" transform="rotate(0,448,316)"/><rect x="442" y="322" width="12" height="12" transform="rotate(0,448,328)"/><rect x="442" y="334" width="12" height="12" transform="rotate(0,448,340)"/><rect x="442" y="346" width="12" height="12" transform="rotate(0,448,352)"/><path d="M 442 358v 12h 12a 12 12, 0, 0, 0, -12 -12" transform="rotate(90,448,364)"/><path d="M 442 382v 12h 12a 12 12, 0, 0, 0, -12 -12" transform="rotate(0,448,388)"/><path d="M 442 394v 12h 12a 12 12, 0, 0, 0, -12 -12" transform="rotate(90,448,400)"/><rect x="442" y="418" width="12" height="12" transform="rotate(0,448,424)"/><path d="M 442 430v 12h 6a 6 6, 0, 0, 0, 0 -12" transform="rotate(90,448,436)"/><circle cx="460" cy="172" r="6" transform="rotate(0,460,172)"/><path d="M 454 190v 12h 6a 6 6, 0, 0, 0, 0 -12" transform="rotate(180,460,196)"/><path d="M 454 214v 12h 6a 6 6, 0, 0, 0, 0 -12" transform="rotate(0,460,220)"/><rect x="454" y="250" width="12" height="12" transform="rotate(0,460,256)"/><path d="M 454 262v 12h 6a 6 6, 0, 0, 0, 0 -12" transform="rotate(90,460,268)"/><rect x="454" y="334" width="12" height="12" transform="rotate(0,460,340)"/><rect x="454" y="346" width="12" height="12" transform="rotate(0,460,352)"/><path d="M 454 406v 12h 6a 6 6, 0, 0, 0, 0 -12" transform="rotate(-90,460,412)"/><rect x="454" y="418" width="12" height="12" transform="rotate(0,460,424)"/><path d="M 454 442v 12h 6a 6 6, 0, 0, 0, 0 -12" transform="rotate(180,460,448)"/><path d="M 466 130v 12h 6a 6 6, 0, 0, 0, 0 -12" transform="rotate(-90,472,136)"/><path d="M 466 142v 12h 6a 6 6, 0, 0, 0, 0 -12" transform="rotate(90,472,148)"/><path d="M 466 178v 12h 6a 6 6, 0, 0, 0, 0 -12" transform="rotate(-90,472,184)"/><rect x="466" y="190" width="12" height="12" transform="rotate(0,472,196)"/><path d="M 466 202v 12h 6a 6 6, 0, 0, 0, 0 -12" transform="rotate(90,472,208)"/><path d="M 466 226v 12h 6a 6 6, 0, 0, 0, 0 -12" transform="rotate(-90,472,232)"/><rect x="466" y="238" width="12" height="12" transform="rotate(0,472,244)"/><path d="M 466 250v 12h 12a 12 12, 0, 0, 0, -12 -12" transform="rotate(90,472,256)"/><circle cx="472" cy="304" r="6" transform="rotate(0,472,304)"/><path d="M 466 322v 12h 6a 6 6, 0, 0, 0, 0 -12" transform="rotate(-90,472,328)"/><rect x="466" y="334" width="12" height="12" transform="rotate(0,472,340)"/><path d="M 466 346v 12h 12a 12 12, 0, 0, 0, -12 -12" transform="rotate(90,472,352)"/><path d="M 466 418v 12h 6a 6 6, 0, 0, 0, 0 -12" transform="rotate(0,472,424)"/><path d="M 466 442v 12h 12a 12 12, 0, 0, 0, -12 -12" transform="rotate(0,472,448)"/><rect x="466" y="454" width="12" height="12" transform="rotate(0,472,460)"/><path d="M 466 466v 12h 6a 6 6, 0, 0, 0, 0 -12" transform="rotate(90,472,472)"/></clipPath><clipPath id="clip-path-corners-square-color-0-0"><path clip-rule="evenodd" d="M 34 64v 24a 30 30, 0, 0, 0, 30 30h 24a 30 30, 0, 0, 0, 30 -30v -24a 30 30, 0, 0, 0, -30 -30h -24a 30 30, 0, 0, 0, -30 30M 64 46h 24a 18 18, 0, 0, 1, 18 18v 24a 18 18, 0, 0, 1, -18 18h -24a 18 18, 0, 0, 1, -18 -18v -24a 18 18, 0, 0, 1, 18 -18" transform="rotate(0,76,76)"/></clipPath><clipPath id="clip-path-corners-dot-color-0-0"><path d="m 58 58 m 25.714 36 h -15.429 c -5.683 0 -10.286 -4.603 -10.286 -10.286 v -15.429 c 0 -5.683 4.603 -10.286 10.286 -10.286 h 15.429 c 5.683 0 10.286 4.603 10.286 10.286 v 15.429 c 0 5.683 -4.603 10.286 -10.286 10.286 z"/></clipPath><clipPath id="clip-path-corners-square-color-1-0"><path clip-rule="evenodd" d="M 394 64v 24a 30 30, 0, 0, 0, 30 30h 24a 30 30, 0, 0, 0, 30 -30v -24a 30 30, 0, 0, 0, -30 -30h -24a 30 30, 0, 0, 0, -30 30M 424 46h 24a 18 18, 0, 0, 1, 18 18v 24a 18 18, 0, 0, 1, -18 18h -24a 18 18, 0, 0, 1, -18 -18v -24a 18 18, 0, 0, 1, 18 -18" transform="rotate(90,436,76)"/></clipPath><clipPath id="clip-path-corners-dot-color-1-0"><path d="m 418 58 m 25.714 36 h -15.429 c -5.683 0 -10.286 -4.603 -10.286 -10.286 v -15.429 c 0 -5.683 4.603 -10.286 10.286 -10.286 h 15.429 c 5.683 0 10.286 4.603 10.286 10.286 v 15.429 c 0 5.683 -4.603 10.286 -10.286 10.286 z"/></clipPath><clipPath id="clip-path-corners-square-color-0-1"><path clip-rule="evenodd" d="M 34 424v 24a 30 30, 0, 0, 0, 30 30h 24a 30 30, 0, 0, 0, 30 -30v -24a 30 30, 0, 0, 0, -30 -30h -24a 30 30, 0, 0, 0, -30 30M 64 406h 24a 18 18, 0, 0, 1, 18 18v 24a 18 18, 0, 0, 1, -18 18h -24a 18 18, 0, 0, 1, -18 -18v -24a 18 18, 0, 0, 1, 18 -18" transform="rotate(-90,76,436)"/></clipPath><clipPath id="clip-path-corners-dot-color-0-1"><path d="m 58 418 m 25.714 36 h -15.429 c -5.683 0 -10.286 -4.603 -10.286 -10.286 v -15.429 c 0 -5.683 4.603 -10.286 10.286 -10.286 h 15.429 c 5.683 0 10.286 4.603 10.286 10.286 v 15.429 c 0 5.683 -4.603 10.286 -10.286 10.286 z"/></clipPath></defs><rect x="0" y="0" height="512" width="512" clip-path="url('#clip-path-background-color')" fill="#ffffff"/><rect x="34" y="34" height="444" width="444" clip-path="url('#clip-path-dot-color')" fill="#000000"/><rect x="34" y="34" height="84" width="84" clip-path="url('#clip-path-corners-square-color-0-0')" fill="#000000"/><rect x="58" y="58" height="36" width="36" clip-path="url('#clip-path-corners-dot-color-0-0')" fill="#000000"/><rect x="394" y="34" height="84" width="84" clip-path="url('#clip-path-corners-square-color-1-0')" fill="#000000"/><rect x="418" y="58" height="36" width="36" clip-path="url('#clip-path-corners-dot-color-1-0')" fill="#000000"/><rect x="34" y="394" height="84" width="84" clip-path="url('#clip-path-corners-square-color-0-1')" fill="#000000"/><rect x="58" y="418" height="36" width="36" clip-path="url('#clip-path-corners-dot-color-0-1')" fill="#000000"/><svg xmlns="http://www.w3.org/2000/svg" fill="none" viewBox="0 0 64 64" height="108px" width="108px" x="202" y="202"><path fill="#0d34b4" d="M26.742 63.794V42.065c0-2.315.525-4.51 1.462-6.475a15 15 0 0 1-6.476 1.46L0 37.053V26.947h21.728a5 5 0 0 0 3.535-1.478 5 5 0 0 0 1.479-3.535V.206h10.104v21.728c0 2.314-.526 4.51-1.462 6.474a15 15 0 0 1 6.475-1.46h21.729v10.104H41.859c-1.37 0-2.624.566-3.535 1.477a5 5 0 0 0-1.477 3.537v21.728z" clip-rule="evenodd" fill-rule="evenodd"/><path fill="url(#a)" d="m12.886 5.945 15.363 15.364c2.934 2.933 4.401 6.805 4.402 10.677v.028c0 3.872-1.468 7.744-4.402 10.677L12.886 58.055l-7.147-7.147 15.364-15.363A5.02 5.02 0 0 0 22.573 32a5.02 5.02 0 0 0-1.47-3.544L5.739 13.092z" clip-rule="evenodd" fill-rule="evenodd"/><path fill="url(#b)" d="M25.827 24.938a14.84 14.84 0 0 1-6.183 12.064l-.05.05L5.74 50.91l7.146 7.146L26.742 44.2l1.508-1.508a14.94 14.94 0 0 0 3.544-5.634 15.2 15.2 0 0 0 .857-5.045v-.026c0-1.71-.285-3.418-.857-5.045a14.94 14.94 0 0 0-3.544-5.634L26.74 19.8l-4.27-4.27a14.8 14.8 0 0 1 3.356 9.408" clip-rule="evenodd" fill-rule="evenodd"/><path fill="url(#c)" d="M25.827 24.938a14.84 14.84 0 0 1-6.183 12.064l-.05.05L5.74 50.91l7.146 7.146L26.742 44.2l1.508-1.508a14.94 14.94 0 0 0 3.544-5.634 15.2 15.2 0 0 0 .857-5.045v-.026c0-1.71-.285-3.418-.857-5.045a14.94 14.94 0 0 0-3.544-5.634L26.74 19.8l-4.27-4.27a14.8 14.8 0 0 1 3.356 9.408" clip-rule="evenodd" fill-rule="evenodd"/><path fill="url(#d)" d="m39.396 46.75 11.306 11.306 7.147-7.148-15.364-15.363A5.02 5.02 0 0 1 41.014 32a5.02 5.02 0 0 1 1.471-3.544l1.457-1.457a14.84 14.84 0 0 0-6.18 12.199 14.8 14.8 0 0 0 3.355 9.273z" clip-rule="evenodd" fill-rule="evenodd"/><path fill="url(#e)" d="M37.761 39.062a14.84 14.84 0 0 1 6.183-12.065l.05-.05 13.855-13.856-7.146-7.146L36.846 19.8l-1.508 1.508a14.9 14.9 0 0 0-3.544 5.634 15.2 15.2 0 0 0-.858 5.044v.027c0 1.709.286 3.417.858 5.045a14.94 14.94 0 0 0 3.544 5.634l1.509 1.508 4.27 4.27a14.8 14.8 0 0 1-3.355-9.273z" clip-rule="evenodd" fill-rule="evenodd"/><defs><linearGradient gradientUnits="userSpaceOnUse" y2="41.276" x2="26.724" y1="12.794" x1="1.07" id="a"><stop stop-color="#008bff"/><stop stop-color="#5fffec" offset="1"/></linearGradient><linearGradient gradientUnits="userSpaceOnUse" y2="17.775" x2="28.426" y1="43.443" x1="5.169" id="b"><stop stop-color="#008bff"/><stop stop-color="#5fffec" offset="1"/></linearGradient><linearGradient gradientUnits="userSpaceOnUse" y2="17.775" x2="28.426" y1="43.443" x1="5.169" id="c"><stop stop-color="#5fffec"/><stop stop-color="#008bff" offset="1"/></linearGradient><linearGradient gradientUnits="userSpaceOnUse" y2="57.293" x2="46.851" y1="30.864" x1="39.743" id="d"><stop stop-color="#5fffec"/><stop stop-color="#008bff" offset="1"/></linearGradient><linearGradient gradientUnits="userSpaceOnUse" y2="8.19" x2="53.623" y1="33.859" x1="30.366" id="e"><stop stop-color="#008bff"/><stop stop-color="#5fffec" offset="1"/></linearGradient></defs></svg></svg>