<?xml version="1.0" standalone="no"?>
<svg xmlns="http://www.w3.org/2000/svg" width="1024" height="1024" viewBox="0 0 1024 1024"><defs><clipPath id="clip-path-dot-color"><path d="M 68 260v 24h 12a 12 12, 0, 0, 0, 0 -24" transform="rotate(180,80,272)"/><path d="M 68 308v 24h 24v -12a 12 12, 0, 0, 0, -12 -12" transform="rotate(-90,80,320)"/><rect x="68" y="332" width="24" height="24" transform="rotate(0,80,344)"/><path d="M 68 356v 24h 12a 12 12, 0, 0, 0, 0 -24" transform="rotate(90,80,368)"/><path d="M 68 404v 24h 24v -12a 12 12, 0, 0, 0, -12 -12" transform="rotate(-90,80,416)"/><path d="M 68 428v 24h 12a 12 12, 0, 0, 0, 0 -24" transform="rotate(90,80,440)"/><path d="M 68 476v 24h 24v -12a 12 12, 0, 0, 0, -12 -12" transform="rotate(-90,80,488)"/><rect x="68" y="500" width="24" height="24" transform="rotate(0,80,512)"/><path d="M 68 524v 24h 12a 12 12, 0, 0, 0, 0 -24" transform="rotate(90,80,536)"/><path d="M 68 572v 24h 12a 12 12, 0, 0, 0, 0 -24" transform="rotate(-90,80,584)"/><path d="M 68 596v 24h 12a 12 12, 0, 0, 0, 0 -24" transform="rotate(90,80,608)"/><circle cx="80" cy="704" r="12" transform="rotate(0,80,704)"/><path d="M 68 740v 24h 12a 12 12, 0, 0, 0, 0 -24" transform="rotate(180,80,752)"/><rect x="92" y="260" width="24" height="24" transform="rotate(0,104,272)"/><rect x="92" y="284" width="24" height="24" transform="rotate(0,104,296)"/><rect x="92" y="308" width="24" height="24" transform="rotate(0,104,320)"/><path d="M 92 404v 24h 12a 12 12, 0, 0, 0, 0 -24" transform="rotate(0,104,416)"/><path d="M 92 452v 24h 12a 12 12, 0, 0, 0, 0 -24" transform="rotate(-90,104,464)"/><rect x="92" y="476" width="24" height="24" transform="rotate(0,104,488)"/><path d="M 92 500v 24h 24v -12a 12 12, 0, 0, 0, -12 -12" transform="rotate(90,104,512)"/><path d="M 92 548v 24h 12a 12 12, 0, 0, 0, 0 -24" transform="rotate(180,104,560)"/><path d="M 92 740v 24h 12a 12 12, 0, 0, 0, 0 -24" transform="rotate(0,104,752)"/><path d="M 116 260v 24h 12a 12 12, 0, 0, 0, 0 -24" transform="rotate(0,128,272)"/><rect x="116" y="308" width="24" height="24" transform="rotate(0,128,320)"/><path d="M 116 332v 24h 24v -12a 12 12, 0, 0, 0, -12 -12" transform="rotate(180,128,344)"/><circle cx="128" cy="440" r="12" transform="rotate(0,128,440)"/><path d="M 116 548v 24h 24v -12a 12 12, 0, 0, 0, -12 -12" transform="rotate(0,128,560)"/><rect x="116" y="572" width="24" height="24" transform="rotate(0,128,584)"/><rect x="116" y="596" width="24" height="24" transform="rotate(0,128,608)"/><path d="M 116 620v 24h 12a 12 12, 0, 0, 0, 0 -24" transform="rotate(90,128,632)"/><path d="M 116 668v 24h 12a 12 12, 0, 0, 0, 0 -24" transform="rotate(180,128,680)"/><circle cx="128" cy="728" r="12" transform="rotate(0,128,728)"/><path d="M 140 284v 24h 24v -12a 12 12, 0, 0, 0, -12 -12" transform="rotate(-90,152,296)"/><rect x="140" y="308" width="24" height="24" transform="rotate(0,152,320)"/><path d="M 140 332v 24h 24v -12a 12 12, 0, 0, 0, -12 -12" transform="rotate(90,152,344)"/><path d="M 140 476v 24h 24v -12a 12 12, 0, 0, 0, -12 -12" transform="rotate(-90,152,488)"/><rect x="140" y="500" width="24" height="24" transform="rotate(0,152,512)"/><path d="M 140 524v 24h 24v -12a 12 12, 0, 0, 0, -12 -12" transform="rotate(180,152,536)"/><rect x="140" y="572" width="24" height="24" transform="rotate(0,152,584)"/><rect x="140" y="668" width="24" height="24" transform="rotate(0,152,680)"/><circle cx="152" cy="752" r="12" transform="rotate(0,152,752)"/><path d="M 164 260v 24h 12a 12 12, 0, 0, 0, 0 -24" transform="rotate(-90,176,272)"/><rect x="164" y="284" width="24" height="24" transform="rotate(0,176,296)"/><path d="M 164 308v 24h 24v -12a 12 12, 0, 0, 0, -12 -12" transform="rotate(90,176,320)"/><circle cx="176" cy="368" r="12" transform="rotate(0,176,368)"/><path d="M 164 404v 24h 24v -12a 12 12, 0, 0, 0, -12 -12" transform="rotate(-90,176,416)"/><rect x="164" y="428" width="24" height="24" transform="rotate(0,176,440)"/><rect x="164" y="452" width="24" height="24" transform="rotate(0,176,464)"/><rect x="164" y="476" width="24" height="24" transform="rotate(0,176,488)"/><rect x="164" y="500" width="24" height="24" transform="rotate(0,176,512)"/><path d="M 164 524v 24h 24v -12a 12 12, 0, 0, 0, -12 -12" transform="rotate(90,176,536)"/><rect x="164" y="572" width="24" height="24" transform="rotate(0,176,584)"/><path d="M 164 596v 24h 24v -12a 12 12, 0, 0, 0, -12 -12" transform="rotate(180,176,608)"/><path d="M 164 668v 24h 12a 12 12, 0, 0, 0, 0 -24" transform="rotate(0,176,680)"/><path d="M 188 284v 24h 12a 12 12, 0, 0, 0, 0 -24" transform="rotate(0,200,296)"/><rect x="188" y="404" width="24" height="24" transform="rotate(0,200,416)"/><rect x="188" y="428" width="24" height="24" transform="rotate(0,200,440)"/><rect x="188" y="452" width="24" height="24" transform="rotate(0,200,464)"/><rect x="188" y="476" width="24" height="24" transform="rotate(0,200,488)"/><rect x="188" y="500" width="24" height="24" transform="rotate(0,200,512)"/><path d="M 188 548v 24h 24v -12a 12 12, 0, 0, 0, -12 -12" transform="rotate(-90,200,560)"/><rect x="188" y="572" width="24" height="24" transform="rotate(0,200,584)"/><rect x="188" y="596" width="24" height="24" transform="rotate(0,200,608)"/><path d="M 188 620v 24h 12a 12 12, 0, 0, 0, 0 -24" transform="rotate(90,200,632)"/><path d="M 188 692v 24h 12a 12 12, 0, 0, 0, 0 -24" transform="rotate(180,200,704)"/><path d="M 188 740v 24h 12a 12 12, 0, 0, 0, 0 -24" transform="rotate(180,200,752)"/><circle cx="224" cy="272" r="12" transform="rotate(0,224,272)"/><circle cx="224" cy="320" r="12" transform="rotate(0,224,320)"/><path d="M 212 356v 24h 12a 12 12, 0, 0, 0, 0 -24" transform="rotate(180,224,368)"/><path d="M 212 404v 24h 12a 12 12, 0, 0, 0, 0 -24" transform="rotate(0,224,416)"/><rect x="212" y="452" width="24" height="24" transform="rotate(0,224,464)"/><path d="M 212 500v 24h 12a 12 12, 0, 0, 0, 0 -24" transform="rotate(0,224,512)"/><rect x="212" y="548" width="24" height="24" transform="rotate(0,224,560)"/><path d="M 212 596v 24h 12a 12 12, 0, 0, 0, 0 -24" transform="rotate(0,224,608)"/><path d="M 212 644v 24h 12a 12 12, 0, 0, 0, 0 -24" transform="rotate(180,224,656)"/><path d="M 212 692v 24h 12a 12 12, 0, 0, 0, 0 -24" transform="rotate(0,224,704)"/><path d="M 212 740v 24h 12a 12 12, 0, 0, 0, 0 -24" transform="rotate(0,224,752)"/><path d="M 236 356v 24h 24v -12a 12 12, 0, 0, 0, -12 -12" transform="rotate(0,248,368)"/><path d="M 236 380v 24h 12a 12 12, 0, 0, 0, 0 -24" transform="rotate(90,248,392)"/><path d="M 236 428v 24h 24v -12a 12 12, 0, 0, 0, -12 -12" transform="rotate(-90,248,440)"/><rect x="236" y="452" width="24" height="24" transform="rotate(0,248,464)"/><rect x="236" y="548" width="24" height="24" transform="rotate(0,248,560)"/><path d="M 236 644v 24h 24v -12a 12 12, 0, 0, 0, -12 -12" transform="rotate(0,248,656)"/><path d="M 236 668v 24h 12a 12 12, 0, 0, 0, 0 -24" transform="rotate(90,248,680)"/><circle cx="248" cy="728" r="12" transform="rotate(0,248,728)"/><circle cx="272" cy="80" r="12" transform="rotate(0,272,80)"/><path d="M 260 140v 24h 12a 12 12, 0, 0, 0, 0 -24" transform="rotate(-90,272,152)"/><rect x="260" y="164" width="24" height="24" transform="rotate(0,272,176)"/><rect x="260" y="188" width="24" height="24" transform="rotate(0,272,200)"/><rect x="260" y="212" width="24" height="24" transform="rotate(0,272,224)"/><rect x="260" y="236" width="24" height="24" transform="rotate(0,272,248)"/><path d="M 260 260v 24h 12a 12 12, 0, 0, 0, 0 -24" transform="rotate(90,272,272)"/><circle cx="272" cy="344" r="12" transform="rotate(0,272,344)"/><path d="M 260 428v 24h 24v -12a 12 12, 0, 0, 0, -12 -12" transform="rotate(0,272,440)"/><path d="M 260 452v 24h 24v -12a 12 12, 0, 0, 0, -12 -12" transform="rotate(90,272,464)"/><path d="M 260 500v 24h 12a 12 12, 0, 0, 0, 0 -24" transform="rotate(-90,272,512)"/><rect x="260" y="524" width="24" height="24" transform="rotate(0,272,536)"/><rect x="260" y="548" width="24" height="24" transform="rotate(0,272,560)"/><path d="M 260 692v 24h 12a 12 12, 0, 0, 0, 0 -24" transform="rotate(180,272,704)"/><path d="M 260 764v 24h 12a 12 12, 0, 0, 0, 0 -24" transform="rotate(180,272,776)"/><path d="M 260 836v 24h 12a 12 12, 0, 0, 0, 0 -24" transform="rotate(180,272,848)"/><path d="M 260 884v 24h 24v -12a 12 12, 0, 0, 0, -12 -12" transform="rotate(-90,272,896)"/><rect x="260" y="908" width="24" height="24" transform="rotate(0,272,920)"/><path d="M 260 932v 24h 12a 12 12, 0, 0, 0, 0 -24" transform="rotate(90,272,944)"/><circle cx="296" cy="128" r="12" transform="rotate(0,296,128)"/><rect x="284" y="164" width="24" height="24" transform="rotate(0,296,176)"/><rect x="284" y="236" width="24" height="24" transform="rotate(0,296,248)"/><path d="M 284 284v 24h 12a 12 12, 0, 0, 0, 0 -24" transform="rotate(180,296,296)"/><circle cx="296" cy="368" r="12" transform="rotate(0,296,368)"/><path d="M 284 404v 24h 12a 12 12, 0, 0, 0, 0 -24" transform="rotate(180,296,416)"/><circle cx="296" cy="488" r="12" transform="rotate(0,296,488)"/><path d="M 284 548v 24h 12a 12 12, 0, 0, 0, 0 -24" transform="rotate(0,296,560)"/><path d="M 284 596v 24h 12a 12 12, 0, 0, 0, 0 -24" transform="rotate(-90,296,608)"/><rect x="284" y="620" width="24" height="24" transform="rotate(0,296,632)"/><path d="M 284 644v 24h 24v -12a 12 12, 0, 0, 0, -12 -12" transform="rotate(180,296,656)"/><path d="M 284 692v 24h 24v -12a 12 12, 0, 0, 0, -12 -12" transform="rotate(0,296,704)"/><rect x="284" y="716" width="24" height="24" transform="rotate(0,296,728)"/><rect x="284" y="740" width="24" height="24" transform="rotate(0,296,752)"/><path d="M 284 764v 24h 24v -12a 12 12, 0, 0, 0, -12 -12" transform="rotate(90,296,776)"/><rect x="284" y="836" width="24" height="24" transform="rotate(0,296,848)"/><path d="M 284 884v 24h 24v -12a 12 12, 0, 0, 0, -12 -12" transform="rotate(0,296,896)"/><path d="M 284 908v 24h 24v -12a 12 12, 0, 0, 0, -12 -12" transform="rotate(90,296,920)"/><path d="M 308 68v 24h 12a 12 12, 0, 0, 0, 0 -24" transform="rotate(180,320,80)"/><path d="M 308 140v 24h 12a 12 12, 0, 0, 0, 0 -24" transform="rotate(-90,320,152)"/><rect x="308" y="164" width="24" height="24" transform="rotate(0,320,176)"/><rect x="308" y="188" width="24" height="24" transform="rotate(0,320,200)"/><rect x="308" y="212" width="24" height="24" transform="rotate(0,320,224)"/><path d="M 308 236v 24h 24v -12a 12 12, 0, 0, 0, -12 -12" transform="rotate(90,320,248)"/><path d="M 308 284v 24h 24v -12a 12 12, 0, 0, 0, -12 -12" transform="rotate(0,320,296)"/><path d="M 308 308v 24h 12a 12 12, 0, 0, 0, 0 -24" transform="rotate(90,320,320)"/><path d="M 308 380v 24h 24v -12a 12 12, 0, 0, 0, -12 -12" transform="rotate(-90,320,392)"/><rect x="308" y="404" width="24" height="24" transform="rotate(0,320,416)"/><circle cx="320" cy="584" r="12" transform="rotate(0,320,584)"/><path d="M 308 620v 24h 24v -12a 12 12, 0, 0, 0, -12 -12" transform="rotate(0,320,632)"/><rect x="308" y="644" width="24" height="24" transform="rotate(0,320,656)"/><path d="M 308 668v 24h 12a 12 12, 0, 0, 0, 0 -24" transform="rotate(90,320,680)"/><path d="M 308 716v 24h 12a 12 12, 0, 0, 0, 0 -24" transform="rotate(0,320,728)"/><path d="M 308 788v 24h 24v -12a 12 12, 0, 0, 0, -12 -12" transform="rotate(-90,320,800)"/><rect x="308" y="812" width="24" height="24" transform="rotate(0,320,824)"/><path d="M 308 836v 24h 24v -12a 12 12, 0, 0, 0, -12 -12" transform="rotate(90,320,848)"/><path d="M 308 932v 24h 12a 12 12, 0, 0, 0, 0 -24" transform="rotate(180,320,944)"/><path d="M 332 68v 24h 24v -12a 12 12, 0, 0, 0, -12 -12" transform="rotate(0,344,80)"/><rect x="332" y="92" width="24" height="24" transform="rotate(0,344,104)"/><path d="M 332 116v 24h 24v -12a 12 12, 0, 0, 0, -12 -12" transform="rotate(180,344,128)"/><rect x="332" y="188" width="24" height="24" transform="rotate(0,344,200)"/><path d="M 332 260v 24h 12a 12 12, 0, 0, 0, 0 -24" transform="rotate(180,344,272)"/><path d="M 332 356v 24h 12a 12 12, 0, 0, 0, 0 -24" transform="rotate(-90,344,368)"/><rect x="332" y="380" width="24" height="24" transform="rotate(0,344,392)"/><rect x="332" y="404" width="24" height="24" transform="rotate(0,344,416)"/><path d="M 332 428v 24h 12a 12 12, 0, 0, 0, 0 -24" transform="rotate(90,344,440)"/><circle cx="344" cy="488" r="12" transform="rotate(0,344,488)"/><path d="M 332 596v 24h 12a 12 12, 0, 0, 0, 0 -24" transform="rotate(180,344,608)"/><path d="M 332 740v 24h 12a 12 12, 0, 0, 0, 0 -24" transform="rotate(-90,344,752)"/><rect x="332" y="764" width="24" height="24" transform="rotate(0,344,776)"/><rect x="332" y="788" width="24" height="24" transform="rotate(0,344,800)"/><rect x="332" y="812" width="24" height="24" transform="rotate(0,344,824)"/><path d="M 332 884v 24h 12a 12 12, 0, 0, 0, 0 -24" transform="rotate(-90,344,896)"/><rect x="332" y="908" width="24" height="24" transform="rotate(0,344,920)"/><rect x="332" y="932" width="24" height="24" transform="rotate(0,344,944)"/><path d="M 356 116v 24h 12a 12 12, 0, 0, 0, 0 -24" transform="rotate(0,368,128)"/><path d="M 356 164v 24h 24v -12a 12 12, 0, 0, 0, -12 -12" transform="rotate(-90,368,176)"/><rect x="356" y="188" width="24" height="24" transform="rotate(0,368,200)"/><rect x="356" y="212" width="24" height="24" transform="rotate(0,368,224)"/><rect x="356" y="236" width="24" height="24" transform="rotate(0,368,248)"/><rect x="356" y="260" width="24" height="24" transform="rotate(0,368,272)"/><rect x="356" y="284" width="24" height="24" transform="rotate(0,368,296)"/><rect x="356" y="308" width="24" height="24" transform="rotate(0,368,320)"/><path d="M 356 332v 24h 12a 12 12, 0, 0, 0, 0 -24" transform="rotate(90,368,344)"/><rect x="356" y="380" width="24" height="24" transform="rotate(0,368,392)"/><rect x="356" y="404" width="24" height="24" transform="rotate(0,368,416)"/><path d="M 356 452v 24h 12a 12 12, 0, 0, 0, 0 -24" transform="rotate(180,368,464)"/><path d="M 356 524v 24h 12a 12 12, 0, 0, 0, 0 -24" transform="rotate(-90,368,536)"/><path d="M 356 548v 24h 12a 12 12, 0, 0, 0, 0 -24" transform="rotate(90,368,560)"/><path d="M 356 596v 24h 24v -12a 12 12, 0, 0, 0, -12 -12" transform="rotate(0,368,608)"/><rect x="356" y="620" width="24" height="24" transform="rotate(0,368,632)"/><path d="M 356 644v 24h 12a 12 12, 0, 0, 0, 0 -24" transform="rotate(90,368,656)"/><path d="M 356 716v 24h 12a 12 12, 0, 0, 0, 0 -24" transform="rotate(180,368,728)"/><path d="M 356 788v 24h 24v -12a 12 12, 0, 0, 0, -12 -12" transform="rotate(0,368,800)"/><path d="M 356 812v 24h 24v -12a 12 12, 0, 0, 0, -12 -12" transform="rotate(90,368,824)"/><path d="M 356 932v 24h 12a 12 12, 0, 0, 0, 0 -24" transform="rotate(0,368,944)"/><path d="M 380 140v 24h 24v -12a 12 12, 0, 0, 0, -12 -12" transform="rotate(-90,392,152)"/><rect x="380" y="164" width="24" height="24" transform="rotate(0,392,176)"/><rect x="380" y="188" width="24" height="24" transform="rotate(0,392,200)"/><rect x="380" y="236" width="24" height="24" transform="rotate(0,392,248)"/><path d="M 380 308v 24h 12a 12 12, 0, 0, 0, 0 -24" transform="rotate(0,392,320)"/><path d="M 380 380v 24h 24v -12a 12 12, 0, 0, 0, -12 -12" transform="rotate(0,392,392)"/><rect x="380" y="404" width="24" height="24" transform="rotate(0,392,416)"/><rect x="380" y="428" width="24" height="24" transform="rotate(0,392,440)"/><rect x="380" y="452" width="24" height="24" transform="rotate(0,392,464)"/><rect x="380" y="476" width="24" height="24" transform="rotate(0,392,488)"/><path d="M 380 500v 24h 12a 12 12, 0, 0, 0, 0 -24" transform="rotate(90,392,512)"/><path d="M 380 620v 24h 12a 12 12, 0, 0, 0, 0 -24" transform="rotate(0,392,632)"/><path d="M 380 668v 24h 24v -12a 12 12, 0, 0, 0, -12 -12" transform="rotate(-90,392,680)"/><rect x="380" y="692" width="24" height="24" transform="rotate(0,392,704)"/><rect x="380" y="716" width="24" height="24" transform="rotate(0,392,728)"/><path d="M 380 740v 24h 12a 12 12, 0, 0, 0, 0 -24" transform="rotate(90,392,752)"/><path d="M 380 836v 24h 24v -12a 12 12, 0, 0, 0, -12 -12" transform="rotate(-90,392,848)"/><path d="M 380 860v 24h 24v -12a 12 12, 0, 0, 0, -12 -12" transform="rotate(180,392,872)"/><rect x="404" y="140" width="24" height="24" transform="rotate(0,416,152)"/><rect x="404" y="164" width="24" height="24" transform="rotate(0,416,176)"/><rect x="404" y="188" width="24" height="24" transform="rotate(0,416,200)"/><rect x="404" y="212" width="24" height="24" transform="rotate(0,416,224)"/><rect x="404" y="236" width="24" height="24" transform="rotate(0,416,248)"/><rect x="404" y="260" width="24" height="24" transform="rotate(0,416,272)"/><path d="M 404 284v 24h 24v -12a 12 12, 0, 0, 0, -12 -12" transform="rotate(180,416,296)"/><path d="M 404 332v 24h 24v -12a 12 12, 0, 0, 0, -12 -12" transform="rotate(-90,416,344)"/><path d="M 404 356v 24h 24v -12a 12 12, 0, 0, 0, -12 -12" transform="rotate(180,416,368)"/><path d="M 404 644v 24h 12a 12 12, 0, 0, 0, 0 -24" transform="rotate(-90,416,656)"/><rect x="404" y="668" width="24" height="24" transform="rotate(0,416,680)"/><rect x="404" y="692" width="24" height="24" transform="rotate(0,416,704)"/><path d="M 404 716v 24h 24v -12a 12 12, 0, 0, 0, -12 -12" transform="rotate(90,416,728)"/><path d="M 404 764v 24h 12a 12 12, 0, 0, 0, 0 -24" transform="rotate(-90,416,776)"/><path d="M 404 788v 24h 12a 12 12, 0, 0, 0, 0 -24" transform="rotate(90,416,800)"/><path d="M 404 836v 24h 24v -12a 12 12, 0, 0, 0, -12 -12" transform="rotate(0,416,848)"/><rect x="404" y="860" width="24" height="24" transform="rotate(0,416,872)"/><rect x="404" y="884" width="24" height="24" transform="rotate(0,416,896)"/><rect x="404" y="908" width="24" height="24" transform="rotate(0,416,920)"/><path d="M 404 932v 24h 24v -12a 12 12, 0, 0, 0, -12 -12" transform="rotate(180,416,944)"/><path d="M 428 116v 24h 24v -12a 12 12, 0, 0, 0, -12 -12" transform="rotate(-90,440,128)"/><rect x="428" y="140" width="24" height="24" transform="rotate(0,440,152)"/><rect x="428" y="164" width="24" height="24" transform="rotate(0,440,176)"/><rect x="428" y="188" width="24" height="24" transform="rotate(0,440,200)"/><rect x="428" y="284" width="24" height="24" transform="rotate(0,440,296)"/><rect x="428" y="308" width="24" height="24" transform="rotate(0,440,320)"/><rect x="428" y="332" width="24" height="24" transform="rotate(0,440,344)"/><rect x="428" y="356" width="24" height="24" transform="rotate(0,440,368)"/><path d="M 428 380v 24h 12a 12 12, 0, 0, 0, 0 -24" transform="rotate(90,440,392)"/><circle cx="440" cy="632" r="12" transform="rotate(0,440,632)"/><circle cx="440" cy="824" r="12" transform="rotate(0,440,824)"/><path d="M 428 860v 24h 24v -12a 12 12, 0, 0, 0, -12 -12" transform="rotate(0,440,872)"/><rect x="428" y="884" width="24" height="24" transform="rotate(0,440,896)"/><rect x="428" y="908" width="24" height="24" transform="rotate(0,440,920)"/><path d="M 428 932v 24h 24v -12a 12 12, 0, 0, 0, -12 -12" transform="rotate(90,440,944)"/><rect x="452" y="116" width="24" height="24" transform="rotate(0,464,128)"/><path d="M 452 188v 24h 24v -12a 12 12, 0, 0, 0, -12 -12" transform="rotate(0,464,200)"/><path d="M 452 212v 24h 12a 12 12, 0, 0, 0, 0 -24" transform="rotate(90,464,224)"/><path d="M 452 260v 24h 12a 12 12, 0, 0, 0, 0 -24" transform="rotate(-90,464,272)"/><path d="M 452 284v 24h 24v -12a 12 12, 0, 0, 0, -12 -12" transform="rotate(90,464,296)"/><rect x="452" y="332" width="24" height="24" transform="rotate(0,464,344)"/><path d="M 452 668v 24h 12a 12 12, 0, 0, 0, 0 -24" transform="rotate(-90,464,680)"/><rect x="452" y="692" width="24" height="24" transform="rotate(0,464,704)"/><rect x="452" y="716" width="24" height="24" transform="rotate(0,464,728)"/><path d="M 452 740v 24h 24v -12a 12 12, 0, 0, 0, -12 -12" transform="rotate(180,464,752)"/><circle cx="464" cy="800" r="12" transform="rotate(0,464,800)"/><rect x="452" y="884" width="24" height="24" transform="rotate(0,464,896)"/><path d="M 476 68v 24h 24v -12a 12 12, 0, 0, 0, -12 -12" transform="rotate(-90,488,80)"/><rect x="476" y="92" width="24" height="24" transform="rotate(0,488,104)"/><rect x="476" y="116" width="24" height="24" transform="rotate(0,488,128)"/><rect x="476" y="140" width="24" height="24" transform="rotate(0,488,152)"/><path d="M 476 164v 24h 24v -12a 12 12, 0, 0, 0, -12 -12" transform="rotate(180,488,176)"/><path d="M 476 236v 24h 12a 12 12, 0, 0, 0, 0 -24" transform="rotate(180,488,248)"/><path d="M 476 308v 24h 12a 12 12, 0, 0, 0, 0 -24" transform="rotate(-90,488,320)"/><path d="M 476 332v 24h 24v -12a 12 12, 0, 0, 0, -12 -12" transform="rotate(90,488,344)"/><path d="M 476 380v 24h 12a 12 12, 0, 0, 0, 0 -24" transform="rotate(180,488,392)"/><circle cx="488" cy="656" r="12" transform="rotate(0,488,656)"/><path d="M 476 692v 24h 24v -12a 12 12, 0, 0, 0, -12 -12" transform="rotate(0,488,704)"/><rect x="476" y="716" width="24" height="24" transform="rotate(0,488,728)"/><rect x="476" y="740" width="24" height="24" transform="rotate(0,488,752)"/><path d="M 476 764v 24h 12a 12 12, 0, 0, 0, 0 -24" transform="rotate(90,488,776)"/><path d="M 476 812v 24h 12a 12 12, 0, 0, 0, 0 -24" transform="rotate(180,488,824)"/><path d="M 476 860v 24h 12a 12 12, 0, 0, 0, 0 -24" transform="rotate(-90,488,872)"/><path d="M 476 884v 24h 24v -12a 12 12, 0, 0, 0, -12 -12" transform="rotate(90,488,896)"/><rect x="500" y="68" width="24" height="24" transform="rotate(0,512,80)"/><rect x="500" y="92" width="24" height="24" transform="rotate(0,512,104)"/><rect x="500" y="140" width="24" height="24" transform="rotate(0,512,152)"/><rect x="500" y="164" width="24" height="24" transform="rotate(0,512,176)"/><rect x="500" y="188" width="24" height="24" transform="rotate(0,512,200)"/><rect x="500" y="212" width="24" height="24" transform="rotate(0,512,224)"/><rect x="500" y="236" width="24" height="24" transform="rotate(0,512,248)"/><path d="M 500 284v 24h 12a 12 12, 0, 0, 0, 0 -24" transform="rotate(180,512,296)"/><path d="M 500 380v 24h 12a 12 12, 0, 0, 0, 0 -24" transform="rotate(0,512,392)"/><path d="M 500 620v 24h 12a 12 12, 0, 0, 0, 0 -24" transform="rotate(180,512,632)"/><path d="M 500 668v 24h 12a 12 12, 0, 0, 0, 0 -24" transform="rotate(180,512,680)"/><path d="M 500 716v 24h 12a 12 12, 0, 0, 0, 0 -24" transform="rotate(0,512,728)"/><path d="M 500 812v 24h 24v -12a 12 12, 0, 0, 0, -12 -12" transform="rotate(0,512,824)"/><path d="M 500 836v 24h 24v -12a 12 12, 0, 0, 0, -12 -12" transform="rotate(180,512,848)"/><path d="M 500 932v 24h 12a 12 12, 0, 0, 0, 0 -24" transform="rotate(180,512,944)"/><rect x="524" y="68" width="24" height="24" transform="rotate(0,536,80)"/><rect x="524" y="92" width="24" height="24" transform="rotate(0,536,104)"/><rect x="524" y="140" width="24" height="24" transform="rotate(0,536,152)"/><path d="M 524 188v 24h 12a 12 12, 0, 0, 0, 0 -24" transform="rotate(0,536,200)"/><rect x="524" y="236" width="24" height="24" transform="rotate(0,536,248)"/><path d="M 524 284v 24h 12a 12 12, 0, 0, 0, 0 -24" transform="rotate(0,536,296)"/><path d="M 524 356v 24h 12a 12 12, 0, 0, 0, 0 -24" transform="rotate(180,536,368)"/><path d="M 524 620v 24h 24v -12a 12 12, 0, 0, 0, -12 -12" transform="rotate(0,536,632)"/><rect x="524" y="644" width="24" height="24" transform="rotate(0,536,656)"/><path d="M 524 668v 24h 24v -12a 12 12, 0, 0, 0, -12 -12" transform="rotate(90,536,680)"/><path d="M 524 764v 24h 24v -12a 12 12, 0, 0, 0, -12 -12" transform="rotate(-90,536,776)"/><path d="M 524 788v 24h 24v -12a 12 12, 0, 0, 0, -12 -12" transform="rotate(180,536,800)"/><rect x="524" y="836" width="24" height="24" transform="rotate(0,536,848)"/><path d="M 524 860v 24h 24v -12a 12 12, 0, 0, 0, -12 -12" transform="rotate(180,536,872)"/><path d="M 524 932v 24h 12a 12 12, 0, 0, 0, 0 -24" transform="rotate(0,536,944)"/><rect x="548" y="68" width="24" height="24" transform="rotate(0,560,80)"/><rect x="548" y="92" width="24" height="24" transform="rotate(0,560,104)"/><rect x="548" y="116" width="24" height="24" transform="rotate(0,560,128)"/><rect x="548" y="140" width="24" height="24" transform="rotate(0,560,152)"/><path d="M 548 164v 24h 24v -12a 12 12, 0, 0, 0, -12 -12" transform="rotate(180,560,176)"/><path d="M 548 212v 24h 12a 12 12, 0, 0, 0, 0 -24" transform="rotate(-90,560,224)"/><path d="M 548 236v 24h 24v -12a 12 12, 0, 0, 0, -12 -12" transform="rotate(90,560,248)"/><circle cx="560" cy="320" r="12" transform="rotate(0,560,320)"/><path d="M 548 356v 24h 12a 12 12, 0, 0, 0, 0 -24" transform="rotate(0,560,368)"/><rect x="548" y="644" width="24" height="24" transform="rotate(0,560,656)"/><path d="M 548 692v 24h 12a 12 12, 0, 0, 0, 0 -24" transform="rotate(-90,560,704)"/><path d="M 548 716v 24h 24v -12a 12 12, 0, 0, 0, -12 -12" transform="rotate(180,560,728)"/><path d="M 548 764v 24h 24v -12a 12 12, 0, 0, 0, -12 -12" transform="rotate(0,560,776)"/><rect x="548" y="788" width="24" height="24" transform="rotate(0,560,800)"/><rect x="548" y="812" width="24" height="24" transform="rotate(0,560,824)"/><rect x="548" y="836" width="24" height="24" transform="rotate(0,560,848)"/><path d="M 548 860v 24h 24v -12a 12 12, 0, 0, 0, -12 -12" transform="rotate(90,560,872)"/><path d="M 572 68v 24h 12a 12 12, 0, 0, 0, 0 -24" transform="rotate(0,584,80)"/><rect x="572" y="116" width="24" height="24" transform="rotate(0,584,128)"/><rect x="572" y="164" width="24" height="24" transform="rotate(0,584,176)"/><path d="M 572 188v 24h 24v -12a 12 12, 0, 0, 0, -12 -12" transform="rotate(180,584,200)"/><path d="M 572 260v 24h 12a 12 12, 0, 0, 0, 0 -24" transform="rotate(-90,584,272)"/><path d="M 572 284v 24h 24v -12a 12 12, 0, 0, 0, -12 -12" transform="rotate(180,584,296)"/><path d="M 572 620v 24h 24v -12a 12 12, 0, 0, 0, -12 -12" transform="rotate(-90,584,632)"/><rect x="572" y="644" width="24" height="24" transform="rotate(0,584,656)"/><rect x="572" y="716" width="24" height="24" transform="rotate(0,584,728)"/><path d="M 572 836v 24h 12a 12 12, 0, 0, 0, 0 -24" transform="rotate(0,584,848)"/><circle cx="584" cy="896" r="12" transform="rotate(0,584,896)"/><rect x="596" y="116" width="24" height="24" transform="rotate(0,608,128)"/><path d="M 596 164v 24h 24v -12a 12 12, 0, 0, 0, -12 -12" transform="rotate(0,608,176)"/><rect x="596" y="188" width="24" height="24" transform="rotate(0,608,200)"/><path d="M 596 212v 24h 12a 12 12, 0, 0, 0, 0 -24" transform="rotate(90,608,224)"/><rect x="596" y="284" width="24" height="24" transform="rotate(0,608,296)"/><path d="M 596 356v 24h 12a 12 12, 0, 0, 0, 0 -24" transform="rotate(180,608,368)"/><rect x="596" y="620" width="24" height="24" transform="rotate(0,608,632)"/><rect x="596" y="644" width="24" height="24" transform="rotate(0,608,656)"/><rect x="596" y="668" width="24" height="24" transform="rotate(0,608,680)"/><rect x="596" y="692" width="24" height="24" transform="rotate(0,608,704)"/><rect x="596" y="716" width="24" height="24" transform="rotate(0,608,728)"/><rect x="596" y="740" width="24" height="24" transform="rotate(0,608,752)"/><rect x="596" y="764" width="24" height="24" transform="rotate(0,608,776)"/><rect x="596" y="788" width="24" height="24" transform="rotate(0,608,800)"/><path d="M 596 812v 24h 24v -12a 12 12, 0, 0, 0, -12 -12" transform="rotate(180,608,824)"/><path d="M 596 860v 24h 12a 12 12, 0, 0, 0, 0 -24" transform="rotate(180,608,872)"/><path d="M 596 908v 24h 12a 12 12, 0, 0, 0, 0 -24" transform="rotate(-90,608,920)"/><path d="M 596 932v 24h 24v -12a 12 12, 0, 0, 0, -12 -12" transform="rotate(180,608,944)"/><circle cx="632" cy="80" r="12" transform="rotate(0,632,80)"/><rect x="620" y="116" width="24" height="24" transform="rotate(0,632,128)"/><path d="M 620 140v 24h 12a 12 12, 0, 0, 0, 0 -24" transform="rotate(90,632,152)"/><path d="M 620 188v 24h 12a 12 12, 0, 0, 0, 0 -24" transform="rotate(0,632,200)"/><circle cx="632" cy="248" r="12" transform="rotate(0,632,248)"/><rect x="620" y="284" width="24" height="24" transform="rotate(0,632,296)"/><path d="M 620 332v 24h 24v -12a 12 12, 0, 0, 0, -12 -12" transform="rotate(-90,632,344)"/><rect x="620" y="356" width="24" height="24" transform="rotate(0,632,368)"/><rect x="620" y="380" width="24" height="24" transform="rotate(0,632,392)"/><path d="M 620 404v 24h 12a 12 12, 0, 0, 0, 0 -24" transform="rotate(90,632,416)"/><path d="M 620 476v 24h 12a 12 12, 0, 0, 0, 0 -24" transform="rotate(180,632,488)"/><circle cx="632" cy="560" r="12" transform="rotate(0,632,560)"/><path d="M 620 620v 24h 12a 12 12, 0, 0, 0, 0 -24" transform="rotate(0,632,632)"/><rect x="620" y="788" width="24" height="24" transform="rotate(0,632,800)"/><rect x="620" y="812" width="24" height="24" transform="rotate(0,632,824)"/><rect x="620" y="836" width="24" height="24" transform="rotate(0,632,848)"/><rect x="620" y="860" width="24" height="24" transform="rotate(0,632,872)"/><path d="M 620 884v 24h 12a 12 12, 0, 0, 0, 0 -24" transform="rotate(90,632,896)"/><path d="M 620 932v 24h 12a 12 12, 0, 0, 0, 0 -24" transform="rotate(0,632,944)"/><path d="M 644 116v 24h 12a 12 12, 0, 0, 0, 0 -24" transform="rotate(0,656,128)"/><circle cx="656" cy="224" r="12" transform="rotate(0,656,224)"/><path d="M 644 260v 24h 12a 12 12, 0, 0, 0, 0 -24" transform="rotate(-90,656,272)"/><path d="M 644 284v 24h 24v -12a 12 12, 0, 0, 0, -12 -12" transform="rotate(90,656,296)"/><path d="M 644 332v 24h 12a 12 12, 0, 0, 0, 0 -24" transform="rotate(0,656,344)"/><path d="M 644 428v 24h 12a 12 12, 0, 0, 0, 0 -24" transform="rotate(-90,656,440)"/><rect x="644" y="452" width="24" height="24" transform="rotate(0,656,464)"/><rect x="644" y="476" width="24" height="24" transform="rotate(0,656,488)"/><rect x="644" y="500" width="24" height="24" transform="rotate(0,656,512)"/><path d="M 644 524v 24h 24v -12a 12 12, 0, 0, 0, -12 -12" transform="rotate(180,656,536)"/><circle cx="656" cy="704" r="12" transform="rotate(0,656,704)"/><path d="M 644 764v 24h 12a 12 12, 0, 0, 0, 0 -24" transform="rotate(-90,656,776)"/><path d="M 644 788v 24h 24v -12a 12 12, 0, 0, 0, -12 -12" transform="rotate(90,656,800)"/><circle cx="656" cy="920" r="12" transform="rotate(0,656,920)"/><path d="M 668 68v 24h 12a 12 12, 0, 0, 0, 0 -24" transform="rotate(180,680,80)"/><path d="M 668 140v 24h 12a 12 12, 0, 0, 0, 0 -24" transform="rotate(-90,680,152)"/><path d="M 668 164v 24h 12a 12 12, 0, 0, 0, 0 -24" transform="rotate(90,680,176)"/><circle cx="680" cy="320" r="12" transform="rotate(0,680,320)"/><path d="M 668 356v 24h 12a 12 12, 0, 0, 0, 0 -24" transform="rotate(180,680,368)"/><path d="M 668 404v 24h 12a 12 12, 0, 0, 0, 0 -24" transform="rotate(180,680,416)"/><rect x="668" y="452" width="24" height="24" transform="rotate(0,680,464)"/><rect x="668" y="524" width="24" height="24" transform="rotate(0,680,536)"/><path d="M 668 548v 24h 24v -12a 12 12, 0, 0, 0, -12 -12" transform="rotate(180,680,560)"/><path d="M 668 620v 24h 12a 12 12, 0, 0, 0, 0 -24" transform="rotate(-90,680,632)"/><rect x="668" y="644" width="24" height="24" transform="rotate(0,680,656)"/><path d="M 668 668v 24h 12a 12 12, 0, 0, 0, 0 -24" transform="rotate(90,680,680)"/><path d="M 668 716v 24h 12a 12 12, 0, 0, 0, 0 -24" transform="rotate(180,680,728)"/><path d="M 668 812v 24h 12a 12 12, 0, 0, 0, 0 -24" transform="rotate(-90,680,824)"/><rect x="668" y="836" width="24" height="24" transform="rotate(0,680,848)"/><path d="M 668 860v 24h 24v -12a 12 12, 0, 0, 0, -12 -12" transform="rotate(180,680,872)"/><rect x="692" y="68" width="24" height="24" transform="rotate(0,704,80)"/><rect x="692" y="92" width="24" height="24" transform="rotate(0,704,104)"/><path d="M 692 116v 24h 12a 12 12, 0, 0, 0, 0 -24" transform="rotate(90,704,128)"/><path d="M 692 188v 24h 24v -12a 12 12, 0, 0, 0, -12 -12" transform="rotate(-90,704,200)"/><path d="M 692 212v 24h 12a 12 12, 0, 0, 0, 0 -24" transform="rotate(90,704,224)"/><path d="M 692 260v 24h 12a 12 12, 0, 0, 0, 0 -24" transform="rotate(180,704,272)"/><path d="M 692 356v 24h 12a 12 12, 0, 0, 0, 0 -24" transform="rotate(0,704,368)"/><path d="M 692 404v 24h 12a 12 12, 0, 0, 0, 0 -24" transform="rotate(0,704,416)"/><path d="M 692 452v 24h 12a 12 12, 0, 0, 0, 0 -24" transform="rotate(0,704,464)"/><path d="M 692 500v 24h 12a 12 12, 0, 0, 0, 0 -24" transform="rotate(-90,704,512)"/><rect x="692" y="524" width="24" height="24" transform="rotate(0,704,536)"/><rect x="692" y="548" width="24" height="24" transform="rotate(0,704,560)"/><path d="M 692 572v 24h 12a 12 12, 0, 0, 0, 0 -24" transform="rotate(90,704,584)"/><path d="M 692 716v 24h 12a 12 12, 0, 0, 0, 0 -24" transform="rotate(0,704,728)"/><path d="M 692 764v 24h 24v -12a 12 12, 0, 0, 0, -12 -12" transform="rotate(-90,704,776)"/><path d="M 692 788v 24h 24v -12a 12 12, 0, 0, 0, -12 -12" transform="rotate(180,704,800)"/><path d="M 692 860v 24h 12a 12 12, 0, 0, 0, 0 -24" transform="rotate(0,704,872)"/><path d="M 692 908v 24h 24v -12a 12 12, 0, 0, 0, -12 -12" transform="rotate(-90,704,920)"/><path d="M 692 932v 24h 12a 12 12, 0, 0, 0, 0 -24" transform="rotate(90,704,944)"/><rect x="716" y="68" width="24" height="24" transform="rotate(0,728,80)"/><rect x="716" y="188" width="24" height="24" transform="rotate(0,728,200)"/><rect x="716" y="260" width="24" height="24" transform="rotate(0,728,272)"/><circle cx="728" cy="440" r="12" transform="rotate(0,728,440)"/><rect x="716" y="548" width="24" height="24" transform="rotate(0,728,560)"/><path d="M 716 644v 24h 12a 12 12, 0, 0, 0, 0 -24" transform="rotate(180,728,656)"/><circle cx="728" cy="704" r="12" transform="rotate(0,728,704)"/><path d="M 716 740v 24h 24v -12a 12 12, 0, 0, 0, -12 -12" transform="rotate(-90,728,752)"/><rect x="716" y="764" width="24" height="24" transform="rotate(0,728,776)"/><rect x="716" y="788" width="24" height="24" transform="rotate(0,728,800)"/><path d="M 716 812v 24h 24v -12a 12 12, 0, 0, 0, -12 -12" transform="rotate(180,728,824)"/><path d="M 716 884v 24h 24v -12a 12 12, 0, 0, 0, -12 -12" transform="rotate(-90,728,896)"/><path d="M 716 908v 24h 24v -12a 12 12, 0, 0, 0, -12 -12" transform="rotate(90,728,920)"/><path d="M 740 68v 24h 12a 12 12, 0, 0, 0, 0 -24" transform="rotate(0,752,80)"/><circle cx="752" cy="128" r="12" transform="rotate(0,752,128)"/><path d="M 740 164v 24h 12a 12 12, 0, 0, 0, 0 -24" transform="rotate(-90,752,176)"/><rect x="740" y="188" width="24" height="24" transform="rotate(0,752,200)"/><rect x="740" y="212" width="24" height="24" transform="rotate(0,752,224)"/><rect x="740" y="236" width="24" height="24" transform="rotate(0,752,248)"/><rect x="740" y="260" width="24" height="24" transform="rotate(0,752,272)"/><path d="M 740 284v 24h 12a 12 12, 0, 0, 0, 0 -24" transform="rotate(90,752,296)"/><circle cx="752" cy="416" r="12" transform="rotate(0,752,416)"/><path d="M 740 452v 24h 12a 12 12, 0, 0, 0, 0 -24" transform="rotate(180,752,464)"/><circle cx="752" cy="512" r="12" transform="rotate(0,752,512)"/><rect x="740" y="548" width="24" height="24" transform="rotate(0,752,560)"/><path d="M 740 596v 24h 24v -12a 12 12, 0, 0, 0, -12 -12" transform="rotate(-90,752,608)"/><rect x="740" y="620" width="24" height="24" transform="rotate(0,752,632)"/><rect x="740" y="644" width="24" height="24" transform="rotate(0,752,656)"/><path d="M 740 668v 24h 12a 12 12, 0, 0, 0, 0 -24" transform="rotate(90,752,680)"/><rect x="740" y="740" width="24" height="24" transform="rotate(0,752,752)"/><rect x="740" y="764" width="24" height="24" transform="rotate(0,752,776)"/><rect x="740" y="788" width="24" height="24" transform="rotate(0,752,800)"/><rect x="740" y="812" width="24" height="24" transform="rotate(0,752,824)"/><path d="M 740 836v 24h 24v -12a 12 12, 0, 0, 0, -12 -12" transform="rotate(180,752,848)"/><rect x="740" y="884" width="24" height="24" transform="rotate(0,752,896)"/><circle cx="752" cy="944" r="12" transform="rotate(0,752,944)"/><rect x="764" y="260" width="24" height="24" transform="rotate(0,776,272)"/><path d="M 764 332v 24h 12a 12 12, 0, 0, 0, 0 -24" transform="rotate(180,776,344)"/><path d="M 764 380v 24h 12a 12 12, 0, 0, 0, 0 -24" transform="rotate(180,776,392)"/><path d="M 764 428v 24h 24v -12a 12 12, 0, 0, 0, -12 -12" transform="rotate(-90,776,440)"/><rect x="764" y="452" width="24" height="24" transform="rotate(0,776,464)"/><path d="M 764 524v 24h 24v -12a 12 12, 0, 0, 0, -12 -12" transform="rotate(-90,776,536)"/><path d="M 764 548v 24h 24v -12a 12 12, 0, 0, 0, -12 -12" transform="rotate(90,776,560)"/><rect x="764" y="596" width="24" height="24" transform="rotate(0,776,608)"/><rect x="764" y="740" width="24" height="24" transform="rotate(0,776,752)"/><rect x="764" y="836" width="24" height="24" transform="rotate(0,776,848)"/><path d="M 764 884v 24h 12a 12 12, 0, 0, 0, 0 -24" transform="rotate(0,776,896)"/><rect x="788" y="260" width="24" height="24" transform="rotate(0,800,272)"/><path d="M 788 284v 24h 24v -12a 12 12, 0, 0, 0, -12 -12" transform="rotate(180,800,296)"/><rect x="788" y="332" width="24" height="24" transform="rotate(0,800,344)"/><path d="M 788 380v 24h 12a 12 12, 0, 0, 0, 0 -24" transform="rotate(0,800,392)"/><rect x="788" y="428" width="24" height="24" transform="rotate(0,800,440)"/><rect x="788" y="452" width="24" height="24" transform="rotate(0,800,464)"/><rect x="788" y="524" width="24" height="24" transform="rotate(0,800,536)"/><rect x="788" y="596" width="24" height="24" transform="rotate(0,800,608)"/><path d="M 788 620v 24h 12a 12 12, 0, 0, 0, 0 -24" transform="rotate(90,800,632)"/><path d="M 788 668v 24h 12a 12 12, 0, 0, 0, 0 -24" transform="rotate(180,800,680)"/><rect x="788" y="740" width="24" height="24" transform="rotate(0,800,752)"/><circle cx="800" cy="800" r="12" transform="rotate(0,800,800)"/><rect x="788" y="836" width="24" height="24" transform="rotate(0,800,848)"/><path d="M 788 908v 24h 24v -12a 12 12, 0, 0, 0, -12 -12" transform="rotate(-90,800,920)"/><path d="M 788 932v 24h 24v -12a 12 12, 0, 0, 0, -12 -12" transform="rotate(180,800,944)"/><rect x="812" y="260" width="24" height="24" transform="rotate(0,824,272)"/><rect x="812" y="284" width="24" height="24" transform="rotate(0,824,296)"/><rect x="812" y="308" width="24" height="24" transform="rotate(0,824,320)"/><rect x="812" y="332" width="24" height="24" transform="rotate(0,824,344)"/><rect x="812" y="428" width="24" height="24" transform="rotate(0,824,440)"/><rect x="812" y="452" width="24" height="24" transform="rotate(0,824,464)"/><rect x="812" y="476" width="24" height="24" transform="rotate(0,824,488)"/><rect x="812" y="500" width="24" height="24" transform="rotate(0,824,512)"/><path d="M 812 524v 24h 24v -12a 12 12, 0, 0, 0, -12 -12" transform="rotate(90,824,536)"/><rect x="812" y="596" width="24" height="24" transform="rotate(0,824,608)"/><path d="M 812 668v 24h 24v -12a 12 12, 0, 0, 0, -12 -12" transform="rotate(0,824,680)"/><path d="M 812 692v 24h 12a 12 12, 0, 0, 0, 0 -24" transform="rotate(90,824,704)"/><rect x="812" y="740" width="24" height="24" transform="rotate(0,824,752)"/><rect x="812" y="836" width="24" height="24" transform="rotate(0,824,848)"/><rect x="812" y="908" width="24" height="24" transform="rotate(0,824,920)"/><rect x="812" y="932" width="24" height="24" transform="rotate(0,824,944)"/><rect x="836" y="260" width="24" height="24" transform="rotate(0,848,272)"/><rect x="836" y="332" width="24" height="24" transform="rotate(0,848,344)"/><rect x="836" y="356" width="24" height="24" transform="rotate(0,848,368)"/><path d="M 836 380v 24h 24v -12a 12 12, 0, 0, 0, -12 -12" transform="rotate(180,848,392)"/><path d="M 836 428v 24h 12a 12 12, 0, 0, 0, 0 -24" transform="rotate(0,848,440)"/><path d="M 836 572v 24h 24v -12a 12 12, 0, 0, 0, -12 -12" transform="rotate(-90,848,584)"/><rect x="836" y="596" width="24" height="24" transform="rotate(0,848,608)"/><path d="M 836 716v 24h 12a 12 12, 0, 0, 0, 0 -24" transform="rotate(-90,848,728)"/><rect x="836" y="740" width="24" height="24" transform="rotate(0,848,752)"/><rect x="836" y="764" width="24" height="24" transform="rotate(0,848,776)"/><rect x="836" y="788" width="24" height="24" transform="rotate(0,848,800)"/><rect x="836" y="812" width="24" height="24" transform="rotate(0,848,824)"/><path d="M 836 836v 24h 24v -12a 12 12, 0, 0, 0, -12 -12" transform="rotate(90,848,848)"/><path d="M 836 908v 24h 24v -12a 12 12, 0, 0, 0, -12 -12" transform="rotate(0,848,920)"/><rect x="836" y="932" width="24" height="24" transform="rotate(0,848,944)"/><path d="M 860 260v 24h 24v -12a 12 12, 0, 0, 0, -12 -12" transform="rotate(0,872,272)"/><path d="M 860 284v 24h 12a 12 12, 0, 0, 0, 0 -24" transform="rotate(90,872,296)"/><rect x="860" y="332" width="24" height="24" transform="rotate(0,872,344)"/><rect x="860" y="356" width="24" height="24" transform="rotate(0,872,368)"/><rect x="860" y="380" width="24" height="24" transform="rotate(0,872,392)"/><path d="M 860 404v 24h 12a 12 12, 0, 0, 0, 0 -24" transform="rotate(90,872,416)"/><path d="M 860 452v 24h 24v -12a 12 12, 0, 0, 0, -12 -12" transform="rotate(-90,872,464)"/><rect x="860" y="476" width="24" height="24" transform="rotate(0,872,488)"/><path d="M 860 500v 24h 24v -12a 12 12, 0, 0, 0, -12 -12" transform="rotate(180,872,512)"/><rect x="860" y="572" width="24" height="24" transform="rotate(0,872,584)"/><rect x="860" y="596" width="24" height="24" transform="rotate(0,872,608)"/><rect x="860" y="620" width="24" height="24" transform="rotate(0,872,632)"/><path d="M 860 644v 24h 24v -12a 12 12, 0, 0, 0, -12 -12" transform="rotate(180,872,656)"/><path d="M 860 740v 24h 24v -12a 12 12, 0, 0, 0, -12 -12" transform="rotate(0,872,752)"/><rect x="860" y="764" width="24" height="24" transform="rotate(0,872,776)"/><path d="M 860 788v 24h 24v -12a 12 12, 0, 0, 0, -12 -12" transform="rotate(90,872,800)"/><circle cx="872" cy="896" r="12" transform="rotate(0,872,896)"/><rect x="860" y="932" width="24" height="24" transform="rotate(0,872,944)"/><path d="M 884 332v 24h 24v -12a 12 12, 0, 0, 0, -12 -12" transform="rotate(0,896,344)"/><path d="M 884 356v 24h 24v -12a 12 12, 0, 0, 0, -12 -12" transform="rotate(90,896,368)"/><path d="M 884 428v 24h 12a 12 12, 0, 0, 0, 0 -24" transform="rotate(-90,896,440)"/><rect x="884" y="452" width="24" height="24" transform="rotate(0,896,464)"/><rect x="884" y="476" width="24" height="24" transform="rotate(0,896,488)"/><rect x="884" y="500" width="24" height="24" transform="rotate(0,896,512)"/><rect x="884" y="524" width="24" height="24" transform="rotate(0,896,536)"/><rect x="884" y="548" width="24" height="24" transform="rotate(0,896,560)"/><rect x="884" y="572" width="24" height="24" transform="rotate(0,896,584)"/><rect x="884" y="596" width="24" height="24" transform="rotate(0,896,608)"/><rect x="884" y="620" width="24" height="24" transform="rotate(0,896,632)"/><rect x="884" y="644" width="24" height="24" transform="rotate(0,896,656)"/><rect x="884" y="668" width="24" height="24" transform="rotate(0,896,680)"/><path d="M 884 692v 24h 24v -12a 12 12, 0, 0, 0, -12 -12" transform="rotate(180,896,704)"/><path d="M 884 764v 24h 12a 12 12, 0, 0, 0, 0 -24" transform="rotate(0,896,776)"/><path d="M 884 836v 24h 12a 12 12, 0, 0, 0, 0 -24" transform="rotate(180,896,848)"/><rect x="884" y="932" width="24" height="24" transform="rotate(0,896,944)"/><circle cx="920" cy="392" r="12" transform="rotate(0,920,392)"/><rect x="908" y="452" width="24" height="24" transform="rotate(0,920,464)"/><path d="M 908 476v 24h 24v -12a 12 12, 0, 0, 0, -12 -12" transform="rotate(90,920,488)"/><path d="M 908 524v 24h 24v -12a 12 12, 0, 0, 0, -12 -12" transform="rotate(0,920,536)"/><rect x="908" y="548" width="24" height="24" transform="rotate(0,920,560)"/><rect x="908" y="596" width="24" height="24" transform="rotate(0,920,608)"/><rect x="908" y="644" width="24" height="24" transform="rotate(0,920,656)"/><path d="M 908 692v 24h 24v -12a 12 12, 0, 0, 0, -12 -12" transform="rotate(0,920,704)"/><path d="M 908 716v 24h 24v -12a 12 12, 0, 0, 0, -12 -12" transform="rotate(180,920,728)"/><path d="M 908 836v 24h 12a 12 12, 0, 0, 0, 0 -24" transform="rotate(0,920,848)"/><path d="M 908 884v 24h 12a 12 12, 0, 0, 0, 0 -24" transform="rotate(-90,920,896)"/><rect x="908" y="908" width="24" height="24" transform="rotate(0,920,920)"/><rect x="908" y="932" width="24" height="24" transform="rotate(0,920,944)"/><path d="M 932 260v 24h 12a 12 12, 0, 0, 0, 0 -24" transform="rotate(-90,944,272)"/><path d="M 932 284v 24h 12a 12 12, 0, 0, 0, 0 -24" transform="rotate(90,944,296)"/><circle cx="944" cy="368" r="12" transform="rotate(0,944,368)"/><path d="M 932 404v 24h 12a 12 12, 0, 0, 0, 0 -24" transform="rotate(-90,944,416)"/><rect x="932" y="428" width="24" height="24" transform="rotate(0,944,440)"/><path d="M 932 452v 24h 24v -12a 12 12, 0, 0, 0, -12 -12" transform="rotate(90,944,464)"/><path d="M 932 548v 24h 12a 12 12, 0, 0, 0, 0 -24" transform="rotate(0,944,560)"/><path d="M 932 596v 24h 24v -12a 12 12, 0, 0, 0, -12 -12" transform="rotate(0,944,608)"/><rect x="932" y="620" width="24" height="24" transform="rotate(0,944,632)"/><path d="M 932 644v 24h 24v -12a 12 12, 0, 0, 0, -12 -12" transform="rotate(90,944,656)"/><path d="M 932 716v 24h 24v -12a 12 12, 0, 0, 0, -12 -12" transform="rotate(0,944,728)"/><path d="M 932 740v 24h 12a 12 12, 0, 0, 0, 0 -24" transform="rotate(90,944,752)"/><path d="M 932 788v 24h 12a 12 12, 0, 0, 0, 0 -24" transform="rotate(-90,944,800)"/><path d="M 932 812v 24h 12a 12 12, 0, 0, 0, 0 -24" transform="rotate(90,944,824)"/><circle cx="944" cy="872" r="12" transform="rotate(0,944,872)"/><path d="M 932 932v 24h 12a 12 12, 0, 0, 0, 0 -24" transform="rotate(0,944,944)"/></clipPath><clipPath id="clip-path-corners-square-color-0-0"><path clip-rule="evenodd" d="M 68 128v 48a 60 60, 0, 0, 0, 60 60h 48a 60 60, 0, 0, 0, 60 -60v -48a 60 60, 0, 0, 0, -60 -60h -48a 60 60, 0, 0, 0, -60 60M 128 92h 48a 36 36, 0, 0, 1, 36 36v 48a 36 36, 0, 0, 1, -36 36h -48a 36 36, 0, 0, 1, -36 -36v -48a 36 36, 0, 0, 1, 36 -36" transform="rotate(0,152,152)"/></clipPath><clipPath id="clip-path-corners-dot-color-0-0"><path d="m 116 116 m 51.429 72 h -30.857 c -11.366 0 -20.571 -9.206 -20.571 -20.571 v -30.857 c 0 -11.366 9.206 -20.571 20.571 -20.571 h 30.857 c 11.366 0 20.571 9.206 20.571 20.571 v 30.857 c 0 11.366 -9.206 20.571 -20.571 20.571 z"/></clipPath><clipPath id="clip-path-corners-square-color-1-0"><path clip-rule="evenodd" d="M 788 128v 48a 60 60, 0, 0, 0, 60 60h 48a 60 60, 0, 0, 0, 60 -60v -48a 60 60, 0, 0, 0, -60 -60h -48a 60 60, 0, 0, 0, -60 60M 848 92h 48a 36 36, 0, 0, 1, 36 36v 48a 36 36, 0, 0, 1, -36 36h -48a 36 36, 0, 0, 1, -36 -36v -48a 36 36, 0, 0, 1, 36 -36" transform="rotate(90,872,152)"/></clipPath><clipPath id="clip-path-corners-dot-color-1-0"><path d="m 836 116 m 51.429 72 h -30.857 c -11.366 0 -20.571 -9.206 -20.571 -20.571 v -30.857 c 0 -11.366 9.206 -20.571 20.571 -20.571 h 30.857 c 11.366 0 20.571 9.206 20.571 20.571 v 30.857 c 0 11.366 -9.206 20.571 -20.571 20.571 z"/></clipPath><clipPath id="clip-path-corners-square-color-0-1"><path clip-rule="evenodd" d="M 68 848v 48a 60 60, 0, 0, 0, 60 60h 48a 60 60, 0, 0, 0, 60 -60v -48a 60 60, 0, 0, 0, -60 -60h -48a 60 60, 0, 0, 0, -60 60M 128 812h 48a 36 36, 0, 0, 1, 36 36v 48a 36 36, 0, 0, 1, -36 36h -48a 36 36, 0, 0, 1, -36 -36v -48a 36 36, 0, 0, 1, 36 -36" transform="rotate(-90,152,872)"/></clipPath><clipPath id="clip-path-corners-dot-color-0-1"><path d="m 116 836 m 51.429 72 h -30.857 c -11.366 0 -20.571 -9.206 -20.571 -20.571 v -30.857 c 0 -11.366 9.206 -20.571 20.571 -20.571 h 30.857 c 11.366 0 20.571 9.206 20.571 20.571 v 30.857 c 0 11.366 -9.206 20.571 -20.571 20.571 z"/></clipPath></defs><rect x="0" y="0" height="1024" width="1024" clip-path="url('#clip-path-background-color')" fill="#ffffff"/><rect x="68" y="68" height="888" width="888" clip-path="url('#clip-path-dot-color')" fill="#000000"/><rect x="68" y="68" height="168" width="168" clip-path="url('#clip-path-corners-square-color-0-0')" fill="#000000"/><rect x="116" y="116" height="72" width="72" clip-path="url('#clip-path-corners-dot-color-0-0')" fill="#000000"/><rect x="788" y="68" height="168" width="168" clip-path="url('#clip-path-corners-square-color-1-0')" fill="#000000"/><rect x="836" y="116" height="72" width="72" clip-path="url('#clip-path-corners-dot-color-1-0')" fill="#000000"/><rect x="68" y="788" height="168" width="168" clip-path="url('#clip-path-corners-square-color-0-1')" fill="#000000"/><rect x="116" y="836" height="72" width="72" clip-path="url('#clip-path-corners-dot-color-0-1')" fill="#000000"/><svg xmlns="http://www.w3.org/2000/svg" fill="none" viewBox="0 0 64 64" height="216px" width="216px" x="404" y="404"><path fill="#0d34b4" d="M26.742 63.794V42.065c0-2.315.525-4.51 1.462-6.475a15 15 0 0 1-6.476 1.46L0 37.053V26.947h21.728a5 5 0 0 0 3.535-1.478 5 5 0 0 0 1.479-3.535V.206h10.104v21.728c0 2.314-.526 4.51-1.462 6.474a15 15 0 0 1 6.475-1.46h21.729v10.104H41.859c-1.37 0-2.624.566-3.535 1.477a5 5 0 0 0-1.477 3.537v21.728z" clip-rule="evenodd" fill-rule="evenodd"/><path fill="url(#a)" d="m12.886 5.945 15.363 15.364c2.934 2.933 4.401 6.805 4.402 10.677v.028c0 3.872-1.468 7.744-4.402 10.677L12.886 58.055l-7.147-7.147 15.364-15.363A5.02 5.02 0 0 0 22.573 32a5.02 5.02 0 0 0-1.47-3.544L5.739 13.092z" clip-rule="evenodd" fill-rule="evenodd"/><path fill="url(#b)" d="M25.827 24.938a14.84 14.84 0 0 1-6.183 12.064l-.05.05L5.74 50.91l7.146 7.146L26.742 44.2l1.508-1.508a14.94 14.94 0 0 0 3.544-5.634 15.2 15.2 0 0 0 .857-5.045v-.026c0-1.71-.285-3.418-.857-5.045a14.94 14.94 0 0 0-3.544-5.634L26.74 19.8l-4.27-4.27a14.8 14.8 0 0 1 3.356 9.408" clip-rule="evenodd" fill-rule="evenodd"/><path fill="url(#c)" d="M25.827 24.938a14.84 14.84 0 0 1-6.183 12.064l-.05.05L5.74 50.91l7.146 7.146L26.742 44.2l1.508-1.508a14.94 14.94 0 0 0 3.544-5.634 15.2 15.2 0 0 0 .857-5.045v-.026c0-1.71-.285-3.418-.857-5.045a14.94 14.94 0 0 0-3.544-5.634L26.74 19.8l-4.27-4.27a14.8 14.8 0 0 1 3.356 9.408" clip-rule="evenodd" fill-rule="evenodd"/><path fill="url(#d)" d="m39.396 46.75 11.306 11.306 7.147-7.148-15.364-15.363A5.02 5.02 0 0 1 41.014 32a5.02 5.02 0 0 1 1.471-3.544l1.457-1.457a14.84 14.84 0 0 0-6.18 12.199 14.8 14.8 0 0 0 3.355 9.273z" clip-rule="evenodd" fill-rule="evenodd"/><path fill="url(#e)" d="M37.761 39.062a14.84 14.84 0 0 1 6.183-12.065l.05-.05 13.855-13.856-7.146-7.146L36.846 19.8l-1.508 1.508a14.9 14.9 0 0 0-3.544 5.634 15.2 15.2 0 0 0-.858 5.044v.027c0 1.709.286 3.417.858 5.045a14.94 14.94 0 0 0 3.544 5.634l1.509 1.508 4.27 4.27a14.8 14.8 0 0 1-3.355-9.273z" clip-rule="evenodd" fill-rule="evenodd"/><defs><linearGradient gradientUnits="userSpaceOnUse" y2="41.276" x2="26.724" y1="12.794" x1="1.07" id="a"><stop stop-color="#008bff"/><stop stop-color="#5fffec" offset="1"/></linearGradient><linearGradient gradientUnits="userSpaceOnUse" y2="17.775" x2="28.426" y1="43.443" x1="5.169" id="b"><stop stop-color="#008bff"/><stop stop-color="#5fffec" offset="1"/></linearGradient><linearGradient gradientUnits="userSpaceOnUse" y2="17.775" x2="28.426" y1="43.443" x1="5.169" id="c"><stop stop-color="#5fffec"/><stop stop-color="#008bff" offset="1"/></linearGradient><linearGradient gradientUnits="userSpaceOnUse" y2="57.293" x2="46.851" y1="30.864" x1="39.743" id="d"><stop stop-color="#5fffec"/><stop stop-color="#008bff" offset="1"/></linearGradient><linearGradient gradientUnits="userSpaceOnUse" y2="8.19" x2="53.623" y1="33.859" x1="30.366" id="e"><stop stop-color="#008bff"/><stop stop-color="#5fffec" offset="1"/></linearGradient></defs></svg></svg>