<?xml version="1.0" standalone="no"?>
<svg xmlns="http://www.w3.org/2000/svg" width="1024" height="1024" viewBox="0 0 1024 1024"><defs><clipPath id="clip-path-dot-color"><path d="M 68 284v 24h 24v -12a 12 12, 0, 0, 0, -12 -12" transform="rotate(-90,80,296)"/><path d="M 68 308v 24h 12a 12 12, 0, 0, 0, 0 -24" transform="rotate(90,80,320)"/><path d="M 68 404v 24h 12a 12 12, 0, 0, 0, 0 -24" transform="rotate(-90,80,416)"/><path d="M 68 428v 24h 12a 12 12, 0, 0, 0, 0 -24" transform="rotate(90,80,440)"/><circle cx="80" cy="488" r="12" transform="rotate(0,80,488)"/><path d="M 68 548v 24h 12a 12 12, 0, 0, 0, 0 -24" transform="rotate(180,80,560)"/><path d="M 68 596v 24h 24v -12a 12 12, 0, 0, 0, -12 -12" transform="rotate(-90,80,608)"/><path d="M 68 620v 24h 24v -12a 12 12, 0, 0, 0, -12 -12" transform="rotate(180,80,632)"/><path d="M 68 668v 24h 24v -12a 12 12, 0, 0, 0, -12 -12" transform="rotate(-90,80,680)"/><rect x="68" y="692" width="24" height="24" transform="rotate(0,80,704)"/><path d="M 68 716v 24h 24v -12a 12 12, 0, 0, 0, -12 -12" transform="rotate(180,80,728)"/><path d="M 92 284v 24h 12a 12 12, 0, 0, 0, 0 -24" transform="rotate(0,104,296)"/><path d="M 92 332v 24h 24v -12a 12 12, 0, 0, 0, -12 -12" transform="rotate(-90,104,344)"/><rect x="92" y="356" width="24" height="24" transform="rotate(0,104,368)"/><path d="M 92 380v 24h 24v -12a 12 12, 0, 0, 0, -12 -12" transform="rotate(180,104,392)"/><path d="M 92 452v 24h 12a 12 12, 0, 0, 0, 0 -24" transform="rotate(180,104,464)"/><circle cx="104" cy="512" r="12" transform="rotate(0,104,512)"/><path d="M 92 548v 24h 24v -12a 12 12, 0, 0, 0, -12 -12" transform="rotate(0,104,560)"/><rect x="92" y="572" width="24" height="24" transform="rotate(0,104,584)"/><rect x="92" y="596" width="24" height="24" transform="rotate(0,104,608)"/><path d="M 92 620v 24h 24v -12a 12 12, 0, 0, 0, -12 -12" transform="rotate(90,104,632)"/><path d="M 92 668v 24h 24v -12a 12 12, 0, 0, 0, -12 -12" transform="rotate(0,104,680)"/><rect x="92" y="692" width="24" height="24" transform="rotate(0,104,704)"/><path d="M 92 716v 24h 24v -12a 12 12, 0, 0, 0, -12 -12" transform="rotate(90,104,728)"/><path d="M 116 308v 24h 12a 12 12, 0, 0, 0, 0 -24" transform="rotate(-90,128,320)"/><path d="M 116 332v 24h 24v -12a 12 12, 0, 0, 0, -12 -12" transform="rotate(90,128,344)"/><rect x="116" y="380" width="24" height="24" transform="rotate(0,128,392)"/><rect x="116" y="452" width="24" height="24" transform="rotate(0,128,464)"/><path d="M 116 476v 24h 12a 12 12, 0, 0, 0, 0 -24" transform="rotate(90,128,488)"/><rect x="116" y="596" width="24" height="24" transform="rotate(0,128,608)"/><path d="M 116 644v 24h 12a 12 12, 0, 0, 0, 0 -24" transform="rotate(180,128,656)"/><path d="M 140 380v 24h 12a 12 12, 0, 0, 0, 0 -24" transform="rotate(0,152,392)"/><rect x="140" y="452" width="24" height="24" transform="rotate(0,152,464)"/><path d="M 140 500v 24h 24v -12a 12 12, 0, 0, 0, -12 -12" transform="rotate(-90,152,512)"/><path d="M 140 524v 24h 12a 12 12, 0, 0, 0, 0 -24" transform="rotate(90,152,536)"/><rect x="140" y="596" width="24" height="24" transform="rotate(0,152,608)"/><rect x="140" y="620" width="24" height="24" transform="rotate(0,152,632)"/><path d="M 140 644v 24h 24v -12a 12 12, 0, 0, 0, -12 -12" transform="rotate(90,152,656)"/><circle cx="152" cy="704" r="12" transform="rotate(0,152,704)"/><path d="M 164 332v 24h 12a 12 12, 0, 0, 0, 0 -24" transform="rotate(-90,176,344)"/><path d="M 164 356v 24h 24v -12a 12 12, 0, 0, 0, -12 -12" transform="rotate(180,176,368)"/><rect x="164" y="452" width="24" height="24" transform="rotate(0,176,464)"/><rect x="164" y="476" width="24" height="24" transform="rotate(0,176,488)"/><rect x="164" y="500" width="24" height="24" transform="rotate(0,176,512)"/><circle cx="176" cy="560" r="12" transform="rotate(0,176,560)"/><rect x="164" y="596" width="24" height="24" transform="rotate(0,176,608)"/><path d="M 164 620v 24h 24v -12a 12 12, 0, 0, 0, -12 -12" transform="rotate(90,176,632)"/><path d="M 164 668v 24h 12a 12 12, 0, 0, 0, 0 -24" transform="rotate(180,176,680)"/><path d="M 164 716v 24h 12a 12 12, 0, 0, 0, 0 -24" transform="rotate(180,176,728)"/><path d="M 188 260v 24h 24v -12a 12 12, 0, 0, 0, -12 -12" transform="rotate(-90,200,272)"/><path d="M 188 284v 24h 12a 12 12, 0, 0, 0, 0 -24" transform="rotate(90,200,296)"/><rect x="188" y="356" width="24" height="24" transform="rotate(0,200,368)"/><path d="M 188 404v 24h 12a 12 12, 0, 0, 0, 0 -24" transform="rotate(180,200,416)"/><rect x="188" y="452" width="24" height="24" transform="rotate(0,200,464)"/><rect x="188" y="476" width="24" height="24" transform="rotate(0,200,488)"/><rect x="188" y="500" width="24" height="24" transform="rotate(0,200,512)"/><path d="M 188 524v 24h 12a 12 12, 0, 0, 0, 0 -24" transform="rotate(90,200,536)"/><path d="M 188 572v 24h 12a 12 12, 0, 0, 0, 0 -24" transform="rotate(-90,200,584)"/><rect x="188" y="596" width="24" height="24" transform="rotate(0,200,608)"/><path d="M 188 644v 24h 24v -12a 12 12, 0, 0, 0, -12 -12" transform="rotate(-90,200,656)"/><path d="M 188 668v 24h 24v -12a 12 12, 0, 0, 0, -12 -12" transform="rotate(90,200,680)"/><path d="M 188 716v 24h 12a 12 12, 0, 0, 0, 0 -24" transform="rotate(0,200,728)"/><path d="M 212 260v 24h 12a 12 12, 0, 0, 0, 0 -24" transform="rotate(0,224,272)"/><path d="M 212 308v 24h 12a 12 12, 0, 0, 0, 0 -24" transform="rotate(180,224,320)"/><rect x="212" y="356" width="24" height="24" transform="rotate(0,224,368)"/><rect x="212" y="404" width="24" height="24" transform="rotate(0,224,416)"/><rect x="212" y="452" width="24" height="24" transform="rotate(0,224,464)"/><path d="M 212 500v 24h 12a 12 12, 0, 0, 0, 0 -24" transform="rotate(0,224,512)"/><circle cx="224" cy="560" r="12" transform="rotate(0,224,560)"/><path d="M 212 596v 24h 12a 12 12, 0, 0, 0, 0 -24" transform="rotate(0,224,608)"/><path d="M 212 644v 24h 12a 12 12, 0, 0, 0, 0 -24" transform="rotate(0,224,656)"/><path d="M 212 692v 24h 12a 12 12, 0, 0, 0, 0 -24" transform="rotate(180,224,704)"/><path d="M 212 740v 24h 12a 12 12, 0, 0, 0, 0 -24" transform="rotate(180,224,752)"/><path d="M 236 308v 24h 12a 12 12, 0, 0, 0, 0 -24" transform="rotate(0,248,320)"/><rect x="236" y="356" width="24" height="24" transform="rotate(0,248,368)"/><rect x="236" y="404" width="24" height="24" transform="rotate(0,248,416)"/><path d="M 236 452v 24h 12a 12 12, 0, 0, 0, 0 -24" transform="rotate(0,248,464)"/><circle cx="248" cy="536" r="12" transform="rotate(0,248,536)"/><path d="M 236 572v 24h 12a 12 12, 0, 0, 0, 0 -24" transform="rotate(180,248,584)"/><path d="M 236 620v 24h 12a 12 12, 0, 0, 0, 0 -24" transform="rotate(180,248,632)"/><path d="M 236 692v 24h 12a 12 12, 0, 0, 0, 0 -24" transform="rotate(0,248,704)"/><rect x="236" y="740" width="24" height="24" transform="rotate(0,248,752)"/><circle cx="272" cy="80" r="12" transform="rotate(0,272,80)"/><circle cx="272" cy="152" r="12" transform="rotate(0,272,152)"/><path d="M 260 188v 24h 12a 12 12, 0, 0, 0, 0 -24" transform="rotate(-90,272,200)"/><path d="M 260 212v 24h 12a 12 12, 0, 0, 0, 0 -24" transform="rotate(90,272,224)"/><path d="M 260 260v 24h 12a 12 12, 0, 0, 0, 0 -24" transform="rotate(-90,272,272)"/><path d="M 260 284v 24h 24v -12a 12 12, 0, 0, 0, -12 -12" transform="rotate(180,272,296)"/><rect x="260" y="356" width="24" height="24" transform="rotate(0,272,368)"/><rect x="260" y="404" width="24" height="24" transform="rotate(0,272,416)"/><path d="M 260 476v 24h 12a 12 12, 0, 0, 0, 0 -24" transform="rotate(180,272,488)"/><rect x="260" y="572" width="24" height="24" transform="rotate(0,272,584)"/><path d="M 260 620v 24h 24v -12a 12 12, 0, 0, 0, -12 -12" transform="rotate(0,272,632)"/><rect x="260" y="644" width="24" height="24" transform="rotate(0,272,656)"/><path d="M 260 668v 24h 24v -12a 12 12, 0, 0, 0, -12 -12" transform="rotate(180,272,680)"/><path d="M 260 716v 24h 12a 12 12, 0, 0, 0, 0 -24" transform="rotate(-90,272,728)"/><rect x="260" y="740" width="24" height="24" transform="rotate(0,272,752)"/><path d="M 260 764v 24h 24v -12a 12 12, 0, 0, 0, -12 -12" transform="rotate(180,272,776)"/><circle cx="272" cy="824" r="12" transform="rotate(0,272,824)"/><circle cx="296" cy="248" r="12" transform="rotate(0,296,248)"/><path d="M 284 284v 24h 24v -12a 12 12, 0, 0, 0, -12 -12" transform="rotate(0,296,296)"/><path d="M 284 308v 24h 12a 12 12, 0, 0, 0, 0 -24" transform="rotate(90,296,320)"/><path d="M 284 356v 24h 24v -12a 12 12, 0, 0, 0, -12 -12" transform="rotate(0,296,368)"/><rect x="284" y="380" width="24" height="24" transform="rotate(0,296,392)"/><rect x="284" y="404" width="24" height="24" transform="rotate(0,296,416)"/><path d="M 284 428v 24h 12a 12 12, 0, 0, 0, 0 -24" transform="rotate(90,296,440)"/><rect x="284" y="476" width="24" height="24" transform="rotate(0,296,488)"/><path d="M 284 524v 24h 12a 12 12, 0, 0, 0, 0 -24" transform="rotate(-90,296,536)"/><rect x="284" y="548" width="24" height="24" transform="rotate(0,296,560)"/><path d="M 284 572v 24h 24v -12a 12 12, 0, 0, 0, -12 -12" transform="rotate(90,296,584)"/><path d="M 284 644v 24h 24v -12a 12 12, 0, 0, 0, -12 -12" transform="rotate(0,296,656)"/><rect x="284" y="668" width="24" height="24" transform="rotate(0,296,680)"/><path d="M 284 692v 24h 12a 12 12, 0, 0, 0, 0 -24" transform="rotate(90,296,704)"/><rect x="284" y="764" width="24" height="24" transform="rotate(0,296,776)"/><path d="M 284 788v 24h 24v -12a 12 12, 0, 0, 0, -12 -12" transform="rotate(180,296,800)"/><path d="M 284 932v 24h 12a 12 12, 0, 0, 0, 0 -24" transform="rotate(180,296,944)"/><path d="M 308 68v 24h 24v -12a 12 12, 0, 0, 0, -12 -12" transform="rotate(-90,320,80)"/><rect x="308" y="92" width="24" height="24" transform="rotate(0,320,104)"/><rect x="308" y="116" width="24" height="24" transform="rotate(0,320,128)"/><rect x="308" y="140" width="24" height="24" transform="rotate(0,320,152)"/><path d="M 308 164v 24h 12a 12 12, 0, 0, 0, 0 -24" transform="rotate(90,320,176)"/><circle cx="320" cy="224" r="12" transform="rotate(0,320,224)"/><circle cx="320" cy="272" r="12" transform="rotate(0,320,272)"/><path d="M 308 404v 24h 12a 12 12, 0, 0, 0, 0 -24" transform="rotate(0,320,416)"/><path d="M 308 452v 24h 12a 12 12, 0, 0, 0, 0 -24" transform="rotate(-90,320,464)"/><path d="M 308 476v 24h 24v -12a 12 12, 0, 0, 0, -12 -12" transform="rotate(90,320,488)"/><path d="M 308 548v 24h 12a 12 12, 0, 0, 0, 0 -24" transform="rotate(0,320,560)"/><path d="M 308 740v 24h 24v -12a 12 12, 0, 0, 0, -12 -12" transform="rotate(-90,320,752)"/><rect x="308" y="764" width="24" height="24" transform="rotate(0,320,776)"/><rect x="308" y="788" width="24" height="24" transform="rotate(0,320,800)"/><path d="M 308 812v 24h 12a 12 12, 0, 0, 0, 0 -24" transform="rotate(90,320,824)"/><path d="M 308 860v 24h 12a 12 12, 0, 0, 0, 0 -24" transform="rotate(-90,320,872)"/><rect x="308" y="884" width="24" height="24" transform="rotate(0,320,896)"/><rect x="308" y="908" width="24" height="24" transform="rotate(0,320,920)"/><path d="M 308 932v 24h 24v -12a 12 12, 0, 0, 0, -12 -12" transform="rotate(90,320,944)"/><rect x="332" y="68" width="24" height="24" transform="rotate(0,344,80)"/><rect x="332" y="140" width="24" height="24" transform="rotate(0,344,152)"/><path d="M 332 308v 24h 12a 12 12, 0, 0, 0, 0 -24" transform="rotate(-90,344,320)"/><path d="M 332 332v 24h 12a 12 12, 0, 0, 0, 0 -24" transform="rotate(90,344,344)"/><path d="M 332 380v 24h 12a 12 12, 0, 0, 0, 0 -24" transform="rotate(180,344,392)"/><circle cx="344" cy="440" r="12" transform="rotate(0,344,440)"/><path d="M 332 572v 24h 12a 12 12, 0, 0, 0, 0 -24" transform="rotate(180,344,584)"/><path d="M 332 620v 24h 12a 12 12, 0, 0, 0, 0 -24" transform="rotate(-90,344,632)"/><rect x="332" y="644" width="24" height="24" transform="rotate(0,344,656)"/><rect x="332" y="668" width="24" height="24" transform="rotate(0,344,680)"/><rect x="332" y="692" width="24" height="24" transform="rotate(0,344,704)"/><rect x="332" y="716" width="24" height="24" transform="rotate(0,344,728)"/><path d="M 332 740v 24h 24v -12a 12 12, 0, 0, 0, -12 -12" transform="rotate(90,344,752)"/><circle cx="344" cy="848" r="12" transform="rotate(0,344,848)"/><rect x="356" y="68" width="24" height="24" transform="rotate(0,368,80)"/><rect x="356" y="140" width="24" height="24" transform="rotate(0,368,152)"/><path d="M 356 188v 24h 24v -12a 12 12, 0, 0, 0, -12 -12" transform="rotate(-90,368,200)"/><path d="M 356 212v 24h 12a 12 12, 0, 0, 0, 0 -24" transform="rotate(90,368,224)"/><rect x="356" y="380" width="24" height="24" transform="rotate(0,368,392)"/><path d="M 356 476v 24h 12a 12 12, 0, 0, 0, 0 -24" transform="rotate(180,368,488)"/><path d="M 356 524v 24h 12a 12 12, 0, 0, 0, 0 -24" transform="rotate(180,368,536)"/><rect x="356" y="572" width="24" height="24" transform="rotate(0,368,584)"/><path d="M 356 596v 24h 24v -12a 12 12, 0, 0, 0, -12 -12" transform="rotate(180,368,608)"/><rect x="356" y="644" width="24" height="24" transform="rotate(0,368,656)"/><path d="M 356 668v 24h 24v -12a 12 12, 0, 0, 0, -12 -12" transform="rotate(90,368,680)"/><path d="M 356 764v 24h 24v -12a 12 12, 0, 0, 0, -12 -12" transform="rotate(-90,368,776)"/><path d="M 356 788v 24h 24v -12a 12 12, 0, 0, 0, -12 -12" transform="rotate(180,368,800)"/><path d="M 356 908v 24h 12a 12 12, 0, 0, 0, 0 -24" transform="rotate(-90,368,920)"/><path d="M 356 932v 24h 24v -12a 12 12, 0, 0, 0, -12 -12" transform="rotate(180,368,944)"/><rect x="380" y="68" width="24" height="24" transform="rotate(0,392,80)"/><path d="M 380 116v 24h 12a 12 12, 0, 0, 0, 0 -24" transform="rotate(-90,392,128)"/><rect x="380" y="140" width="24" height="24" transform="rotate(0,392,152)"/><rect x="380" y="164" width="24" height="24" transform="rotate(0,392,176)"/><path d="M 380 188v 24h 24v -12a 12 12, 0, 0, 0, -12 -12" transform="rotate(90,392,200)"/><path d="M 380 236v 24h 12a 12 12, 0, 0, 0, 0 -24" transform="rotate(180,392,248)"/><path d="M 380 284v 24h 12a 12 12, 0, 0, 0, 0 -24" transform="rotate(-90,392,296)"/><path d="M 380 308v 24h 24v -12a 12 12, 0, 0, 0, -12 -12" transform="rotate(180,392,320)"/><rect x="380" y="380" width="24" height="24" transform="rotate(0,392,392)"/><path d="M 380 404v 24h 12a 12 12, 0, 0, 0, 0 -24" transform="rotate(90,392,416)"/><path d="M 380 452v 24h 12a 12 12, 0, 0, 0, 0 -24" transform="rotate(-90,392,464)"/><path d="M 380 476v 24h 24v -12a 12 12, 0, 0, 0, -12 -12" transform="rotate(90,392,488)"/><path d="M 380 524v 24h 24v -12a 12 12, 0, 0, 0, -12 -12" transform="rotate(0,392,536)"/><rect x="380" y="548" width="24" height="24" transform="rotate(0,392,560)"/><rect x="380" y="572" width="24" height="24" transform="rotate(0,392,584)"/><path d="M 380 596v 24h 24v -12a 12 12, 0, 0, 0, -12 -12" transform="rotate(90,392,608)"/><rect x="380" y="644" width="24" height="24" transform="rotate(0,392,656)"/><rect x="380" y="764" width="24" height="24" transform="rotate(0,392,776)"/><rect x="380" y="788" width="24" height="24" transform="rotate(0,392,800)"/><path d="M 380 812v 24h 24v -12a 12 12, 0, 0, 0, -12 -12" transform="rotate(180,392,824)"/><path d="M 380 884v 24h 12a 12 12, 0, 0, 0, 0 -24" transform="rotate(180,392,896)"/><rect x="380" y="932" width="24" height="24" transform="rotate(0,392,944)"/><rect x="404" y="68" width="24" height="24" transform="rotate(0,416,80)"/><path d="M 404 92v 24h 24v -12a 12 12, 0, 0, 0, -12 -12" transform="rotate(180,416,104)"/><path d="M 404 164v 24h 12a 12 12, 0, 0, 0, 0 -24" transform="rotate(0,416,176)"/><path d="M 404 212v 24h 12a 12 12, 0, 0, 0, 0 -24" transform="rotate(-90,416,224)"/><rect x="404" y="236" width="24" height="24" transform="rotate(0,416,248)"/><path d="M 404 260v 24h 12a 12 12, 0, 0, 0, 0 -24" transform="rotate(90,416,272)"/><path d="M 404 308v 24h 12a 12 12, 0, 0, 0, 0 -24" transform="rotate(0,416,320)"/><path d="M 404 356v 24h 12a 12 12, 0, 0, 0, 0 -24" transform="rotate(-90,416,368)"/><path d="M 404 380v 24h 24v -12a 12 12, 0, 0, 0, -12 -12" transform="rotate(90,416,392)"/><path d="M 404 620v 24h 12a 12 12, 0, 0, 0, 0 -24" transform="rotate(-90,416,632)"/><rect x="404" y="644" width="24" height="24" transform="rotate(0,416,656)"/><path d="M 404 668v 24h 24v -12a 12 12, 0, 0, 0, -12 -12" transform="rotate(180,416,680)"/><path d="M 404 764v 24h 24v -12a 12 12, 0, 0, 0, -12 -12" transform="rotate(0,416,776)"/><rect x="404" y="788" width="24" height="24" transform="rotate(0,416,800)"/><rect x="404" y="812" width="24" height="24" transform="rotate(0,416,824)"/><path d="M 404 836v 24h 24v -12a 12 12, 0, 0, 0, -12 -12" transform="rotate(180,416,848)"/><path d="M 404 884v 24h 24v -12a 12 12, 0, 0, 0, -12 -12" transform="rotate(0,416,896)"/><rect x="404" y="908" width="24" height="24" transform="rotate(0,416,920)"/><path d="M 404 932v 24h 24v -12a 12 12, 0, 0, 0, -12 -12" transform="rotate(90,416,944)"/><path d="M 428 68v 24h 24v -12a 12 12, 0, 0, 0, -12 -12" transform="rotate(0,440,80)"/><rect x="428" y="92" width="24" height="24" transform="rotate(0,440,104)"/><rect x="428" y="116" width="24" height="24" transform="rotate(0,440,128)"/><path d="M 428 140v 24h 24v -12a 12 12, 0, 0, 0, -12 -12" transform="rotate(180,440,152)"/><circle cx="440" cy="200" r="12" transform="rotate(0,440,200)"/><path d="M 428 236v 24h 12a 12 12, 0, 0, 0, 0 -24" transform="rotate(0,440,248)"/><circle cx="440" cy="344" r="12" transform="rotate(0,440,344)"/><path d="M 428 644v 24h 24v -12a 12 12, 0, 0, 0, -12 -12" transform="rotate(0,440,656)"/><path d="M 428 668v 24h 24v -12a 12 12, 0, 0, 0, -12 -12" transform="rotate(90,440,680)"/><path d="M 428 716v 24h 12a 12 12, 0, 0, 0, 0 -24" transform="rotate(-90,440,728)"/><path d="M 428 740v 24h 24v -12a 12 12, 0, 0, 0, -12 -12" transform="rotate(180,440,752)"/><path d="M 428 836v 24h 12a 12 12, 0, 0, 0, 0 -24" transform="rotate(0,440,848)"/><path d="M 452 92v 24h 12a 12 12, 0, 0, 0, 0 -24" transform="rotate(0,464,104)"/><rect x="452" y="140" width="24" height="24" transform="rotate(0,464,152)"/><path d="M 452 164v 24h 12a 12 12, 0, 0, 0, 0 -24" transform="rotate(90,464,176)"/><circle cx="464" cy="224" r="12" transform="rotate(0,464,224)"/><path d="M 452 260v 24h 24v -12a 12 12, 0, 0, 0, -12 -12" transform="rotate(-90,464,272)"/><path d="M 452 284v 24h 12a 12 12, 0, 0, 0, 0 -24" transform="rotate(90,464,296)"/><path d="M 452 620v 24h 12a 12 12, 0, 0, 0, 0 -24" transform="rotate(180,464,632)"/><circle cx="464" cy="704" r="12" transform="rotate(0,464,704)"/><path d="M 452 740v 24h 12a 12 12, 0, 0, 0, 0 -24" transform="rotate(0,464,752)"/><path d="M 452 788v 24h 12a 12 12, 0, 0, 0, 0 -24" transform="rotate(180,464,800)"/><path d="M 452 860v 24h 12a 12 12, 0, 0, 0, 0 -24" transform="rotate(-90,464,872)"/><path d="M 452 884v 24h 12a 12 12, 0, 0, 0, 0 -24" transform="rotate(90,464,896)"/><path d="M 452 932v 24h 12a 12 12, 0, 0, 0, 0 -24" transform="rotate(180,464,944)"/><path d="M 476 68v 24h 12a 12 12, 0, 0, 0, 0 -24" transform="rotate(180,488,80)"/><rect x="476" y="140" width="24" height="24" transform="rotate(0,488,152)"/><path d="M 476 236v 24h 24v -12a 12 12, 0, 0, 0, -12 -12" transform="rotate(-90,488,248)"/><path d="M 476 260v 24h 24v -12a 12 12, 0, 0, 0, -12 -12" transform="rotate(90,488,272)"/><circle cx="488" cy="344" r="12" transform="rotate(0,488,344)"/><path d="M 476 620v 24h 12a 12 12, 0, 0, 0, 0 -24" transform="rotate(0,488,632)"/><circle cx="488" cy="680" r="12" transform="rotate(0,488,680)"/><path d="M 476 788v 24h 24v -12a 12 12, 0, 0, 0, -12 -12" transform="rotate(0,488,800)"/><rect x="476" y="812" width="24" height="24" transform="rotate(0,488,824)"/><path d="M 476 836v 24h 24v -12a 12 12, 0, 0, 0, -12 -12" transform="rotate(180,488,848)"/><path d="M 476 908v 24h 24v -12a 12 12, 0, 0, 0, -12 -12" transform="rotate(-90,488,920)"/><rect x="476" y="932" width="24" height="24" transform="rotate(0,488,944)"/><path d="M 500 68v 24h 12a 12 12, 0, 0, 0, 0 -24" transform="rotate(0,512,80)"/><rect x="500" y="140" width="24" height="24" transform="rotate(0,512,152)"/><path d="M 500 212v 24h 12a 12 12, 0, 0, 0, 0 -24" transform="rotate(-90,512,224)"/><path d="M 500 236v 24h 24v -12a 12 12, 0, 0, 0, -12 -12" transform="rotate(90,512,248)"/><path d="M 500 284v 24h 24v -12a 12 12, 0, 0, 0, -12 -12" transform="rotate(-90,512,296)"/><path d="M 500 308v 24h 12a 12 12, 0, 0, 0, 0 -24" transform="rotate(90,512,320)"/><circle cx="512" cy="392" r="12" transform="rotate(0,512,392)"/><path d="M 500 644v 24h 12a 12 12, 0, 0, 0, 0 -24" transform="rotate(180,512,656)"/><path d="M 500 740v 24h 24v -12a 12 12, 0, 0, 0, -12 -12" transform="rotate(-90,512,752)"/><path d="M 500 764v 24h 12a 12 12, 0, 0, 0, 0 -24" transform="rotate(90,512,776)"/><rect x="500" y="812" width="24" height="24" transform="rotate(0,512,824)"/><path d="M 500 836v 24h 24v -12a 12 12, 0, 0, 0, -12 -12" transform="rotate(90,512,848)"/><rect x="500" y="908" width="24" height="24" transform="rotate(0,512,920)"/><path d="M 500 932v 24h 24v -12a 12 12, 0, 0, 0, -12 -12" transform="rotate(90,512,944)"/><path d="M 524 92v 24h 12a 12 12, 0, 0, 0, 0 -24" transform="rotate(-90,536,104)"/><rect x="524" y="116" width="24" height="24" transform="rotate(0,536,128)"/><path d="M 524 140v 24h 24v -12a 12 12, 0, 0, 0, -12 -12" transform="rotate(90,536,152)"/><path d="M 524 260v 24h 12a 12 12, 0, 0, 0, 0 -24" transform="rotate(-90,536,272)"/><path d="M 524 284v 24h 24v -12a 12 12, 0, 0, 0, -12 -12" transform="rotate(90,536,296)"/><path d="M 524 332v 24h 24v -12a 12 12, 0, 0, 0, -12 -12" transform="rotate(-90,536,344)"/><path d="M 524 356v 24h 12a 12 12, 0, 0, 0, 0 -24" transform="rotate(90,536,368)"/><rect x="524" y="644" width="24" height="24" transform="rotate(0,536,656)"/><path d="M 524 692v 24h 24v -12a 12 12, 0, 0, 0, -12 -12" transform="rotate(-90,536,704)"/><rect x="524" y="716" width="24" height="24" transform="rotate(0,536,728)"/><path d="M 524 740v 24h 24v -12a 12 12, 0, 0, 0, -12 -12" transform="rotate(90,536,752)"/><path d="M 524 812v 24h 12a 12 12, 0, 0, 0, 0 -24" transform="rotate(0,536,824)"/><path d="M 524 860v 24h 24v -12a 12 12, 0, 0, 0, -12 -12" transform="rotate(-90,536,872)"/><rect x="524" y="884" width="24" height="24" transform="rotate(0,536,896)"/><rect x="524" y="908" width="24" height="24" transform="rotate(0,536,920)"/><circle cx="560" cy="224" r="12" transform="rotate(0,560,224)"/><path d="M 548 308v 24h 12a 12 12, 0, 0, 0, 0 -24" transform="rotate(-90,560,320)"/><rect x="548" y="332" width="24" height="24" transform="rotate(0,560,344)"/><path d="M 548 620v 24h 12a 12 12, 0, 0, 0, 0 -24" transform="rotate(-90,560,632)"/><rect x="548" y="644" width="24" height="24" transform="rotate(0,560,656)"/><rect x="548" y="668" width="24" height="24" transform="rotate(0,560,680)"/><rect x="548" y="692" width="24" height="24" transform="rotate(0,560,704)"/><path d="M 548 788v 24h 12a 12 12, 0, 0, 0, 0 -24" transform="rotate(180,560,800)"/><path d="M 548 836v 24h 12a 12 12, 0, 0, 0, 0 -24" transform="rotate(-90,560,848)"/><rect x="548" y="860" width="24" height="24" transform="rotate(0,560,872)"/><rect x="548" y="908" width="24" height="24" transform="rotate(0,560,920)"/><circle cx="584" cy="80" r="12" transform="rotate(0,584,80)"/><path d="M 572 116v 24h 12a 12 12, 0, 0, 0, 0 -24" transform="rotate(180,584,128)"/><path d="M 572 164v 24h 24v -12a 12 12, 0, 0, 0, -12 -12" transform="rotate(-90,584,176)"/><path d="M 572 188v 24h 24v -12a 12 12, 0, 0, 0, -12 -12" transform="rotate(180,584,200)"/><path d="M 572 236v 24h 12a 12 12, 0, 0, 0, 0 -24" transform="rotate(180,584,248)"/><rect x="572" y="332" width="24" height="24" transform="rotate(0,584,344)"/><path d="M 572 380v 24h 12a 12 12, 0, 0, 0, 0 -24" transform="rotate(180,584,392)"/><rect x="572" y="668" width="24" height="24" transform="rotate(0,584,680)"/><path d="M 572 692v 24h 24v -12a 12 12, 0, 0, 0, -12 -12" transform="rotate(90,584,704)"/><path d="M 572 740v 24h 24v -12a 12 12, 0, 0, 0, -12 -12" transform="rotate(-90,584,752)"/><rect x="572" y="764" width="24" height="24" transform="rotate(0,584,776)"/><rect x="572" y="788" width="24" height="24" transform="rotate(0,584,800)"/><path d="M 572 812v 24h 12a 12 12, 0, 0, 0, 0 -24" transform="rotate(90,584,824)"/><path d="M 572 860v 24h 12a 12 12, 0, 0, 0, 0 -24" transform="rotate(0,584,872)"/><rect x="572" y="908" width="24" height="24" transform="rotate(0,584,920)"/><path d="M 572 932v 24h 24v -12a 12 12, 0, 0, 0, -12 -12" transform="rotate(180,584,944)"/><path d="M 596 116v 24h 12a 12 12, 0, 0, 0, 0 -24" transform="rotate(0,608,128)"/><rect x="596" y="164" width="24" height="24" transform="rotate(0,608,176)"/><rect x="596" y="188" width="24" height="24" transform="rotate(0,608,200)"/><rect x="596" y="212" width="24" height="24" transform="rotate(0,608,224)"/><rect x="596" y="236" width="24" height="24" transform="rotate(0,608,248)"/><circle cx="608" cy="296" r="12" transform="rotate(0,608,296)"/><path d="M 596 332v 24h 12a 12 12, 0, 0, 0, 0 -24" transform="rotate(0,608,344)"/><path d="M 596 380v 24h 12a 12 12, 0, 0, 0, 0 -24" transform="rotate(0,608,392)"/><path d="M 596 644v 24h 24v -12a 12 12, 0, 0, 0, -12 -12" transform="rotate(-90,608,656)"/><rect x="596" y="668" width="24" height="24" transform="rotate(0,608,680)"/><rect x="596" y="740" width="24" height="24" transform="rotate(0,608,752)"/><rect x="596" y="764" width="24" height="24" transform="rotate(0,608,776)"/><rect x="596" y="908" width="24" height="24" transform="rotate(0,608,920)"/><path d="M 596 932v 24h 24v -12a 12 12, 0, 0, 0, -12 -12" transform="rotate(90,608,944)"/><path d="M 620 68v 24h 12a 12 12, 0, 0, 0, 0 -24" transform="rotate(180,632,80)"/><path d="M 620 140v 24h 12a 12 12, 0, 0, 0, 0 -24" transform="rotate(-90,632,152)"/><rect x="620" y="164" width="24" height="24" transform="rotate(0,632,176)"/><rect x="620" y="188" width="24" height="24" transform="rotate(0,632,200)"/><path d="M 620 236v 24h 12a 12 12, 0, 0, 0, 0 -24" transform="rotate(0,632,248)"/><circle cx="632" cy="416" r="12" transform="rotate(0,632,416)"/><circle cx="632" cy="488" r="12" transform="rotate(0,632,488)"/><circle cx="632" cy="536" r="12" transform="rotate(0,632,536)"/><path d="M 620 572v 24h 12a 12 12, 0, 0, 0, 0 -24" transform="rotate(-90,632,584)"/><path d="M 620 596v 24h 24v -12a 12 12, 0, 0, 0, -12 -12" transform="rotate(180,632,608)"/><path d="M 620 644v 24h 24v -12a 12 12, 0, 0, 0, -12 -12" transform="rotate(0,632,656)"/><rect x="620" y="668" width="24" height="24" transform="rotate(0,632,680)"/><rect x="620" y="692" width="24" height="24" transform="rotate(0,632,704)"/><rect x="620" y="716" width="24" height="24" transform="rotate(0,632,728)"/><rect x="620" y="740" width="24" height="24" transform="rotate(0,632,752)"/><path d="M 620 764v 24h 24v -12a 12 12, 0, 0, 0, -12 -12" transform="rotate(90,632,776)"/><rect x="620" y="908" width="24" height="24" transform="rotate(0,632,920)"/><path d="M 644 68v 24h 12a 12 12, 0, 0, 0, 0 -24" transform="rotate(0,656,80)"/><path d="M 644 116v 24h 12a 12 12, 0, 0, 0, 0 -24" transform="rotate(180,656,128)"/><rect x="644" y="164" width="24" height="24" transform="rotate(0,656,176)"/><rect x="644" y="188" width="24" height="24" transform="rotate(0,656,200)"/><path d="M 644 212v 24h 12a 12 12, 0, 0, 0, 0 -24" transform="rotate(90,656,224)"/><circle cx="656" cy="296" r="12" transform="rotate(0,656,296)"/><path d="M 644 356v 24h 12a 12 12, 0, 0, 0, 0 -24" transform="rotate(-90,656,368)"/><path d="M 644 380v 24h 24v -12a 12 12, 0, 0, 0, -12 -12" transform="rotate(180,656,392)"/><path d="M 644 548v 24h 12a 12 12, 0, 0, 0, 0 -24" transform="rotate(180,656,560)"/><rect x="644" y="596" width="24" height="24" transform="rotate(0,656,608)"/><path d="M 644 620v 24h 12a 12 12, 0, 0, 0, 0 -24" transform="rotate(90,656,632)"/><path d="M 644 668v 24h 24v -12a 12 12, 0, 0, 0, -12 -12" transform="rotate(0,656,680)"/><rect x="644" y="692" width="24" height="24" transform="rotate(0,656,704)"/><path d="M 644 716v 24h 24v -12a 12 12, 0, 0, 0, -12 -12" transform="rotate(90,656,728)"/><path d="M 644 788v 24h 12a 12 12, 0, 0, 0, 0 -24" transform="rotate(180,656,800)"/><path d="M 644 860v 24h 12a 12 12, 0, 0, 0, 0 -24" transform="rotate(180,656,872)"/><rect x="644" y="908" width="24" height="24" transform="rotate(0,656,920)"/><path d="M 668 92v 24h 12a 12 12, 0, 0, 0, 0 -24" transform="rotate(-90,680,104)"/><rect x="668" y="116" width="24" height="24" transform="rotate(0,680,128)"/><rect x="668" y="140" width="24" height="24" transform="rotate(0,680,152)"/><path d="M 668 164v 24h 24v -12a 12 12, 0, 0, 0, -12 -12" transform="rotate(90,680,176)"/><circle cx="680" cy="248" r="12" transform="rotate(0,680,248)"/><circle cx="680" cy="344" r="12" transform="rotate(0,680,344)"/><path d="M 668 380v 24h 24v -12a 12 12, 0, 0, 0, -12 -12" transform="rotate(0,680,392)"/><rect x="668" y="404" width="24" height="24" transform="rotate(0,680,416)"/><rect x="668" y="428" width="24" height="24" transform="rotate(0,680,440)"/><path d="M 668 452v 24h 12a 12 12, 0, 0, 0, 0 -24" transform="rotate(90,680,464)"/><path d="M 668 548v 24h 24v -12a 12 12, 0, 0, 0, -12 -12" transform="rotate(0,680,560)"/><rect x="668" y="572" width="24" height="24" transform="rotate(0,680,584)"/><rect x="668" y="596" width="24" height="24" transform="rotate(0,680,608)"/><path d="M 668 692v 24h 12a 12 12, 0, 0, 0, 0 -24" transform="rotate(0,680,704)"/><circle cx="680" cy="752" r="12" transform="rotate(0,680,752)"/><rect x="668" y="788" width="24" height="24" transform="rotate(0,680,800)"/><path d="M 668 812v 24h 12a 12 12, 0, 0, 0, 0 -24" transform="rotate(90,680,824)"/><rect x="668" y="860" width="24" height="24" transform="rotate(0,680,872)"/><rect x="668" y="884" width="24" height="24" transform="rotate(0,680,896)"/><rect x="668" y="908" width="24" height="24" transform="rotate(0,680,920)"/><path d="M 668 932v 24h 24v -12a 12 12, 0, 0, 0, -12 -12" transform="rotate(180,680,944)"/><circle cx="704" cy="80" r="12" transform="rotate(0,704,80)"/><path d="M 692 140v 24h 12a 12 12, 0, 0, 0, 0 -24" transform="rotate(0,704,152)"/><circle cx="704" cy="224" r="12" transform="rotate(0,704,224)"/><circle cx="704" cy="296" r="12" transform="rotate(0,704,296)"/><circle cx="704" cy="368" r="12" transform="rotate(0,704,368)"/><rect x="692" y="404" width="24" height="24" transform="rotate(0,704,416)"/><path d="M 692 476v 24h 24v -12a 12 12, 0, 0, 0, -12 -12" transform="rotate(-90,704,488)"/><rect x="692" y="500" width="24" height="24" transform="rotate(0,704,512)"/><path d="M 692 524v 24h 12a 12 12, 0, 0, 0, 0 -24" transform="rotate(90,704,536)"/><rect x="692" y="596" width="24" height="24" transform="rotate(0,704,608)"/><path d="M 692 620v 24h 12a 12 12, 0, 0, 0, 0 -24" transform="rotate(90,704,632)"/><path d="M 692 668v 24h 12a 12 12, 0, 0, 0, 0 -24" transform="rotate(180,704,680)"/><path d="M 692 788v 24h 12a 12 12, 0, 0, 0, 0 -24" transform="rotate(0,704,800)"/><rect x="692" y="860" width="24" height="24" transform="rotate(0,704,872)"/><path d="M 692 884v 24h 24v -12a 12 12, 0, 0, 0, -12 -12" transform="rotate(90,704,896)"/><rect x="692" y="932" width="24" height="24" transform="rotate(0,704,944)"/><path d="M 716 92v 24h 12a 12 12, 0, 0, 0, 0 -24" transform="rotate(180,728,104)"/><path d="M 716 164v 24h 12a 12 12, 0, 0, 0, 0 -24" transform="rotate(-90,728,176)"/><path d="M 716 188v 24h 24v -12a 12 12, 0, 0, 0, -12 -12" transform="rotate(180,728,200)"/><path d="M 716 260v 24h 12a 12 12, 0, 0, 0, 0 -24" transform="rotate(180,728,272)"/><path d="M 716 332v 24h 12a 12 12, 0, 0, 0, 0 -24" transform="rotate(180,728,344)"/><rect x="716" y="404" width="24" height="24" transform="rotate(0,728,416)"/><path d="M 716 428v 24h 12a 12 12, 0, 0, 0, 0 -24" transform="rotate(90,728,440)"/><rect x="716" y="476" width="24" height="24" transform="rotate(0,728,488)"/><path d="M 716 500v 24h 24v -12a 12 12, 0, 0, 0, -12 -12" transform="rotate(90,728,512)"/><path d="M 716 548v 24h 24v -12a 12 12, 0, 0, 0, -12 -12" transform="rotate(-90,728,560)"/><rect x="716" y="572" width="24" height="24" transform="rotate(0,728,584)"/><rect x="716" y="596" width="24" height="24" transform="rotate(0,728,608)"/><path d="M 716 668v 24h 12a 12 12, 0, 0, 0, 0 -24" transform="rotate(0,728,680)"/><circle cx="728" cy="728" r="12" transform="rotate(0,728,728)"/><path d="M 716 860v 24h 12a 12 12, 0, 0, 0, 0 -24" transform="rotate(0,728,872)"/><path d="M 716 908v 24h 24v -12a 12 12, 0, 0, 0, -12 -12" transform="rotate(-90,728,920)"/><rect x="716" y="932" width="24" height="24" transform="rotate(0,728,944)"/><path d="M 740 68v 24h 12a 12 12, 0, 0, 0, 0 -24" transform="rotate(-90,752,80)"/><rect x="740" y="92" width="24" height="24" transform="rotate(0,752,104)"/><rect x="740" y="116" width="24" height="24" transform="rotate(0,752,128)"/><path d="M 740 140v 24h 12a 12 12, 0, 0, 0, 0 -24" transform="rotate(90,752,152)"/><path d="M 740 188v 24h 24v -12a 12 12, 0, 0, 0, -12 -12" transform="rotate(0,752,200)"/><path d="M 740 212v 24h 12a 12 12, 0, 0, 0, 0 -24" transform="rotate(90,752,224)"/><rect x="740" y="260" width="24" height="24" transform="rotate(0,752,272)"/><path d="M 740 308v 24h 12a 12 12, 0, 0, 0, 0 -24" transform="rotate(-90,752,320)"/><rect x="740" y="332" width="24" height="24" transform="rotate(0,752,344)"/><path d="M 740 356v 24h 12a 12 12, 0, 0, 0, 0 -24" transform="rotate(90,752,368)"/><path d="M 740 404v 24h 12a 12 12, 0, 0, 0, 0 -24" transform="rotate(0,752,416)"/><path d="M 740 476v 24h 12a 12 12, 0, 0, 0, 0 -24" transform="rotate(0,752,488)"/><path d="M 740 548v 24h 24v -12a 12 12, 0, 0, 0, -12 -12" transform="rotate(0,752,560)"/><rect x="740" y="572" width="24" height="24" transform="rotate(0,752,584)"/><path d="M 740 596v 24h 24v -12a 12 12, 0, 0, 0, -12 -12" transform="rotate(90,752,608)"/><path d="M 740 644v 24h 12a 12 12, 0, 0, 0, 0 -24" transform="rotate(180,752,656)"/><path d="M 740 740v 24h 24v -12a 12 12, 0, 0, 0, -12 -12" transform="rotate(-90,752,752)"/><rect x="740" y="764" width="24" height="24" transform="rotate(0,752,776)"/><rect x="740" y="788" width="24" height="24" transform="rotate(0,752,800)"/><rect x="740" y="812" width="24" height="24" transform="rotate(0,752,824)"/><path d="M 740 836v 24h 24v -12a 12 12, 0, 0, 0, -12 -12" transform="rotate(180,752,848)"/><path d="M 740 884v 24h 12a 12 12, 0, 0, 0, 0 -24" transform="rotate(-90,752,896)"/><rect x="740" y="908" width="24" height="24" transform="rotate(0,752,920)"/><rect x="740" y="932" width="24" height="24" transform="rotate(0,752,944)"/><path d="M 764 260v 24h 12a 12 12, 0, 0, 0, 0 -24" transform="rotate(0,776,272)"/><path d="M 764 380v 24h 12a 12 12, 0, 0, 0, 0 -24" transform="rotate(180,776,392)"/><circle cx="776" cy="464" r="12" transform="rotate(0,776,464)"/><path d="M 764 620v 24h 12a 12 12, 0, 0, 0, 0 -24" transform="rotate(-90,776,632)"/><rect x="764" y="644" width="24" height="24" transform="rotate(0,776,656)"/><rect x="764" y="668" width="24" height="24" transform="rotate(0,776,680)"/><rect x="764" y="692" width="24" height="24" transform="rotate(0,776,704)"/><rect x="764" y="716" width="24" height="24" transform="rotate(0,776,728)"/><rect x="764" y="740" width="24" height="24" transform="rotate(0,776,752)"/><rect x="764" y="836" width="24" height="24" transform="rotate(0,776,848)"/><path d="M 764 860v 24h 24v -12a 12 12, 0, 0, 0, -12 -12" transform="rotate(180,776,872)"/><rect x="764" y="932" width="24" height="24" transform="rotate(0,776,944)"/><path d="M 788 284v 24h 12a 12 12, 0, 0, 0, 0 -24" transform="rotate(-90,800,296)"/><path d="M 788 308v 24h 12a 12 12, 0, 0, 0, 0 -24" transform="rotate(90,800,320)"/><path d="M 788 356v 24h 24v -12a 12 12, 0, 0, 0, -12 -12" transform="rotate(-90,800,368)"/><rect x="788" y="380" width="24" height="24" transform="rotate(0,800,392)"/><path d="M 788 500v 24h 12a 12 12, 0, 0, 0, 0 -24" transform="rotate(180,800,512)"/><circle cx="800" cy="584" r="12" transform="rotate(0,800,584)"/><path d="M 788 668v 24h 24v -12a 12 12, 0, 0, 0, -12 -12" transform="rotate(0,800,680)"/><rect x="788" y="692" width="24" height="24" transform="rotate(0,800,704)"/><rect x="788" y="716" width="24" height="24" transform="rotate(0,800,728)"/><rect x="788" y="740" width="24" height="24" transform="rotate(0,800,752)"/><circle cx="800" cy="800" r="12" transform="rotate(0,800,800)"/><rect x="788" y="836" width="24" height="24" transform="rotate(0,800,848)"/><rect x="788" y="860" width="24" height="24" transform="rotate(0,800,872)"/><path d="M 788 932v 24h 12a 12 12, 0, 0, 0, 0 -24" transform="rotate(0,800,944)"/><circle cx="824" cy="272" r="12" transform="rotate(0,824,272)"/><path d="M 812 332v 24h 12a 12 12, 0, 0, 0, 0 -24" transform="rotate(-90,824,344)"/><rect x="812" y="356" width="24" height="24" transform="rotate(0,824,368)"/><rect x="812" y="380" width="24" height="24" transform="rotate(0,824,392)"/><circle cx="824" cy="440" r="12" transform="rotate(0,824,440)"/><path d="M 812 476v 24h 24v -12a 12 12, 0, 0, 0, -12 -12" transform="rotate(-90,824,488)"/><rect x="812" y="500" width="24" height="24" transform="rotate(0,824,512)"/><path d="M 812 524v 24h 12a 12 12, 0, 0, 0, 0 -24" transform="rotate(90,824,536)"/><path d="M 812 596v 24h 12a 12 12, 0, 0, 0, 0 -24" transform="rotate(-90,824,608)"/><rect x="812" y="620" width="24" height="24" transform="rotate(0,824,632)"/><path d="M 812 644v 24h 12a 12 12, 0, 0, 0, 0 -24" transform="rotate(90,824,656)"/><path d="M 812 716v 24h 24v -12a 12 12, 0, 0, 0, -12 -12" transform="rotate(0,824,728)"/><rect x="812" y="740" width="24" height="24" transform="rotate(0,824,752)"/><rect x="812" y="836" width="24" height="24" transform="rotate(0,824,848)"/><rect x="812" y="860" width="24" height="24" transform="rotate(0,824,872)"/><path d="M 812 884v 24h 12a 12 12, 0, 0, 0, 0 -24" transform="rotate(90,824,896)"/><path d="M 836 284v 24h 12a 12 12, 0, 0, 0, 0 -24" transform="rotate(-90,848,296)"/><path d="M 836 308v 24h 24v -12a 12 12, 0, 0, 0, -12 -12" transform="rotate(180,848,320)"/><rect x="836" y="380" width="24" height="24" transform="rotate(0,848,392)"/><path d="M 836 404v 24h 12a 12 12, 0, 0, 0, 0 -24" transform="rotate(90,848,416)"/><path d="M 836 452v 24h 24v -12a 12 12, 0, 0, 0, -12 -12" transform="rotate(-90,848,464)"/><rect x="836" y="476" width="24" height="24" transform="rotate(0,848,488)"/><rect x="836" y="500" width="24" height="24" transform="rotate(0,848,512)"/><circle cx="848" cy="560" r="12" transform="rotate(0,848,560)"/><path d="M 836 620v 24h 12a 12 12, 0, 0, 0, 0 -24" transform="rotate(0,848,632)"/><path d="M 836 668v 24h 12a 12 12, 0, 0, 0, 0 -24" transform="rotate(180,848,680)"/><path d="M 836 740v 24h 24v -12a 12 12, 0, 0, 0, -12 -12" transform="rotate(0,848,752)"/><rect x="836" y="764" width="24" height="24" transform="rotate(0,848,776)"/><rect x="836" y="788" width="24" height="24" transform="rotate(0,848,800)"/><rect x="836" y="812" width="24" height="24" transform="rotate(0,848,824)"/><rect x="836" y="836" width="24" height="24" transform="rotate(0,848,848)"/><path d="M 836 860v 24h 24v -12a 12 12, 0, 0, 0, -12 -12" transform="rotate(90,848,872)"/><path d="M 836 908v 24h 12a 12 12, 0, 0, 0, 0 -24" transform="rotate(180,848,920)"/><circle cx="872" cy="272" r="12" transform="rotate(0,872,272)"/><rect x="860" y="308" width="24" height="24" transform="rotate(0,872,320)"/><path d="M 860 356v 24h 24v -12a 12 12, 0, 0, 0, -12 -12" transform="rotate(-90,872,368)"/><rect x="860" y="380" width="24" height="24" transform="rotate(0,872,392)"/><path d="M 860 428v 24h 24v -12a 12 12, 0, 0, 0, -12 -12" transform="rotate(-90,872,440)"/><rect x="860" y="452" width="24" height="24" transform="rotate(0,872,464)"/><rect x="860" y="476" width="24" height="24" transform="rotate(0,872,488)"/><rect x="860" y="500" width="24" height="24" transform="rotate(0,872,512)"/><path d="M 860 524v 24h 24v -12a 12 12, 0, 0, 0, -12 -12" transform="rotate(180,872,536)"/><path d="M 860 572v 24h 12a 12 12, 0, 0, 0, 0 -24" transform="rotate(180,872,584)"/><path d="M 860 668v 24h 24v -12a 12 12, 0, 0, 0, -12 -12" transform="rotate(0,872,680)"/><rect x="860" y="692" width="24" height="24" transform="rotate(0,872,704)"/><path d="M 860 716v 24h 24v -12a 12 12, 0, 0, 0, -12 -12" transform="rotate(180,872,728)"/><rect x="860" y="812" width="24" height="24" transform="rotate(0,872,824)"/><rect x="860" y="836" width="24" height="24" transform="rotate(0,872,848)"/><path d="M 860 884v 24h 12a 12 12, 0, 0, 0, 0 -24" transform="rotate(-90,872,896)"/><rect x="860" y="908" width="24" height="24" transform="rotate(0,872,920)"/><path d="M 884 308v 24h 12a 12 12, 0, 0, 0, 0 -24" transform="rotate(0,896,320)"/><path d="M 884 356v 24h 24v -12a 12 12, 0, 0, 0, -12 -12" transform="rotate(0,896,368)"/><rect x="884" y="380" width="24" height="24" transform="rotate(0,896,392)"/><path d="M 884 428v 24h 12a 12 12, 0, 0, 0, 0 -24" transform="rotate(0,896,440)"/><path d="M 884 476v 24h 12a 12 12, 0, 0, 0, 0 -24" transform="rotate(0,896,488)"/><rect x="884" y="524" width="24" height="24" transform="rotate(0,896,536)"/><rect x="884" y="572" width="24" height="24" transform="rotate(0,896,584)"/><path d="M 884 692v 24h 24v -12a 12 12, 0, 0, 0, -12 -12" transform="rotate(0,896,704)"/><path d="M 884 716v 24h 24v -12a 12 12, 0, 0, 0, -12 -12" transform="rotate(90,896,728)"/><rect x="884" y="812" width="24" height="24" transform="rotate(0,896,824)"/><rect x="884" y="836" width="24" height="24" transform="rotate(0,896,848)"/><path d="M 884 860v 24h 24v -12a 12 12, 0, 0, 0, -12 -12" transform="rotate(180,896,872)"/><path d="M 884 908v 24h 24v -12a 12 12, 0, 0, 0, -12 -12" transform="rotate(0,896,920)"/><path d="M 884 932v 24h 12a 12 12, 0, 0, 0, 0 -24" transform="rotate(90,896,944)"/><path d="M 908 332v 24h 12a 12 12, 0, 0, 0, 0 -24" transform="rotate(180,920,344)"/><rect x="908" y="380" width="24" height="24" transform="rotate(0,920,392)"/><circle cx="920" cy="464" r="12" transform="rotate(0,920,464)"/><path d="M 908 524v 24h 24v -12a 12 12, 0, 0, 0, -12 -12" transform="rotate(0,920,536)"/><rect x="908" y="548" width="24" height="24" transform="rotate(0,920,560)"/><rect x="908" y="572" width="24" height="24" transform="rotate(0,920,584)"/><path d="M 908 596v 24h 12a 12 12, 0, 0, 0, 0 -24" transform="rotate(90,920,608)"/><path d="M 908 668v 24h 12a 12 12, 0, 0, 0, 0 -24" transform="rotate(180,920,680)"/><path d="M 908 740v 24h 12a 12 12, 0, 0, 0, 0 -24" transform="rotate(180,920,752)"/><path d="M 908 788v 24h 24v -12a 12 12, 0, 0, 0, -12 -12" transform="rotate(-90,920,800)"/><path d="M 908 812v 24h 24v -12a 12 12, 0, 0, 0, -12 -12" transform="rotate(90,920,824)"/><rect x="908" y="860" width="24" height="24" transform="rotate(0,920,872)"/><circle cx="944" cy="272" r="12" transform="rotate(0,944,272)"/><path d="M 932 332v 24h 24v -12a 12 12, 0, 0, 0, -12 -12" transform="rotate(0,944,344)"/><rect x="932" y="356" width="24" height="24" transform="rotate(0,944,368)"/><path d="M 932 380v 24h 24v -12a 12 12, 0, 0, 0, -12 -12" transform="rotate(90,944,392)"/><circle cx="944" cy="440" r="12" transform="rotate(0,944,440)"/><path d="M 932 476v 24h 12a 12 12, 0, 0, 0, 0 -24" transform="rotate(-90,944,488)"/><path d="M 932 500v 24h 12a 12 12, 0, 0, 0, 0 -24" transform="rotate(90,944,512)"/><path d="M 932 548v 24h 24v -12a 12 12, 0, 0, 0, -12 -12" transform="rotate(0,944,560)"/><path d="M 932 572v 24h 24v -12a 12 12, 0, 0, 0, -12 -12" transform="rotate(90,944,584)"/><path d="M 932 644v 24h 12a 12 12, 0, 0, 0, 0 -24" transform="rotate(-90,944,656)"/><path d="M 932 668v 24h 24v -12a 12 12, 0, 0, 0, -12 -12" transform="rotate(90,944,680)"/><path d="M 932 740v 24h 24v -12a 12 12, 0, 0, 0, -12 -12" transform="rotate(0,944,752)"/><rect x="932" y="764" width="24" height="24" transform="rotate(0,944,776)"/><path d="M 932 788v 24h 24v -12a 12 12, 0, 0, 0, -12 -12" transform="rotate(90,944,800)"/><path d="M 932 860v 24h 12a 12 12, 0, 0, 0, 0 -24" transform="rotate(0,944,872)"/><path d="M 932 908v 24h 12a 12 12, 0, 0, 0, 0 -24" transform="rotate(-90,944,920)"/><path d="M 932 932v 24h 12a 12 12, 0, 0, 0, 0 -24" transform="rotate(90,944,944)"/></clipPath><clipPath id="clip-path-corners-square-color-0-0"><path clip-rule="evenodd" d="M 68 128v 48a 60 60, 0, 0, 0, 60 60h 48a 60 60, 0, 0, 0, 60 -60v -48a 60 60, 0, 0, 0, -60 -60h -48a 60 60, 0, 0, 0, -60 60M 128 92h 48a 36 36, 0, 0, 1, 36 36v 48a 36 36, 0, 0, 1, -36 36h -48a 36 36, 0, 0, 1, -36 -36v -48a 36 36, 0, 0, 1, 36 -36" transform="rotate(0,152,152)"/></clipPath><clipPath id="clip-path-corners-dot-color-0-0"><path d="m 116 116 m 51.429 72 h -30.857 c -11.366 0 -20.571 -9.206 -20.571 -20.571 v -30.857 c 0 -11.366 9.206 -20.571 20.571 -20.571 h 30.857 c 11.366 0 20.571 9.206 20.571 20.571 v 30.857 c 0 11.366 -9.206 20.571 -20.571 20.571 z"/></clipPath><clipPath id="clip-path-corners-square-color-1-0"><path clip-rule="evenodd" d="M 788 128v 48a 60 60, 0, 0, 0, 60 60h 48a 60 60, 0, 0, 0, 60 -60v -48a 60 60, 0, 0, 0, -60 -60h -48a 60 60, 0, 0, 0, -60 60M 848 92h 48a 36 36, 0, 0, 1, 36 36v 48a 36 36, 0, 0, 1, -36 36h -48a 36 36, 0, 0, 1, -36 -36v -48a 36 36, 0, 0, 1, 36 -36" transform="rotate(90,872,152)"/></clipPath><clipPath id="clip-path-corners-dot-color-1-0"><path d="m 836 116 m 51.429 72 h -30.857 c -11.366 0 -20.571 -9.206 -20.571 -20.571 v -30.857 c 0 -11.366 9.206 -20.571 20.571 -20.571 h 30.857 c 11.366 0 20.571 9.206 20.571 20.571 v 30.857 c 0 11.366 -9.206 20.571 -20.571 20.571 z"/></clipPath><clipPath id="clip-path-corners-square-color-0-1"><path clip-rule="evenodd" d="M 68 848v 48a 60 60, 0, 0, 0, 60 60h 48a 60 60, 0, 0, 0, 60 -60v -48a 60 60, 0, 0, 0, -60 -60h -48a 60 60, 0, 0, 0, -60 60M 128 812h 48a 36 36, 0, 0, 1, 36 36v 48a 36 36, 0, 0, 1, -36 36h -48a 36 36, 0, 0, 1, -36 -36v -48a 36 36, 0, 0, 1, 36 -36" transform="rotate(-90,152,872)"/></clipPath><clipPath id="clip-path-corners-dot-color-0-1"><path d="m 116 836 m 51.429 72 h -30.857 c -11.366 0 -20.571 -9.206 -20.571 -20.571 v -30.857 c 0 -11.366 9.206 -20.571 20.571 -20.571 h 30.857 c 11.366 0 20.571 9.206 20.571 20.571 v 30.857 c 0 11.366 -9.206 20.571 -20.571 20.571 z"/></clipPath></defs><rect x="0" y="0" height="1024" width="1024" clip-path="url('#clip-path-background-color')" fill="#ffffff"/><rect x="68" y="68" height="888" width="888" clip-path="url('#clip-path-dot-color')" fill="#000000"/><rect x="68" y="68" height="168" width="168" clip-path="url('#clip-path-corners-square-color-0-0')" fill="#000000"/><rect x="116" y="116" height="72" width="72" clip-path="url('#clip-path-corners-dot-color-0-0')" fill="#000000"/><rect x="788" y="68" height="168" width="168" clip-path="url('#clip-path-corners-square-color-1-0')" fill="#000000"/><rect x="836" y="116" height="72" width="72" clip-path="url('#clip-path-corners-dot-color-1-0')" fill="#000000"/><rect x="68" y="788" height="168" width="168" clip-path="url('#clip-path-corners-square-color-0-1')" fill="#000000"/><rect x="116" y="836" height="72" width="72" clip-path="url('#clip-path-corners-dot-color-0-1')" fill="#000000"/><svg xmlns="http://www.w3.org/2000/svg" fill="none" viewBox="0 0 64 64" height="216px" width="216px" x="404" y="404"><path fill="#0d34b4" d="M26.742 63.794V42.065c0-2.315.525-4.51 1.462-6.475a15 15 0 0 1-6.476 1.46L0 37.053V26.947h21.728a5 5 0 0 0 3.535-1.478 5 5 0 0 0 1.479-3.535V.206h10.104v21.728c0 2.314-.526 4.51-1.462 6.474a15 15 0 0 1 6.475-1.46h21.729v10.104H41.859c-1.37 0-2.624.566-3.535 1.477a5 5 0 0 0-1.477 3.537v21.728z" clip-rule="evenodd" fill-rule="evenodd"/><path fill="url(#a)" d="m12.886 5.945 15.363 15.364c2.934 2.933 4.401 6.805 4.402 10.677v.028c0 3.872-1.468 7.744-4.402 10.677L12.886 58.055l-7.147-7.147 15.364-15.363A5.02 5.02 0 0 0 22.573 32a5.02 5.02 0 0 0-1.47-3.544L5.739 13.092z" clip-rule="evenodd" fill-rule="evenodd"/><path fill="url(#b)" d="M25.827 24.938a14.84 14.84 0 0 1-6.183 12.064l-.05.05L5.74 50.91l7.146 7.146L26.742 44.2l1.508-1.508a14.94 14.94 0 0 0 3.544-5.634 15.2 15.2 0 0 0 .857-5.045v-.026c0-1.71-.285-3.418-.857-5.045a14.94 14.94 0 0 0-3.544-5.634L26.74 19.8l-4.27-4.27a14.8 14.8 0 0 1 3.356 9.408" clip-rule="evenodd" fill-rule="evenodd"/><path fill="url(#c)" d="M25.827 24.938a14.84 14.84 0 0 1-6.183 12.064l-.05.05L5.74 50.91l7.146 7.146L26.742 44.2l1.508-1.508a14.94 14.94 0 0 0 3.544-5.634 15.2 15.2 0 0 0 .857-5.045v-.026c0-1.71-.285-3.418-.857-5.045a14.94 14.94 0 0 0-3.544-5.634L26.74 19.8l-4.27-4.27a14.8 14.8 0 0 1 3.356 9.408" clip-rule="evenodd" fill-rule="evenodd"/><path fill="url(#d)" d="m39.396 46.75 11.306 11.306 7.147-7.148-15.364-15.363A5.02 5.02 0 0 1 41.014 32a5.02 5.02 0 0 1 1.471-3.544l1.457-1.457a14.84 14.84 0 0 0-6.18 12.199 14.8 14.8 0 0 0 3.355 9.273z" clip-rule="evenodd" fill-rule="evenodd"/><path fill="url(#e)" d="M37.761 39.062a14.84 14.84 0 0 1 6.183-12.065l.05-.05 13.855-13.856-7.146-7.146L36.846 19.8l-1.508 1.508a14.9 14.9 0 0 0-3.544 5.634 15.2 15.2 0 0 0-.858 5.044v.027c0 1.709.286 3.417.858 5.045a14.94 14.94 0 0 0 3.544 5.634l1.509 1.508 4.27 4.27a14.8 14.8 0 0 1-3.355-9.273z" clip-rule="evenodd" fill-rule="evenodd"/><defs><linearGradient gradientUnits="userSpaceOnUse" y2="41.276" x2="26.724" y1="12.794" x1="1.07" id="a"><stop stop-color="#008bff"/><stop stop-color="#5fffec" offset="1"/></linearGradient><linearGradient gradientUnits="userSpaceOnUse" y2="17.775" x2="28.426" y1="43.443" x1="5.169" id="b"><stop stop-color="#008bff"/><stop stop-color="#5fffec" offset="1"/></linearGradient><linearGradient gradientUnits="userSpaceOnUse" y2="17.775" x2="28.426" y1="43.443" x1="5.169" id="c"><stop stop-color="#5fffec"/><stop stop-color="#008bff" offset="1"/></linearGradient><linearGradient gradientUnits="userSpaceOnUse" y2="57.293" x2="46.851" y1="30.864" x1="39.743" id="d"><stop stop-color="#5fffec"/><stop stop-color="#008bff" offset="1"/></linearGradient><linearGradient gradientUnits="userSpaceOnUse" y2="8.19" x2="53.623" y1="33.859" x1="30.366" id="e"><stop stop-color="#008bff"/><stop stop-color="#5fffec" offset="1"/></linearGradient></defs></svg></svg>