<?xml version="1.0" standalone="no"?>
<svg xmlns="http://www.w3.org/2000/svg" width="1024" height="1024" viewBox="0 0 1024 1024"><defs><clipPath id="clip-path-dot-color"><circle cx="80" cy="272" r="12" transform="rotate(0,80,272)"/><path d="M 68 356v 24h 12a 12 12, 0, 0, 0, 0 -24" transform="rotate(180,80,368)"/><circle cx="80" cy="464" r="12" transform="rotate(0,80,464)"/><path d="M 68 500v 24h 12a 12 12, 0, 0, 0, 0 -24" transform="rotate(-90,80,512)"/><path d="M 68 524v 24h 12a 12 12, 0, 0, 0, 0 -24" transform="rotate(90,80,536)"/><circle cx="80" cy="608" r="12" transform="rotate(0,80,608)"/><path d="M 68 644v 24h 12a 12 12, 0, 0, 0, 0 -24" transform="rotate(-90,80,656)"/><path d="M 68 668v 24h 24v -12a 12 12, 0, 0, 0, -12 -12" transform="rotate(180,80,680)"/><circle cx="80" cy="728" r="12" transform="rotate(0,80,728)"/><path d="M 92 332v 24h 24v -12a 12 12, 0, 0, 0, -12 -12" transform="rotate(-90,104,344)"/><path d="M 92 356v 24h 24v -12a 12 12, 0, 0, 0, -12 -12" transform="rotate(90,104,368)"/><circle cx="104" cy="416" r="12" transform="rotate(0,104,416)"/><path d="M 92 548v 24h 24v -12a 12 12, 0, 0, 0, -12 -12" transform="rotate(-90,104,560)"/><path d="M 92 572v 24h 24v -12a 12 12, 0, 0, 0, -12 -12" transform="rotate(180,104,584)"/><path d="M 92 668v 24h 12a 12 12, 0, 0, 0, 0 -24" transform="rotate(0,104,680)"/><path d="M 116 284v 24h 12a 12 12, 0, 0, 0, 0 -24" transform="rotate(180,128,296)"/><path d="M 116 332v 24h 12a 12 12, 0, 0, 0, 0 -24" transform="rotate(0,128,344)"/><path d="M 116 452v 24h 24v -12a 12 12, 0, 0, 0, -12 -12" transform="rotate(-90,128,464)"/><rect x="116" y="476" width="24" height="24" transform="rotate(0,128,488)"/><rect x="116" y="500" width="24" height="24" transform="rotate(0,128,512)"/><rect x="116" y="524" width="24" height="24" transform="rotate(0,128,536)"/><rect x="116" y="548" width="24" height="24" transform="rotate(0,128,560)"/><path d="M 116 572v 24h 24v -12a 12 12, 0, 0, 0, -12 -12" transform="rotate(90,128,584)"/><path d="M 116 620v 24h 12a 12 12, 0, 0, 0, 0 -24" transform="rotate(180,128,632)"/><path d="M 140 260v 24h 24v -12a 12 12, 0, 0, 0, -12 -12" transform="rotate(-90,152,272)"/><rect x="140" y="284" width="24" height="24" transform="rotate(0,152,296)"/><path d="M 140 308v 24h 12a 12 12, 0, 0, 0, 0 -24" transform="rotate(90,152,320)"/><path d="M 140 380v 24h 12a 12 12, 0, 0, 0, 0 -24" transform="rotate(180,152,392)"/><path d="M 140 428v 24h 12a 12 12, 0, 0, 0, 0 -24" transform="rotate(-90,152,440)"/><path d="M 140 452v 24h 24v -12a 12 12, 0, 0, 0, -12 -12" transform="rotate(90,152,464)"/><path d="M 140 524v 24h 12a 12 12, 0, 0, 0, 0 -24" transform="rotate(0,152,536)"/><rect x="140" y="620" width="24" height="24" transform="rotate(0,152,632)"/><rect x="140" y="644" width="24" height="24" transform="rotate(0,152,656)"/><path d="M 140 668v 24h 24v -12a 12 12, 0, 0, 0, -12 -12" transform="rotate(180,152,680)"/><path d="M 140 716v 24h 24v -12a 12 12, 0, 0, 0, -12 -12" transform="rotate(-90,152,728)"/><path d="M 140 740v 24h 24v -12a 12 12, 0, 0, 0, -12 -12" transform="rotate(180,152,752)"/><rect x="164" y="260" width="24" height="24" transform="rotate(0,176,272)"/><rect x="164" y="284" width="24" height="24" transform="rotate(0,176,296)"/><rect x="164" y="380" width="24" height="24" transform="rotate(0,176,392)"/><path d="M 164 572v 24h 24v -12a 12 12, 0, 0, 0, -12 -12" transform="rotate(-90,176,584)"/><rect x="164" y="596" width="24" height="24" transform="rotate(0,176,608)"/><path d="M 164 620v 24h 24v -12a 12 12, 0, 0, 0, -12 -12" transform="rotate(90,176,632)"/><path d="M 164 668v 24h 24v -12a 12 12, 0, 0, 0, -12 -12" transform="rotate(0,176,680)"/><rect x="164" y="692" width="24" height="24" transform="rotate(0,176,704)"/><rect x="164" y="716" width="24" height="24" transform="rotate(0,176,728)"/><rect x="164" y="740" width="24" height="24" transform="rotate(0,176,752)"/><rect x="188" y="260" width="24" height="24" transform="rotate(0,200,272)"/><rect x="188" y="284" width="24" height="24" transform="rotate(0,200,296)"/><path d="M 188 308v 24h 24v -12a 12 12, 0, 0, 0, -12 -12" transform="rotate(180,200,320)"/><path d="M 188 356v 24h 24v -12a 12 12, 0, 0, 0, -12 -12" transform="rotate(-90,200,368)"/><path d="M 188 380v 24h 24v -12a 12 12, 0, 0, 0, -12 -12" transform="rotate(90,200,392)"/><path d="M 188 428v 24h 12a 12 12, 0, 0, 0, 0 -24" transform="rotate(-90,200,440)"/><path d="M 188 452v 24h 24v -12a 12 12, 0, 0, 0, -12 -12" transform="rotate(180,200,464)"/><path d="M 188 500v 24h 24v -12a 12 12, 0, 0, 0, -12 -12" transform="rotate(-90,200,512)"/><path d="M 188 524v 24h 12a 12 12, 0, 0, 0, 0 -24" transform="rotate(90,200,536)"/><path d="M 188 572v 24h 24v -12a 12 12, 0, 0, 0, -12 -12" transform="rotate(0,200,584)"/><rect x="188" y="596" width="24" height="24" transform="rotate(0,200,608)"/><rect x="188" y="740" width="24" height="24" transform="rotate(0,200,752)"/><rect x="212" y="260" width="24" height="24" transform="rotate(0,224,272)"/><path d="M 212 308v 24h 12a 12 12, 0, 0, 0, 0 -24" transform="rotate(0,224,320)"/><rect x="212" y="356" width="24" height="24" transform="rotate(0,224,368)"/><path d="M 212 404v 24h 12a 12 12, 0, 0, 0, 0 -24" transform="rotate(180,224,416)"/><rect x="212" y="452" width="24" height="24" transform="rotate(0,224,464)"/><rect x="212" y="500" width="24" height="24" transform="rotate(0,224,512)"/><circle cx="224" cy="560" r="12" transform="rotate(0,224,560)"/><rect x="212" y="596" width="24" height="24" transform="rotate(0,224,608)"/><path d="M 212 644v 24h 12a 12 12, 0, 0, 0, 0 -24" transform="rotate(180,224,656)"/><path d="M 212 692v 24h 12a 12 12, 0, 0, 0, 0 -24" transform="rotate(180,224,704)"/><path d="M 212 740v 24h 12a 12 12, 0, 0, 0, 0 -24" transform="rotate(0,224,752)"/><rect x="236" y="260" width="24" height="24" transform="rotate(0,248,272)"/><path d="M 236 284v 24h 24v -12a 12 12, 0, 0, 0, -12 -12" transform="rotate(180,248,296)"/><path d="M 236 332v 24h 12a 12 12, 0, 0, 0, 0 -24" transform="rotate(-90,248,344)"/><path d="M 236 356v 24h 24v -12a 12 12, 0, 0, 0, -12 -12" transform="rotate(90,248,368)"/><rect x="236" y="404" width="24" height="24" transform="rotate(0,248,416)"/><rect x="236" y="428" width="24" height="24" transform="rotate(0,248,440)"/><rect x="236" y="452" width="24" height="24" transform="rotate(0,248,464)"/><rect x="236" y="476" width="24" height="24" transform="rotate(0,248,488)"/><rect x="236" y="500" width="24" height="24" transform="rotate(0,248,512)"/><path d="M 236 524v 24h 24v -12a 12 12, 0, 0, 0, -12 -12" transform="rotate(180,248,536)"/><rect x="236" y="596" width="24" height="24" transform="rotate(0,248,608)"/><rect x="236" y="620" width="24" height="24" transform="rotate(0,248,632)"/><rect x="236" y="644" width="24" height="24" transform="rotate(0,248,656)"/><path d="M 236 692v 24h 24v -12a 12 12, 0, 0, 0, -12 -12" transform="rotate(0,248,704)"/><path d="M 236 716v 24h 12a 12 12, 0, 0, 0, 0 -24" transform="rotate(90,248,728)"/><path d="M 260 68v 24h 12a 12 12, 0, 0, 0, 0 -24" transform="rotate(180,272,80)"/><circle cx="272" cy="176" r="12" transform="rotate(0,272,176)"/><path d="M 260 212v 24h 12a 12 12, 0, 0, 0, 0 -24" transform="rotate(-90,272,224)"/><rect x="260" y="236" width="24" height="24" transform="rotate(0,272,248)"/><rect x="260" y="260" width="24" height="24" transform="rotate(0,272,272)"/><path d="M 260 284v 24h 24v -12a 12 12, 0, 0, 0, -12 -12" transform="rotate(90,272,296)"/><path d="M 260 380v 24h 24v -12a 12 12, 0, 0, 0, -12 -12" transform="rotate(-90,272,392)"/><path d="M 260 404v 24h 24v -12a 12 12, 0, 0, 0, -12 -12" transform="rotate(90,272,416)"/><path d="M 260 500v 24h 24v -12a 12 12, 0, 0, 0, -12 -12" transform="rotate(0,272,512)"/><rect x="260" y="524" width="24" height="24" transform="rotate(0,272,536)"/><path d="M 260 596v 24h 12a 12 12, 0, 0, 0, 0 -24" transform="rotate(0,272,608)"/><path d="M 260 644v 24h 12a 12 12, 0, 0, 0, 0 -24" transform="rotate(0,272,656)"/><path d="M 260 740v 24h 12a 12 12, 0, 0, 0, 0 -24" transform="rotate(-90,272,752)"/><rect x="260" y="764" width="24" height="24" transform="rotate(0,272,776)"/><rect x="260" y="788" width="24" height="24" transform="rotate(0,272,800)"/><rect x="260" y="812" width="24" height="24" transform="rotate(0,272,824)"/><rect x="260" y="836" width="24" height="24" transform="rotate(0,272,848)"/><path d="M 260 860v 24h 12a 12 12, 0, 0, 0, 0 -24" transform="rotate(90,272,872)"/><circle cx="272" cy="944" r="12" transform="rotate(0,272,944)"/><rect x="284" y="68" width="24" height="24" transform="rotate(0,296,80)"/><path d="M 284 92v 24h 24v -12a 12 12, 0, 0, 0, -12 -12" transform="rotate(180,296,104)"/><path d="M 284 188v 24h 12a 12 12, 0, 0, 0, 0 -24" transform="rotate(180,296,200)"/><path d="M 284 236v 24h 12a 12 12, 0, 0, 0, 0 -24" transform="rotate(0,296,248)"/><rect x="284" y="380" width="24" height="24" transform="rotate(0,296,392)"/><path d="M 284 452v 24h 24v -12a 12 12, 0, 0, 0, -12 -12" transform="rotate(-90,296,464)"/><path d="M 284 476v 24h 24v -12a 12 12, 0, 0, 0, -12 -12" transform="rotate(180,296,488)"/><path d="M 284 524v 24h 24v -12a 12 12, 0, 0, 0, -12 -12" transform="rotate(0,296,536)"/><path d="M 284 548v 24h 24v -12a 12 12, 0, 0, 0, -12 -12" transform="rotate(180,296,560)"/><path d="M 284 692v 24h 24v -12a 12 12, 0, 0, 0, -12 -12" transform="rotate(-90,296,704)"/><path d="M 284 716v 24h 24v -12a 12 12, 0, 0, 0, -12 -12" transform="rotate(180,296,728)"/><path d="M 284 836v 24h 12a 12 12, 0, 0, 0, 0 -24" transform="rotate(0,296,848)"/><circle cx="296" cy="920" r="12" transform="rotate(0,296,920)"/><rect x="308" y="68" width="24" height="24" transform="rotate(0,320,80)"/><rect x="308" y="92" width="24" height="24" transform="rotate(0,320,104)"/><rect x="308" y="116" width="24" height="24" transform="rotate(0,320,128)"/><path d="M 308 140v 24h 24v -12a 12 12, 0, 0, 0, -12 -12" transform="rotate(180,320,152)"/><path d="M 308 188v 24h 24v -12a 12 12, 0, 0, 0, -12 -12" transform="rotate(0,320,200)"/><path d="M 308 212v 24h 12a 12 12, 0, 0, 0, 0 -24" transform="rotate(90,320,224)"/><path d="M 308 260v 24h 12a 12 12, 0, 0, 0, 0 -24" transform="rotate(-90,320,272)"/><rect x="308" y="284" width="24" height="24" transform="rotate(0,320,296)"/><rect x="308" y="308" width="24" height="24" transform="rotate(0,320,320)"/><path d="M 308 332v 24h 12a 12 12, 0, 0, 0, 0 -24" transform="rotate(90,320,344)"/><path d="M 308 380v 24h 12a 12 12, 0, 0, 0, 0 -24" transform="rotate(0,320,392)"/><path d="M 308 452v 24h 24v -12a 12 12, 0, 0, 0, -12 -12" transform="rotate(0,320,464)"/><rect x="308" y="476" width="24" height="24" transform="rotate(0,320,488)"/><path d="M 308 548v 24h 12a 12 12, 0, 0, 0, 0 -24" transform="rotate(0,320,560)"/><circle cx="320" cy="608" r="12" transform="rotate(0,320,608)"/><path d="M 308 668v 24h 12a 12 12, 0, 0, 0, 0 -24" transform="rotate(-90,320,680)"/><rect x="308" y="692" width="24" height="24" transform="rotate(0,320,704)"/><path d="M 308 716v 24h 24v -12a 12 12, 0, 0, 0, -12 -12" transform="rotate(90,320,728)"/><path d="M 308 788v 24h 24v -12a 12 12, 0, 0, 0, -12 -12" transform="rotate(-90,320,800)"/><path d="M 308 812v 24h 24v -12a 12 12, 0, 0, 0, -12 -12" transform="rotate(180,320,824)"/><path d="M 308 884v 24h 12a 12 12, 0, 0, 0, 0 -24" transform="rotate(180,320,896)"/><path d="M 332 68v 24h 24v -12a 12 12, 0, 0, 0, -12 -12" transform="rotate(0,344,80)"/><rect x="332" y="92" width="24" height="24" transform="rotate(0,344,104)"/><path d="M 332 140v 24h 24v -12a 12 12, 0, 0, 0, -12 -12" transform="rotate(0,344,152)"/><path d="M 332 164v 24h 12a 12 12, 0, 0, 0, 0 -24" transform="rotate(90,344,176)"/><path d="M 332 236v 24h 12a 12 12, 0, 0, 0, 0 -24" transform="rotate(180,344,248)"/><path d="M 332 284v 24h 24v -12a 12 12, 0, 0, 0, -12 -12" transform="rotate(0,344,296)"/><path d="M 332 308v 24h 24v -12a 12 12, 0, 0, 0, -12 -12" transform="rotate(90,344,320)"/><rect x="332" y="476" width="24" height="24" transform="rotate(0,344,488)"/><path d="M 332 500v 24h 24v -12a 12 12, 0, 0, 0, -12 -12" transform="rotate(180,344,512)"/><path d="M 332 572v 24h 12a 12 12, 0, 0, 0, 0 -24" transform="rotate(180,344,584)"/><path d="M 332 644v 24h 12a 12 12, 0, 0, 0, 0 -24" transform="rotate(180,344,656)"/><circle cx="344" cy="752" r="12" transform="rotate(0,344,752)"/><rect x="332" y="788" width="24" height="24" transform="rotate(0,344,800)"/><rect x="332" y="812" width="24" height="24" transform="rotate(0,344,824)"/><rect x="332" y="836" width="24" height="24" transform="rotate(0,344,848)"/><rect x="332" y="860" width="24" height="24" transform="rotate(0,344,872)"/><rect x="332" y="884" width="24" height="24" transform="rotate(0,344,896)"/><path d="M 332 908v 24h 24v -12a 12 12, 0, 0, 0, -12 -12" transform="rotate(180,344,920)"/><rect x="356" y="92" width="24" height="24" transform="rotate(0,368,104)"/><path d="M 356 116v 24h 24v -12a 12 12, 0, 0, 0, -12 -12" transform="rotate(180,368,128)"/><path d="M 356 212v 24h 12a 12 12, 0, 0, 0, 0 -24" transform="rotate(-90,368,224)"/><path d="M 356 236v 24h 24v -12a 12 12, 0, 0, 0, -12 -12" transform="rotate(90,368,248)"/><circle cx="368" cy="392" r="12" transform="rotate(0,368,392)"/><path d="M 356 428v 24h 24v -12a 12 12, 0, 0, 0, -12 -12" transform="rotate(-90,368,440)"/><rect x="356" y="452" width="24" height="24" transform="rotate(0,368,464)"/><rect x="356" y="476" width="24" height="24" transform="rotate(0,368,488)"/><rect x="356" y="500" width="24" height="24" transform="rotate(0,368,512)"/><rect x="356" y="524" width="24" height="24" transform="rotate(0,368,536)"/><rect x="356" y="548" width="24" height="24" transform="rotate(0,368,560)"/><path d="M 356 572v 24h 24v -12a 12 12, 0, 0, 0, -12 -12" transform="rotate(90,368,584)"/><path d="M 356 620v 24h 24v -12a 12 12, 0, 0, 0, -12 -12" transform="rotate(-90,368,632)"/><path d="M 356 644v 24h 24v -12a 12 12, 0, 0, 0, -12 -12" transform="rotate(90,368,656)"/><path d="M 356 764v 24h 12a 12 12, 0, 0, 0, 0 -24" transform="rotate(-90,368,776)"/><rect x="356" y="788" width="24" height="24" transform="rotate(0,368,800)"/><path d="M 356 812v 24h 24v -12a 12 12, 0, 0, 0, -12 -12" transform="rotate(90,368,824)"/><path d="M 356 884v 24h 24v -12a 12 12, 0, 0, 0, -12 -12" transform="rotate(0,368,896)"/><rect x="356" y="908" width="24" height="24" transform="rotate(0,368,920)"/><path d="M 356 932v 24h 12a 12 12, 0, 0, 0, 0 -24" transform="rotate(90,368,944)"/><path d="M 380 68v 24h 12a 12 12, 0, 0, 0, 0 -24" transform="rotate(-90,392,80)"/><rect x="380" y="92" width="24" height="24" transform="rotate(0,392,104)"/><rect x="380" y="116" width="24" height="24" transform="rotate(0,392,128)"/><rect x="380" y="140" width="24" height="24" transform="rotate(0,392,152)"/><path d="M 380 164v 24h 12a 12 12, 0, 0, 0, 0 -24" transform="rotate(90,392,176)"/><circle cx="392" cy="320" r="12" transform="rotate(0,392,320)"/><path d="M 380 428v 24h 12a 12 12, 0, 0, 0, 0 -24" transform="rotate(0,392,440)"/><path d="M 380 476v 24h 24v -12a 12 12, 0, 0, 0, -12 -12" transform="rotate(0,392,488)"/><path d="M 380 500v 24h 24v -12a 12 12, 0, 0, 0, -12 -12" transform="rotate(90,392,512)"/><rect x="380" y="620" width="24" height="24" transform="rotate(0,392,632)"/><path d="M 380 668v 24h 12a 12 12, 0, 0, 0, 0 -24" transform="rotate(180,392,680)"/><path d="M 380 716v 24h 24v -12a 12 12, 0, 0, 0, -12 -12" transform="rotate(-90,392,728)"/><path d="M 380 740v 24h 12a 12 12, 0, 0, 0, 0 -24" transform="rotate(90,392,752)"/><path d="M 380 836v 24h 12a 12 12, 0, 0, 0, 0 -24" transform="rotate(-90,392,848)"/><path d="M 380 860v 24h 24v -12a 12 12, 0, 0, 0, -12 -12" transform="rotate(180,392,872)"/><path d="M 404 140v 24h 12a 12 12, 0, 0, 0, 0 -24" transform="rotate(0,416,152)"/><path d="M 404 188v 24h 24v -12a 12 12, 0, 0, 0, -12 -12" transform="rotate(-90,416,200)"/><path d="M 404 212v 24h 12a 12 12, 0, 0, 0, 0 -24" transform="rotate(90,416,224)"/><path d="M 404 332v 24h 12a 12 12, 0, 0, 0, 0 -24" transform="rotate(180,416,344)"/><path d="M 404 620v 24h 24v -12a 12 12, 0, 0, 0, -12 -12" transform="rotate(0,416,632)"/><rect x="404" y="644" width="24" height="24" transform="rotate(0,416,656)"/><path d="M 404 668v 24h 24v -12a 12 12, 0, 0, 0, -12 -12" transform="rotate(90,416,680)"/><rect x="404" y="716" width="24" height="24" transform="rotate(0,416,728)"/><path d="M 404 860v 24h 24v -12a 12 12, 0, 0, 0, -12 -12" transform="rotate(0,416,872)"/><path d="M 404 884v 24h 24v -12a 12 12, 0, 0, 0, -12 -12" transform="rotate(180,416,896)"/><circle cx="440" cy="128" r="12" transform="rotate(0,440,128)"/><path d="M 428 164v 24h 24v -12a 12 12, 0, 0, 0, -12 -12" transform="rotate(-90,440,176)"/><rect x="428" y="188" width="24" height="24" transform="rotate(0,440,200)"/><path d="M 428 284v 24h 12a 12 12, 0, 0, 0, 0 -24" transform="rotate(-90,440,296)"/><rect x="428" y="308" width="24" height="24" transform="rotate(0,440,320)"/><rect x="428" y="332" width="24" height="24" transform="rotate(0,440,344)"/><path d="M 428 380v 24h 12a 12 12, 0, 0, 0, 0 -24" transform="rotate(180,440,392)"/><rect x="428" y="716" width="24" height="24" transform="rotate(0,440,728)"/><path d="M 428 812v 24h 12a 12 12, 0, 0, 0, 0 -24" transform="rotate(180,440,824)"/><rect x="428" y="884" width="24" height="24" transform="rotate(0,440,896)"/><rect x="428" y="908" width="24" height="24" transform="rotate(0,440,920)"/><path d="M 428 932v 24h 24v -12a 12 12, 0, 0, 0, -12 -12" transform="rotate(180,440,944)"/><circle cx="464" cy="80" r="12" transform="rotate(0,464,80)"/><rect x="452" y="164" width="24" height="24" transform="rotate(0,464,176)"/><rect x="452" y="188" width="24" height="24" transform="rotate(0,464,200)"/><rect x="452" y="212" width="24" height="24" transform="rotate(0,464,224)"/><path d="M 452 236v 24h 12a 12 12, 0, 0, 0, 0 -24" transform="rotate(90,464,248)"/><path d="M 452 332v 24h 12a 12 12, 0, 0, 0, 0 -24" transform="rotate(0,464,344)"/><path d="M 452 380v 24h 12a 12 12, 0, 0, 0, 0 -24" transform="rotate(0,464,392)"/><rect x="452" y="716" width="24" height="24" transform="rotate(0,464,728)"/><path d="M 452 740v 24h 12a 12 12, 0, 0, 0, 0 -24" transform="rotate(90,464,752)"/><path d="M 452 788v 24h 12a 12 12, 0, 0, 0, 0 -24" transform="rotate(-90,464,800)"/><rect x="452" y="812" width="24" height="24" transform="rotate(0,464,824)"/><path d="M 452 860v 24h 24v -12a 12 12, 0, 0, 0, -12 -12" transform="rotate(-90,464,872)"/><rect x="452" y="884" width="24" height="24" transform="rotate(0,464,896)"/><rect x="452" y="908" width="24" height="24" transform="rotate(0,464,920)"/><path d="M 452 932v 24h 24v -12a 12 12, 0, 0, 0, -12 -12" transform="rotate(90,464,944)"/><path d="M 476 116v 24h 12a 12 12, 0, 0, 0, 0 -24" transform="rotate(-90,488,128)"/><rect x="476" y="140" width="24" height="24" transform="rotate(0,488,152)"/><rect x="476" y="164" width="24" height="24" transform="rotate(0,488,176)"/><circle cx="488" cy="272" r="12" transform="rotate(0,488,272)"/><path d="M 476 644v 24h 24v -12a 12 12, 0, 0, 0, -12 -12" transform="rotate(-90,488,656)"/><rect x="476" y="668" width="24" height="24" transform="rotate(0,488,680)"/><rect x="476" y="692" width="24" height="24" transform="rotate(0,488,704)"/><rect x="476" y="716" width="24" height="24" transform="rotate(0,488,728)"/><path d="M 476 764v 24h 12a 12 12, 0, 0, 0, 0 -24" transform="rotate(180,488,776)"/><rect x="476" y="812" width="24" height="24" transform="rotate(0,488,824)"/><rect x="476" y="836" width="24" height="24" transform="rotate(0,488,848)"/><rect x="476" y="860" width="24" height="24" transform="rotate(0,488,872)"/><rect x="476" y="884" width="24" height="24" transform="rotate(0,488,896)"/><path d="M 476 908v 24h 24v -12a 12 12, 0, 0, 0, -12 -12" transform="rotate(90,488,920)"/><rect x="500" y="164" width="24" height="24" transform="rotate(0,512,176)"/><circle cx="512" cy="224" r="12" transform="rotate(0,512,224)"/><path d="M 500 308v 24h 12a 12 12, 0, 0, 0, 0 -24" transform="rotate(-90,512,320)"/><rect x="500" y="332" width="24" height="24" transform="rotate(0,512,344)"/><rect x="500" y="356" width="24" height="24" transform="rotate(0,512,368)"/><path d="M 500 380v 24h 12a 12 12, 0, 0, 0, 0 -24" transform="rotate(90,512,392)"/><path d="M 500 620v 24h 24v -12a 12 12, 0, 0, 0, -12 -12" transform="rotate(-90,512,632)"/><path d="M 500 644v 24h 24v -12a 12 12, 0, 0, 0, -12 -12" transform="rotate(90,512,656)"/><rect x="500" y="692" width="24" height="24" transform="rotate(0,512,704)"/><rect x="500" y="716" width="24" height="24" transform="rotate(0,512,728)"/><path d="M 500 764v 24h 12a 12 12, 0, 0, 0, 0 -24" transform="rotate(0,512,776)"/><rect x="500" y="812" width="24" height="24" transform="rotate(0,512,824)"/><rect x="500" y="884" width="24" height="24" transform="rotate(0,512,896)"/><path d="M 524 92v 24h 24v -12a 12 12, 0, 0, 0, -12 -12" transform="rotate(-90,536,104)"/><rect x="524" y="116" width="24" height="24" transform="rotate(0,536,128)"/><rect x="524" y="140" width="24" height="24" transform="rotate(0,536,152)"/><rect x="524" y="164" width="24" height="24" transform="rotate(0,536,176)"/><path d="M 524 188v 24h 24v -12a 12 12, 0, 0, 0, -12 -12" transform="rotate(180,536,200)"/><path d="M 524 260v 24h 12a 12 12, 0, 0, 0, 0 -24" transform="rotate(180,536,272)"/><path d="M 524 332v 24h 12a 12 12, 0, 0, 0, 0 -24" transform="rotate(0,536,344)"/><path d="M 524 620v 24h 12a 12 12, 0, 0, 0, 0 -24" transform="rotate(0,536,632)"/><path d="M 524 692v 24h 24v -12a 12 12, 0, 0, 0, -12 -12" transform="rotate(0,536,704)"/><rect x="524" y="716" width="24" height="24" transform="rotate(0,536,728)"/><path d="M 524 740v 24h 12a 12 12, 0, 0, 0, 0 -24" transform="rotate(90,536,752)"/><path d="M 524 788v 24h 24v -12a 12 12, 0, 0, 0, -12 -12" transform="rotate(-90,536,800)"/><rect x="524" y="812" width="24" height="24" transform="rotate(0,536,824)"/><path d="M 524 860v 24h 24v -12a 12 12, 0, 0, 0, -12 -12" transform="rotate(-90,536,872)"/><rect x="524" y="884" width="24" height="24" transform="rotate(0,536,896)"/><path d="M 524 908v 24h 12a 12 12, 0, 0, 0, 0 -24" transform="rotate(90,536,920)"/><path d="M 548 68v 24h 24v -12a 12 12, 0, 0, 0, -12 -12" transform="rotate(-90,560,80)"/><rect x="548" y="92" width="24" height="24" transform="rotate(0,560,104)"/><rect x="548" y="116" width="24" height="24" transform="rotate(0,560,128)"/><rect x="548" y="140" width="24" height="24" transform="rotate(0,560,152)"/><rect x="548" y="164" width="24" height="24" transform="rotate(0,560,176)"/><rect x="548" y="188" width="24" height="24" transform="rotate(0,560,200)"/><rect x="548" y="212" width="24" height="24" transform="rotate(0,560,224)"/><rect x="548" y="236" width="24" height="24" transform="rotate(0,560,248)"/><rect x="548" y="260" width="24" height="24" transform="rotate(0,560,272)"/><rect x="548" y="284" width="24" height="24" transform="rotate(0,560,296)"/><path d="M 548 308v 24h 24v -12a 12 12, 0, 0, 0, -12 -12" transform="rotate(180,560,320)"/><circle cx="560" cy="656" r="12" transform="rotate(0,560,656)"/><path d="M 548 764v 24h 24v -12a 12 12, 0, 0, 0, -12 -12" transform="rotate(-90,560,776)"/><rect x="548" y="788" width="24" height="24" transform="rotate(0,560,800)"/><path d="M 548 812v 24h 24v -12a 12 12, 0, 0, 0, -12 -12" transform="rotate(90,560,824)"/><path d="M 548 860v 24h 24v -12a 12 12, 0, 0, 0, -12 -12" transform="rotate(0,560,872)"/><path d="M 548 884v 24h 24v -12a 12 12, 0, 0, 0, -12 -12" transform="rotate(90,560,896)"/><path d="M 572 68v 24h 12a 12 12, 0, 0, 0, 0 -24" transform="rotate(0,584,80)"/><path d="M 572 260v 24h 12a 12 12, 0, 0, 0, 0 -24" transform="rotate(0,584,272)"/><rect x="572" y="308" width="24" height="24" transform="rotate(0,584,320)"/><path d="M 572 332v 24h 24v -12a 12 12, 0, 0, 0, -12 -12" transform="rotate(180,584,344)"/><circle cx="584" cy="392" r="12" transform="rotate(0,584,392)"/><path d="M 572 620v 24h 12a 12 12, 0, 0, 0, 0 -24" transform="rotate(180,584,632)"/><circle cx="584" cy="680" r="12" transform="rotate(0,584,680)"/><path d="M 572 716v 24h 24v -12a 12 12, 0, 0, 0, -12 -12" transform="rotate(-90,584,728)"/><rect x="572" y="740" width="24" height="24" transform="rotate(0,584,752)"/><rect x="572" y="764" width="24" height="24" transform="rotate(0,584,776)"/><path d="M 572 836v 24h 12a 12 12, 0, 0, 0, 0 -24" transform="rotate(180,584,848)"/><path d="M 572 908v 24h 12a 12 12, 0, 0, 0, 0 -24" transform="rotate(180,584,920)"/><circle cx="608" cy="104" r="12" transform="rotate(0,608,104)"/><circle cx="608" cy="176" r="12" transform="rotate(0,608,176)"/><circle cx="608" cy="224" r="12" transform="rotate(0,608,224)"/><rect x="596" y="308" width="24" height="24" transform="rotate(0,608,320)"/><rect x="596" y="332" width="24" height="24" transform="rotate(0,608,344)"/><path d="M 596 356v 24h 12a 12 12, 0, 0, 0, 0 -24" transform="rotate(90,608,368)"/><path d="M 596 620v 24h 24v -12a 12 12, 0, 0, 0, -12 -12" transform="rotate(0,608,632)"/><path d="M 596 644v 24h 12a 12 12, 0, 0, 0, 0 -24" transform="rotate(90,608,656)"/><path d="M 596 692v 24h 24v -12a 12 12, 0, 0, 0, -12 -12" transform="rotate(-90,608,704)"/><rect x="596" y="716" width="24" height="24" transform="rotate(0,608,728)"/><rect x="596" y="740" width="24" height="24" transform="rotate(0,608,752)"/><rect x="596" y="764" width="24" height="24" transform="rotate(0,608,776)"/><path d="M 596 812v 24h 24v -12a 12 12, 0, 0, 0, -12 -12" transform="rotate(-90,608,824)"/><rect x="596" y="836" width="24" height="24" transform="rotate(0,608,848)"/><rect x="596" y="860" width="24" height="24" transform="rotate(0,608,872)"/><rect x="596" y="884" width="24" height="24" transform="rotate(0,608,896)"/><path d="M 596 908v 24h 24v -12a 12 12, 0, 0, 0, -12 -12" transform="rotate(90,608,920)"/><path d="M 620 68v 24h 12a 12 12, 0, 0, 0, 0 -24" transform="rotate(180,632,80)"/><path d="M 620 116v 24h 24v -12a 12 12, 0, 0, 0, -12 -12" transform="rotate(-90,632,128)"/><path d="M 620 140v 24h 24v -12a 12 12, 0, 0, 0, -12 -12" transform="rotate(180,632,152)"/><circle cx="632" cy="200" r="12" transform="rotate(0,632,200)"/><path d="M 620 236v 24h 12a 12 12, 0, 0, 0, 0 -24" transform="rotate(-90,632,248)"/><path d="M 620 260v 24h 24v -12a 12 12, 0, 0, 0, -12 -12" transform="rotate(180,632,272)"/><rect x="620" y="308" width="24" height="24" transform="rotate(0,632,320)"/><rect x="620" y="332" width="24" height="24" transform="rotate(0,632,344)"/><path d="M 620 380v 24h 24v -12a 12 12, 0, 0, 0, -12 -12" transform="rotate(-90,632,392)"/><rect x="620" y="404" width="24" height="24" transform="rotate(0,632,416)"/><rect x="620" y="428" width="24" height="24" transform="rotate(0,632,440)"/><rect x="620" y="452" width="24" height="24" transform="rotate(0,632,464)"/><rect x="620" y="476" width="24" height="24" transform="rotate(0,632,488)"/><rect x="620" y="500" width="24" height="24" transform="rotate(0,632,512)"/><rect x="620" y="524" width="24" height="24" transform="rotate(0,632,536)"/><path d="M 620 548v 24h 12a 12 12, 0, 0, 0, 0 -24" transform="rotate(90,632,560)"/><path d="M 620 596v 24h 12a 12 12, 0, 0, 0, 0 -24" transform="rotate(180,632,608)"/><path d="M 620 692v 24h 24v -12a 12 12, 0, 0, 0, -12 -12" transform="rotate(0,632,704)"/><path d="M 620 716v 24h 24v -12a 12 12, 0, 0, 0, -12 -12" transform="rotate(90,632,728)"/><path d="M 620 764v 24h 24v -12a 12 12, 0, 0, 0, -12 -12" transform="rotate(0,632,776)"/><rect x="620" y="788" width="24" height="24" transform="rotate(0,632,800)"/><rect x="620" y="812" width="24" height="24" transform="rotate(0,632,824)"/><rect x="620" y="836" width="24" height="24" transform="rotate(0,632,848)"/><rect x="620" y="860" width="24" height="24" transform="rotate(0,632,872)"/><rect x="620" y="884" width="24" height="24" transform="rotate(0,632,896)"/><rect x="644" y="68" width="24" height="24" transform="rotate(0,656,80)"/><rect x="644" y="92" width="24" height="24" transform="rotate(0,656,104)"/><rect x="644" y="116" width="24" height="24" transform="rotate(0,656,128)"/><rect x="644" y="140" width="24" height="24" transform="rotate(0,656,152)"/><circle cx="656" cy="224" r="12" transform="rotate(0,656,224)"/><path d="M 644 260v 24h 24v -12a 12 12, 0, 0, 0, -12 -12" transform="rotate(0,656,272)"/><rect x="644" y="284" width="24" height="24" transform="rotate(0,656,296)"/><rect x="644" y="308" width="24" height="24" transform="rotate(0,656,320)"/><path d="M 644 332v 24h 24v -12a 12 12, 0, 0, 0, -12 -12" transform="rotate(90,656,344)"/><path d="M 644 380v 24h 12a 12 12, 0, 0, 0, 0 -24" transform="rotate(0,656,392)"/><path d="M 644 500v 24h 24v -12a 12 12, 0, 0, 0, -12 -12" transform="rotate(0,656,512)"/><rect x="644" y="524" width="24" height="24" transform="rotate(0,656,536)"/><path d="M 644 596v 24h 12a 12 12, 0, 0, 0, 0 -24" transform="rotate(0,656,608)"/><circle cx="656" cy="656" r="12" transform="rotate(0,656,656)"/><circle cx="656" cy="752" r="12" transform="rotate(0,656,752)"/><path d="M 644 788v 24h 12a 12 12, 0, 0, 0, 0 -24" transform="rotate(0,656,800)"/><path d="M 644 860v 24h 24v -12a 12 12, 0, 0, 0, -12 -12" transform="rotate(0,656,872)"/><rect x="644" y="884" width="24" height="24" transform="rotate(0,656,896)"/><rect x="644" y="908" width="24" height="24" transform="rotate(0,656,920)"/><path d="M 644 932v 24h 12a 12 12, 0, 0, 0, 0 -24" transform="rotate(90,656,944)"/><path d="M 668 68v 24h 24v -12a 12 12, 0, 0, 0, -12 -12" transform="rotate(0,680,80)"/><rect x="668" y="92" width="24" height="24" transform="rotate(0,680,104)"/><rect x="668" y="116" width="24" height="24" transform="rotate(0,680,128)"/><rect x="668" y="140" width="24" height="24" transform="rotate(0,680,152)"/><path d="M 668 164v 24h 12a 12 12, 0, 0, 0, 0 -24" transform="rotate(90,680,176)"/><circle cx="680" cy="248" r="12" transform="rotate(0,680,248)"/><path d="M 668 356v 24h 12a 12 12, 0, 0, 0, 0 -24" transform="rotate(180,680,368)"/><path d="M 668 452v 24h 12a 12 12, 0, 0, 0, 0 -24" transform="rotate(180,680,464)"/><path d="M 668 524v 24h 24v -12a 12 12, 0, 0, 0, -12 -12" transform="rotate(0,680,536)"/><path d="M 668 548v 24h 24v -12a 12 12, 0, 0, 0, -12 -12" transform="rotate(180,680,560)"/><path d="M 668 692v 24h 12a 12 12, 0, 0, 0, 0 -24" transform="rotate(-90,680,704)"/><path d="M 668 716v 24h 24v -12a 12 12, 0, 0, 0, -12 -12" transform="rotate(180,680,728)"/><path d="M 668 764v 24h 12a 12 12, 0, 0, 0, 0 -24" transform="rotate(180,680,776)"/><path d="M 668 812v 24h 12a 12 12, 0, 0, 0, 0 -24" transform="rotate(-90,680,824)"/><path d="M 668 836v 24h 12a 12 12, 0, 0, 0, 0 -24" transform="rotate(90,680,848)"/><rect x="668" y="884" width="24" height="24" transform="rotate(0,680,896)"/><path d="M 692 140v 24h 12a 12 12, 0, 0, 0, 0 -24" transform="rotate(0,704,152)"/><path d="M 692 188v 24h 12a 12 12, 0, 0, 0, 0 -24" transform="rotate(-90,704,200)"/><path d="M 692 212v 24h 12a 12 12, 0, 0, 0, 0 -24" transform="rotate(90,704,224)"/><path d="M 692 260v 24h 24v -12a 12 12, 0, 0, 0, -12 -12" transform="rotate(-90,704,272)"/><rect x="692" y="284" width="24" height="24" transform="rotate(0,704,296)"/><rect x="692" y="308" width="24" height="24" transform="rotate(0,704,320)"/><rect x="692" y="332" width="24" height="24" transform="rotate(0,704,344)"/><rect x="692" y="356" width="24" height="24" transform="rotate(0,704,368)"/><path d="M 692 380v 24h 12a 12 12, 0, 0, 0, 0 -24" transform="rotate(90,704,392)"/><path d="M 692 452v 24h 24v -12a 12 12, 0, 0, 0, -12 -12" transform="rotate(0,704,464)"/><path d="M 692 476v 24h 24v -12a 12 12, 0, 0, 0, -12 -12" transform="rotate(180,704,488)"/><path d="M 692 548v 24h 12a 12 12, 0, 0, 0, 0 -24" transform="rotate(0,704,560)"/><circle cx="704" cy="680" r="12" transform="rotate(0,704,680)"/><path d="M 692 716v 24h 24v -12a 12 12, 0, 0, 0, -12 -12" transform="rotate(0,704,728)"/><rect x="692" y="740" width="24" height="24" transform="rotate(0,704,752)"/><path d="M 692 764v 24h 24v -12a 12 12, 0, 0, 0, -12 -12" transform="rotate(90,704,776)"/><rect x="692" y="884" width="24" height="24" transform="rotate(0,704,896)"/><path d="M 716 116v 24h 12a 12 12, 0, 0, 0, 0 -24" transform="rotate(180,728,128)"/><path d="M 716 164v 24h 12a 12 12, 0, 0, 0, 0 -24" transform="rotate(180,728,176)"/><path d="M 716 236v 24h 12a 12 12, 0, 0, 0, 0 -24" transform="rotate(-90,728,248)"/><rect x="716" y="260" width="24" height="24" transform="rotate(0,728,272)"/><path d="M 716 284v 24h 24v -12a 12 12, 0, 0, 0, -12 -12" transform="rotate(90,728,296)"/><path d="M 716 356v 24h 12a 12 12, 0, 0, 0, 0 -24" transform="rotate(0,728,368)"/><rect x="716" y="476" width="24" height="24" transform="rotate(0,728,488)"/><path d="M 716 500v 24h 24v -12a 12 12, 0, 0, 0, -12 -12" transform="rotate(180,728,512)"/><path d="M 716 572v 24h 24v -12a 12 12, 0, 0, 0, -12 -12" transform="rotate(-90,728,584)"/><path d="M 716 596v 24h 24v -12a 12 12, 0, 0, 0, -12 -12" transform="rotate(180,728,608)"/><path d="M 716 644v 24h 12a 12 12, 0, 0, 0, 0 -24" transform="rotate(180,728,656)"/><rect x="716" y="740" width="24" height="24" transform="rotate(0,728,752)"/><path d="M 716 788v 24h 12a 12 12, 0, 0, 0, 0 -24" transform="rotate(180,728,800)"/><path d="M 716 860v 24h 24v -12a 12 12, 0, 0, 0, -12 -12" transform="rotate(-90,728,872)"/><rect x="716" y="884" width="24" height="24" transform="rotate(0,728,896)"/><circle cx="728" cy="944" r="12" transform="rotate(0,728,944)"/><path d="M 740 68v 24h 12a 12 12, 0, 0, 0, 0 -24" transform="rotate(-90,752,80)"/><rect x="740" y="92" width="24" height="24" transform="rotate(0,752,104)"/><rect x="740" y="116" width="24" height="24" transform="rotate(0,752,128)"/><rect x="740" y="140" width="24" height="24" transform="rotate(0,752,152)"/><rect x="740" y="164" width="24" height="24" transform="rotate(0,752,176)"/><rect x="740" y="188" width="24" height="24" transform="rotate(0,752,200)"/><path d="M 740 212v 24h 12a 12 12, 0, 0, 0, 0 -24" transform="rotate(90,752,224)"/><circle cx="752" cy="320" r="12" transform="rotate(0,752,320)"/><path d="M 740 380v 24h 12a 12 12, 0, 0, 0, 0 -24" transform="rotate(-90,752,392)"/><rect x="740" y="404" width="24" height="24" transform="rotate(0,752,416)"/><rect x="740" y="428" width="24" height="24" transform="rotate(0,752,440)"/><rect x="740" y="452" width="24" height="24" transform="rotate(0,752,464)"/><rect x="740" y="476" width="24" height="24" transform="rotate(0,752,488)"/><rect x="740" y="500" width="24" height="24" transform="rotate(0,752,512)"/><rect x="740" y="524" width="24" height="24" transform="rotate(0,752,536)"/><rect x="740" y="548" width="24" height="24" transform="rotate(0,752,560)"/><rect x="740" y="572" width="24" height="24" transform="rotate(0,752,584)"/><rect x="740" y="596" width="24" height="24" transform="rotate(0,752,608)"/><rect x="740" y="620" width="24" height="24" transform="rotate(0,752,632)"/><path d="M 740 644v 24h 24v -12a 12 12, 0, 0, 0, -12 -12" transform="rotate(90,752,656)"/><path d="M 740 692v 24h 12a 12 12, 0, 0, 0, 0 -24" transform="rotate(180,752,704)"/><rect x="740" y="740" width="24" height="24" transform="rotate(0,752,752)"/><rect x="740" y="764" width="24" height="24" transform="rotate(0,752,776)"/><rect x="740" y="788" width="24" height="24" transform="rotate(0,752,800)"/><rect x="740" y="812" width="24" height="24" transform="rotate(0,752,824)"/><rect x="740" y="836" width="24" height="24" transform="rotate(0,752,848)"/><rect x="740" y="860" width="24" height="24" transform="rotate(0,752,872)"/><rect x="740" y="884" width="24" height="24" transform="rotate(0,752,896)"/><path d="M 740 908v 24h 12a 12 12, 0, 0, 0, 0 -24" transform="rotate(90,752,920)"/><path d="M 764 260v 24h 12a 12 12, 0, 0, 0, 0 -24" transform="rotate(180,776,272)"/><rect x="764" y="404" width="24" height="24" transform="rotate(0,776,416)"/><rect x="764" y="428" width="24" height="24" transform="rotate(0,776,440)"/><path d="M 764 476v 24h 12a 12 12, 0, 0, 0, 0 -24" transform="rotate(0,776,488)"/><rect x="764" y="620" width="24" height="24" transform="rotate(0,776,632)"/><path d="M 764 668v 24h 12a 12 12, 0, 0, 0, 0 -24" transform="rotate(-90,776,680)"/><path d="M 764 692v 24h 24v -12a 12 12, 0, 0, 0, -12 -12" transform="rotate(90,776,704)"/><rect x="764" y="740" width="24" height="24" transform="rotate(0,776,752)"/><rect x="764" y="836" width="24" height="24" transform="rotate(0,776,848)"/><path d="M 764 884v 24h 12a 12 12, 0, 0, 0, 0 -24" transform="rotate(0,776,896)"/><path d="M 788 260v 24h 12a 12 12, 0, 0, 0, 0 -24" transform="rotate(0,800,272)"/><path d="M 788 332v 24h 12a 12 12, 0, 0, 0, 0 -24" transform="rotate(180,800,344)"/><path d="M 788 380v 24h 24v -12a 12 12, 0, 0, 0, -12 -12" transform="rotate(-90,800,392)"/><rect x="788" y="404" width="24" height="24" transform="rotate(0,800,416)"/><rect x="788" y="428" width="24" height="24" transform="rotate(0,800,440)"/><path d="M 788 452v 24h 12a 12 12, 0, 0, 0, 0 -24" transform="rotate(90,800,464)"/><circle cx="800" cy="512" r="12" transform="rotate(0,800,512)"/><path d="M 788 548v 24h 12a 12 12, 0, 0, 0, 0 -24" transform="rotate(-90,800,560)"/><rect x="788" y="572" width="24" height="24" transform="rotate(0,800,584)"/><rect x="788" y="596" width="24" height="24" transform="rotate(0,800,608)"/><rect x="788" y="620" width="24" height="24" transform="rotate(0,800,632)"/><path d="M 788 644v 24h 12a 12 12, 0, 0, 0, 0 -24" transform="rotate(90,800,656)"/><rect x="788" y="740" width="24" height="24" transform="rotate(0,800,752)"/><circle cx="800" cy="800" r="12" transform="rotate(0,800,800)"/><rect x="788" y="836" width="24" height="24" transform="rotate(0,800,848)"/><path d="M 788 860v 24h 24v -12a 12 12, 0, 0, 0, -12 -12" transform="rotate(180,800,872)"/><path d="M 812 332v 24h 12a 12 12, 0, 0, 0, 0 -24" transform="rotate(0,824,344)"/><path d="M 812 380v 24h 12a 12 12, 0, 0, 0, 0 -24" transform="rotate(0,824,392)"/><path d="M 812 572v 24h 12a 12 12, 0, 0, 0, 0 -24" transform="rotate(0,824,584)"/><path d="M 812 620v 24h 12a 12 12, 0, 0, 0, 0 -24" transform="rotate(0,824,632)"/><circle cx="824" cy="704" r="12" transform="rotate(0,824,704)"/><rect x="812" y="740" width="24" height="24" transform="rotate(0,824,752)"/><rect x="812" y="836" width="24" height="24" transform="rotate(0,824,848)"/><rect x="812" y="860" width="24" height="24" transform="rotate(0,824,872)"/><rect x="812" y="884" width="24" height="24" transform="rotate(0,824,896)"/><path d="M 812 908v 24h 24v -12a 12 12, 0, 0, 0, -12 -12" transform="rotate(180,824,920)"/><path d="M 836 260v 24h 12a 12 12, 0, 0, 0, 0 -24" transform="rotate(-90,848,272)"/><rect x="836" y="284" width="24" height="24" transform="rotate(0,848,296)"/><path d="M 836 308v 24h 12a 12 12, 0, 0, 0, 0 -24" transform="rotate(90,848,320)"/><circle cx="848" cy="368" r="12" transform="rotate(0,848,368)"/><circle cx="848" cy="464" r="12" transform="rotate(0,848,464)"/><circle cx="848" cy="560" r="12" transform="rotate(0,848,560)"/><path d="M 836 644v 24h 12a 12 12, 0, 0, 0, 0 -24" transform="rotate(180,848,656)"/><rect x="836" y="740" width="24" height="24" transform="rotate(0,848,752)"/><rect x="836" y="764" width="24" height="24" transform="rotate(0,848,776)"/><rect x="836" y="788" width="24" height="24" transform="rotate(0,848,800)"/><rect x="836" y="812" width="24" height="24" transform="rotate(0,848,824)"/><path d="M 836 836v 24h 24v -12a 12 12, 0, 0, 0, -12 -12" transform="rotate(90,848,848)"/><path d="M 836 884v 24h 24v -12a 12 12, 0, 0, 0, -12 -12" transform="rotate(0,848,896)"/><rect x="836" y="908" width="24" height="24" transform="rotate(0,848,920)"/><path d="M 836 932v 24h 12a 12 12, 0, 0, 0, 0 -24" transform="rotate(90,848,944)"/><path d="M 860 380v 24h 24v -12a 12 12, 0, 0, 0, -12 -12" transform="rotate(-90,872,392)"/><path d="M 860 404v 24h 24v -12a 12 12, 0, 0, 0, -12 -12" transform="rotate(180,872,416)"/><path d="M 860 500v 24h 24v -12a 12 12, 0, 0, 0, -12 -12" transform="rotate(-90,872,512)"/><path d="M 860 524v 24h 24v -12a 12 12, 0, 0, 0, -12 -12" transform="rotate(180,872,536)"/><path d="M 860 596v 24h 12a 12 12, 0, 0, 0, 0 -24" transform="rotate(180,872,608)"/><rect x="860" y="644" width="24" height="24" transform="rotate(0,872,656)"/><path d="M 860 692v 24h 12a 12 12, 0, 0, 0, 0 -24" transform="rotate(180,872,704)"/><path d="M 860 740v 24h 12a 12 12, 0, 0, 0, 0 -24" transform="rotate(0,872,752)"/><rect x="860" y="788" width="24" height="24" transform="rotate(0,872,800)"/><path d="M 860 812v 24h 24v -12a 12 12, 0, 0, 0, -12 -12" transform="rotate(90,872,824)"/><rect x="860" y="908" width="24" height="24" transform="rotate(0,872,920)"/><path d="M 884 332v 24h 12a 12 12, 0, 0, 0, 0 -24" transform="rotate(180,896,344)"/><rect x="884" y="380" width="24" height="24" transform="rotate(0,896,392)"/><rect x="884" y="404" width="24" height="24" transform="rotate(0,896,416)"/><path d="M 884 428v 24h 24v -12a 12 12, 0, 0, 0, -12 -12" transform="rotate(180,896,440)"/><rect x="884" y="500" width="24" height="24" transform="rotate(0,896,512)"/><rect x="884" y="524" width="24" height="24" transform="rotate(0,896,536)"/><path d="M 884 572v 24h 24v -12a 12 12, 0, 0, 0, -12 -12" transform="rotate(-90,896,584)"/><rect x="884" y="596" width="24" height="24" transform="rotate(0,896,608)"/><rect x="884" y="620" width="24" height="24" transform="rotate(0,896,632)"/><rect x="884" y="644" width="24" height="24" transform="rotate(0,896,656)"/><rect x="884" y="668" width="24" height="24" transform="rotate(0,896,680)"/><rect x="884" y="692" width="24" height="24" transform="rotate(0,896,704)"/><path d="M 884 764v 24h 12a 12 12, 0, 0, 0, 0 -24" transform="rotate(-90,896,776)"/><path d="M 884 788v 24h 24v -12a 12 12, 0, 0, 0, -12 -12" transform="rotate(90,896,800)"/><path d="M 884 884v 24h 24v -12a 12 12, 0, 0, 0, -12 -12" transform="rotate(-90,896,896)"/><rect x="884" y="908" width="24" height="24" transform="rotate(0,896,920)"/><path d="M 908 284v 24h 12a 12 12, 0, 0, 0, 0 -24" transform="rotate(180,920,296)"/><path d="M 908 332v 24h 24v -12a 12 12, 0, 0, 0, -12 -12" transform="rotate(0,920,344)"/><rect x="908" y="356" width="24" height="24" transform="rotate(0,920,368)"/><rect x="908" y="380" width="24" height="24" transform="rotate(0,920,392)"/><path d="M 908 428v 24h 24v -12a 12 12, 0, 0, 0, -12 -12" transform="rotate(0,920,440)"/><rect x="908" y="452" width="24" height="24" transform="rotate(0,920,464)"/><rect x="908" y="476" width="24" height="24" transform="rotate(0,920,488)"/><rect x="908" y="500" width="24" height="24" transform="rotate(0,920,512)"/><rect x="908" y="524" width="24" height="24" transform="rotate(0,920,536)"/><rect x="908" y="548" width="24" height="24" transform="rotate(0,920,560)"/><rect x="908" y="572" width="24" height="24" transform="rotate(0,920,584)"/><path d="M 908 692v 24h 12a 12 12, 0, 0, 0, 0 -24" transform="rotate(0,920,704)"/><path d="M 908 812v 24h 12a 12 12, 0, 0, 0, 0 -24" transform="rotate(-90,920,824)"/><rect x="908" y="836" width="24" height="24" transform="rotate(0,920,848)"/><rect x="908" y="860" width="24" height="24" transform="rotate(0,920,872)"/><rect x="908" y="884" width="24" height="24" transform="rotate(0,920,896)"/><rect x="908" y="908" width="24" height="24" transform="rotate(0,920,920)"/><path d="M 932 260v 24h 12a 12 12, 0, 0, 0, 0 -24" transform="rotate(-90,944,272)"/><path d="M 932 284v 24h 24v -12a 12 12, 0, 0, 0, -12 -12" transform="rotate(90,944,296)"/><path d="M 932 380v 24h 12a 12 12, 0, 0, 0, 0 -24" transform="rotate(0,944,392)"/><path d="M 932 476v 24h 12a 12 12, 0, 0, 0, 0 -24" transform="rotate(0,944,488)"/><path d="M 932 572v 24h 12a 12 12, 0, 0, 0, 0 -24" transform="rotate(0,944,584)"/><circle cx="944" cy="656" r="12" transform="rotate(0,944,656)"/><circle cx="944" cy="800" r="12" transform="rotate(0,944,800)"/><path d="M 932 860v 24h 24v -12a 12 12, 0, 0, 0, -12 -12" transform="rotate(0,944,872)"/><rect x="932" y="884" width="24" height="24" transform="rotate(0,944,896)"/><rect x="932" y="908" width="24" height="24" transform="rotate(0,944,920)"/><path d="M 932 932v 24h 12a 12 12, 0, 0, 0, 0 -24" transform="rotate(90,944,944)"/></clipPath><clipPath id="clip-path-corners-square-color-0-0"><path clip-rule="evenodd" d="M 68 128v 48a 60 60, 0, 0, 0, 60 60h 48a 60 60, 0, 0, 0, 60 -60v -48a 60 60, 0, 0, 0, -60 -60h -48a 60 60, 0, 0, 0, -60 60M 128 92h 48a 36 36, 0, 0, 1, 36 36v 48a 36 36, 0, 0, 1, -36 36h -48a 36 36, 0, 0, 1, -36 -36v -48a 36 36, 0, 0, 1, 36 -36" transform="rotate(0,152,152)"/></clipPath><clipPath id="clip-path-corners-dot-color-0-0"><path d="m 116 116 m 51.429 72 h -30.857 c -11.366 0 -20.571 -9.206 -20.571 -20.571 v -30.857 c 0 -11.366 9.206 -20.571 20.571 -20.571 h 30.857 c 11.366 0 20.571 9.206 20.571 20.571 v 30.857 c 0 11.366 -9.206 20.571 -20.571 20.571 z"/></clipPath><clipPath id="clip-path-corners-square-color-1-0"><path clip-rule="evenodd" d="M 788 128v 48a 60 60, 0, 0, 0, 60 60h 48a 60 60, 0, 0, 0, 60 -60v -48a 60 60, 0, 0, 0, -60 -60h -48a 60 60, 0, 0, 0, -60 60M 848 92h 48a 36 36, 0, 0, 1, 36 36v 48a 36 36, 0, 0, 1, -36 36h -48a 36 36, 0, 0, 1, -36 -36v -48a 36 36, 0, 0, 1, 36 -36" transform="rotate(90,872,152)"/></clipPath><clipPath id="clip-path-corners-dot-color-1-0"><path d="m 836 116 m 51.429 72 h -30.857 c -11.366 0 -20.571 -9.206 -20.571 -20.571 v -30.857 c 0 -11.366 9.206 -20.571 20.571 -20.571 h 30.857 c 11.366 0 20.571 9.206 20.571 20.571 v 30.857 c 0 11.366 -9.206 20.571 -20.571 20.571 z"/></clipPath><clipPath id="clip-path-corners-square-color-0-1"><path clip-rule="evenodd" d="M 68 848v 48a 60 60, 0, 0, 0, 60 60h 48a 60 60, 0, 0, 0, 60 -60v -48a 60 60, 0, 0, 0, -60 -60h -48a 60 60, 0, 0, 0, -60 60M 128 812h 48a 36 36, 0, 0, 1, 36 36v 48a 36 36, 0, 0, 1, -36 36h -48a 36 36, 0, 0, 1, -36 -36v -48a 36 36, 0, 0, 1, 36 -36" transform="rotate(-90,152,872)"/></clipPath><clipPath id="clip-path-corners-dot-color-0-1"><path d="m 116 836 m 51.429 72 h -30.857 c -11.366 0 -20.571 -9.206 -20.571 -20.571 v -30.857 c 0 -11.366 9.206 -20.571 20.571 -20.571 h 30.857 c 11.366 0 20.571 9.206 20.571 20.571 v 30.857 c 0 11.366 -9.206 20.571 -20.571 20.571 z"/></clipPath></defs><rect x="0" y="0" height="1024" width="1024" clip-path="url('#clip-path-background-color')" fill="#ffffff"/><rect x="68" y="68" height="888" width="888" clip-path="url('#clip-path-dot-color')" fill="#000000"/><rect x="68" y="68" height="168" width="168" clip-path="url('#clip-path-corners-square-color-0-0')" fill="#000000"/><rect x="116" y="116" height="72" width="72" clip-path="url('#clip-path-corners-dot-color-0-0')" fill="#000000"/><rect x="788" y="68" height="168" width="168" clip-path="url('#clip-path-corners-square-color-1-0')" fill="#000000"/><rect x="836" y="116" height="72" width="72" clip-path="url('#clip-path-corners-dot-color-1-0')" fill="#000000"/><rect x="68" y="788" height="168" width="168" clip-path="url('#clip-path-corners-square-color-0-1')" fill="#000000"/><rect x="116" y="836" height="72" width="72" clip-path="url('#clip-path-corners-dot-color-0-1')" fill="#000000"/><svg xmlns="http://www.w3.org/2000/svg" fill="none" viewBox="0 0 64 64" height="216px" width="216px" x="404" y="404"><path fill="#0d34b4" d="M26.742 63.794V42.065c0-2.315.525-4.51 1.462-6.475a15 15 0 0 1-6.476 1.46L0 37.053V26.947h21.728a5 5 0 0 0 3.535-1.478 5 5 0 0 0 1.479-3.535V.206h10.104v21.728c0 2.314-.526 4.51-1.462 6.474a15 15 0 0 1 6.475-1.46h21.729v10.104H41.859c-1.37 0-2.624.566-3.535 1.477a5 5 0 0 0-1.477 3.537v21.728z" clip-rule="evenodd" fill-rule="evenodd"/><path fill="url(#a)" d="m12.886 5.945 15.363 15.364c2.934 2.933 4.401 6.805 4.402 10.677v.028c0 3.872-1.468 7.744-4.402 10.677L12.886 58.055l-7.147-7.147 15.364-15.363A5.02 5.02 0 0 0 22.573 32a5.02 5.02 0 0 0-1.47-3.544L5.739 13.092z" clip-rule="evenodd" fill-rule="evenodd"/><path fill="url(#b)" d="M25.827 24.938a14.84 14.84 0 0 1-6.183 12.064l-.05.05L5.74 50.91l7.146 7.146L26.742 44.2l1.508-1.508a14.94 14.94 0 0 0 3.544-5.634 15.2 15.2 0 0 0 .857-5.045v-.026c0-1.71-.285-3.418-.857-5.045a14.94 14.94 0 0 0-3.544-5.634L26.74 19.8l-4.27-4.27a14.8 14.8 0 0 1 3.356 9.408" clip-rule="evenodd" fill-rule="evenodd"/><path fill="url(#c)" d="M25.827 24.938a14.84 14.84 0 0 1-6.183 12.064l-.05.05L5.74 50.91l7.146 7.146L26.742 44.2l1.508-1.508a14.94 14.94 0 0 0 3.544-5.634 15.2 15.2 0 0 0 .857-5.045v-.026c0-1.71-.285-3.418-.857-5.045a14.94 14.94 0 0 0-3.544-5.634L26.74 19.8l-4.27-4.27a14.8 14.8 0 0 1 3.356 9.408" clip-rule="evenodd" fill-rule="evenodd"/><path fill="url(#d)" d="m39.396 46.75 11.306 11.306 7.147-7.148-15.364-15.363A5.02 5.02 0 0 1 41.014 32a5.02 5.02 0 0 1 1.471-3.544l1.457-1.457a14.84 14.84 0 0 0-6.18 12.199 14.8 14.8 0 0 0 3.355 9.273z" clip-rule="evenodd" fill-rule="evenodd"/><path fill="url(#e)" d="M37.761 39.062a14.84 14.84 0 0 1 6.183-12.065l.05-.05 13.855-13.856-7.146-7.146L36.846 19.8l-1.508 1.508a14.9 14.9 0 0 0-3.544 5.634 15.2 15.2 0 0 0-.858 5.044v.027c0 1.709.286 3.417.858 5.045a14.94 14.94 0 0 0 3.544 5.634l1.509 1.508 4.27 4.27a14.8 14.8 0 0 1-3.355-9.273z" clip-rule="evenodd" fill-rule="evenodd"/><defs><linearGradient gradientUnits="userSpaceOnUse" y2="41.276" x2="26.724" y1="12.794" x1="1.07" id="a"><stop stop-color="#008bff"/><stop stop-color="#5fffec" offset="1"/></linearGradient><linearGradient gradientUnits="userSpaceOnUse" y2="17.775" x2="28.426" y1="43.443" x1="5.169" id="b"><stop stop-color="#008bff"/><stop stop-color="#5fffec" offset="1"/></linearGradient><linearGradient gradientUnits="userSpaceOnUse" y2="17.775" x2="28.426" y1="43.443" x1="5.169" id="c"><stop stop-color="#5fffec"/><stop stop-color="#008bff" offset="1"/></linearGradient><linearGradient gradientUnits="userSpaceOnUse" y2="57.293" x2="46.851" y1="30.864" x1="39.743" id="d"><stop stop-color="#5fffec"/><stop stop-color="#008bff" offset="1"/></linearGradient><linearGradient gradientUnits="userSpaceOnUse" y2="8.19" x2="53.623" y1="33.859" x1="30.366" id="e"><stop stop-color="#008bff"/><stop stop-color="#5fffec" offset="1"/></linearGradient></defs></svg></svg>